<?xml version="1.0" encoding="utf-8"?>

<svg xmlns="http://www.w3.org/2000/svg" x="0px" y="0px"
	 width="32px" height="40px" viewBox="0 0 32 40" enable-background="new 0 0 32 40" xml:space="preserve">

<path opacity="0.3" fill="#279FF9" d="M16,3.6c-10.3,2.2-16,0-16,0V9v6.6c0,0,3.6,2.1,16,0c12.4-2.1,16,0,16,0V9V3.6
	C32,3.6,26.3,1.4,16,3.6z"/>
<path opacity="0.3" fill="#279FF9" d="M32,3.6c0,0-5.7-2.2-16,0s-16,0-16,0v2.9c0,0,3.6,2.1,16,0c12.4-2.1,16,0,16,0V3.6z"/>
<path opacity="0.3" fill="#279FF9" d="M16,3.6c-10.3,2.2-16,0-16,0V9v0.6c0,0,3.6,2.1,16,0c12.4-2.1,16,0,16,0V9V3.6
	C32,3.6,26.3,1.4,16,3.6z"/>
<path opacity="0.3" fill="#279FF9" d="M16,3.6c-10.3,2.2-16,0-16,0V9v3.6c0,0,3.6,2.1,16,0c12.4-2.1,16,0,16,0V9V3.6
	C32,3.6,26.3,1.4,16,3.6z"/>
<path opacity="0.3" fill="#279FF9" d="M16,3.6c-10.3,2.2-16,0-16,0V9v9.7c0,0,3.6,2.1,16,0c12.4-2.1,16,0,16,0V9V3.6
	C32,3.6,26.3,1.4,16,3.6z"/>
<path opacity="0.3" fill="#279FF9" d="M16,3.6c-10.3,2.2-16,0-16,0V9v12.7c0,0,3.6,2.1,16,0c12.4-2.1,16,0,16,0V3.6
	C32,3.6,26.3,1.4,16,3.6z"/>
<path opacity="0.3" fill="#279FF9" d="M16,3.6c-10.3,2.2-16,0-16,0V9v15.7c0,0,3.6,2.1,16,0c12.4-2.1,16,0,16,0V9V3.6
	C32,3.6,26.3,1.4,16,3.6z"/>
<path opacity="0.3" fill="#279FF9" d="M16,3.6c-10.3,2.2-16,0-16,0V9v18.8c0,0,3.6,2.1,16,0c12.4-2.1,16,0,16,0V9V3.6
	C32,3.6,26.3,1.4,16,3.6z"/>
<path opacity="0.3" fill="#279FF9" d="M16,3.6c-10.3,2.2-16,0-16,0V9v21.8c0,0,3.6,2.1,16,0c12.4-2.1,16,0,16,0V9V3.6
	C32,3.6,26.3,1.4,16,3.6z"/>
<path opacity="0.3" fill="#279FF9" d="M16,3.6c-10.3,2.2-16,0-16,0V9v24.8c0,0,3.6,2.1,16,0c12.4-2.1,16,0,16,0V9V3.6
	C32,3.6,26.3,1.4,16,3.6z"/>
<path opacity="0.3" fill="#279FF9" d="M16,3.6c-10.3,2.2-16,0-16,0V9v28.1c0,0,3.6,2.1,16,0c12.4-2.1,16,0,16,0V9V3.6
	C32,3.6,26.3,1.4,16,3.6z"/>
<path opacity="0.3" fill="#279FF9" d="M16,3.6c-10.3,2.2-16,0-16,0V9v31h32V9V3.6C32,3.6,26.3,1.4,16,3.6z"/>
</svg>
