<svg width="55" height="53" viewBox="0 0 55 53" xmlns="http://www.w3.org/2000/svg"><title>c4_r2</title><desc>Created with Sketch.</desc><g fill="none"><g><path id="Rectangle-1" d="M0-2h55v55h-55z"/><path d="M43.213 22.852l-.9-.414-.073-.989c-.236-3.183-2.924-5.677-6.121-5.677-.564 0-1.135.08-1.698.238l-.987.276-.697-.75c-1.545-1.662-3.733-2.615-6.004-2.615-3.888 0-7.268 2.771-8.033 6.59l-.178.894-.85.338c-2.865 1.135-4.79 3.964-4.79 7.04 0 4.176 3.4 7.576 7.577 7.576h20.028c3.609 0 6.545-2.94 6.545-6.554 0-2.548-1.498-4.884-3.819-5.953zm-1.119-11.886c-.278-5.932-5.16-10.66-11.16-10.66-3.709 0-6.985 1.812-9.021 4.59 1.553.403 3.022 1.151 4.303 2.209.872-.321 1.824-.487 2.806-.487 1.304 0 2.645.3 3.878.868 2.826 1.306 4.756 3.826 5.038 6.58l.041.392c3.148.794 5.58 3.516 5.829 6.875l.005.064.059.027c2.707 1.247 4.49 3.892 4.692 6.833 1.429-1.837 2.288-4.139 2.288-6.647-.001-5.275-3.768-9.667-8.758-10.644zm-30.783 16.817c0-3.714 2.323-7.13 5.782-8.5l.055-.022.012-.058c.911-4.551 4.937-7.852 9.574-7.852 2.705 0 5.313 1.135 7.154 3.115l.046.05.064-.018c.701-.196 1.416-.296 2.123-.296l.254.025c-.215-2.108-1.736-4.207-4.133-5.314-2.222-1.025-4.602-.921-6.329.056l-.39-.389c-2.767-2.48-6.868-3.334-10.454-1.398-2.448 1.321-4.07 3.787-4.616 6.514l-.107.536-.071.085-.533.211c-2.956 1.173-5.216 3.811-5.538 6.976-.467 4.569 2.802 8.487 7.119 9.08h.431c-.286-.884-.443-1.824-.443-2.801z" id="Shape" fill="#D5DCE2"/></g><g><path d="M0-2h55v55h-55z"/><path d="M37.844 43.229c-1.323 2.554-4.342.883-3.072-1.582 1.078-2.095 3.668-3.362 3.668-3.362s.45 2.916-.596 4.944zm-6.996 7.609c-1.323 2.554-4.342.883-3.072-1.582 1.078-2.095 3.668-3.362 3.668-3.362s.45 2.915-.596 4.944zm-6.202-7.609c-1.323 2.554-4.342.883-3.072-1.582 1.078-2.095 3.668-3.362 3.668-3.362s.45 2.916-.596 4.944zm-6.82 7.609c-1.323 2.554-4.342.883-3.072-1.582 1.078-2.095 3.668-3.362 3.668-3.362s.451 2.915-.596 4.944z" fill="#009EFF"/></g></g></svg>