<svg width="55" height="55" viewBox="0 0 55 55" xmlns="http://www.w3.org/2000/svg"><title>d_c2_rs3_st</title><desc>Created with Sketch.</desc><g fill="none"><g><path id="Rectangle-1" d="M0 0h55v55h-55z"/><path d="M40.03 24.704l-.9-.414-.073-.989c-.236-3.183-2.924-5.677-6.121-5.677-.564 0-1.135.08-1.698.238l-.987.276-.697-.75c-1.545-1.662-3.733-2.615-6.004-2.615-3.888 0-7.268 2.771-8.033 6.59l-.179.894-.849.338c-2.865 1.135-4.79 3.964-4.79 7.04 0 4.176 3.4 7.576 7.577 7.576h20.028c3.609 0 6.545-2.94 6.545-6.554 0-2.549-1.498-4.885-3.819-5.953" id="Shape" fill="#D5DCE2"/><path d="M14.749 18.759l-.003-.308c.041-.997.21-1.966.474-2.899l-6.7 2.069 5.644 2.673c.152-.533.35-1.045.585-1.535zm25.343 2.227c.153.39.275.792.363 1.21l6.024-1.865-6.335-2.999c.092.714.134 1.438.102 2.171-.021.502-.073.995-.154 1.483zm-23.17-9.09l.081-.12c.215-.312.443-.614.684-.906l.064-.08c.267-.317.545-.626.841-.917l-6.847-1.564 3.989 5.771c.324-.767.724-1.496 1.188-2.184zm3.715-3.646l.261-.166c1.052-.644 2.203-1.139 3.427-1.456l-5.141-4.765.575 6.994.196-.136c.222-.164.45-.32.682-.471zm7.389-2.019c.995.041 1.964.207 2.902.466l-2.069-6.697-3.007 6.346c.72-.093 1.446-.145 2.174-.115zm4.379.976c1.562.65 2.986 1.609 4.2 2.85l1.566-6.836-5.766 3.986zm5.232 4.026c1.049 1.368 1.802 2.911 2.222 4.553l4.758-5.128-6.98.575zm-14.086 1.969c2.705 0 5.313 1.135 7.154 3.117l.046.048.064-.017c.701-.198 1.416-.297 2.123-.297 2.258 0 4.289 1.012 5.71 2.59-.075-2.688-1.093-5.229-2.931-7.226-2.021-2.195-4.775-3.47-7.755-3.592-.842-.035-1.684.025-2.499.177-4.21.779-7.561 3.959-8.703 7.962 1.775-1.72 4.186-2.762 6.791-2.762z" id="Shape" fill="#FFCE00"/></g><g><path d="M-2 0h55v55h-55z"/><path d="M16.105 45.229c-1.323 2.554-4.342.883-3.072-1.582 1.078-2.095 3.668-3.362 3.668-3.362s.45 2.916-.596 4.944zm2.034 7.811c-1.323 2.554-4.342.883-3.072-1.582 1.078-2.095 3.668-3.362 3.668-3.362s.45 2.915-.596 4.944zm20.992-7.811c-1.323 2.554-4.342.883-3.072-1.582 1.078-2.095 3.668-3.362 3.668-3.362s.45 2.916-.596 4.944z" id="Shape" fill="#009EFF"/><path fill="#FF7800" d="M30.037 43.465l-2.815-.043 2.308-4.037-3.563.03-3.023 6.023h2.632l-3.696 9.129z"/><path d="M11.247 51.555l-2.256-.553 1.65-1.636c.128-.13.131-.34 0-.47l-.048-.047c-.128-.132-.34-.132-.47-.003l-1.653 1.638-.55-2.26c-.043-.178-.225-.288-.405-.244l-.064.016c-.178.042-.291.227-.248.403l.566 2.306-2.307-.563c-.177-.043-.36.065-.405.245l-.014.064c-.047.181.067.361.245.403l2.254.551-1.647 1.634c-.13.131-.13.342-.003.473l.048.047c.131.131.34.131.471.003l1.651-1.642.555 2.264c.043.178.225.289.402.244l.064-.014c.181-.045.293-.225.248-.403l-.563-2.306 2.305.562c.177.045.359-.067.402-.244l.017-.064c.045-.177-.068-.361-.245-.404zm23.802 0l-2.256-.553 1.65-1.636c.128-.13.131-.34 0-.47l-.048-.047c-.128-.132-.34-.132-.47-.003l-1.653 1.638-.55-2.26c-.043-.178-.225-.288-.405-.244l-.064.016c-.178.042-.291.227-.248.403l.566 2.306-2.307-.563c-.177-.043-.36.065-.405.245l-.014.064c-.047.181.067.361.245.403l2.254.551-1.647 1.634c-.13.131-.13.342-.003.473l.048.047c.131.131.34.131.471.003l1.651-1.642.555 2.264c.043.178.225.289.402.244l.064-.014c.181-.045.293-.225.247-.403l-.563-2.306 2.305.562c.177.045.359-.067.402-.244l.017-.064c.045-.177-.067-.361-.244-.404zm8.504 0l-2.256-.553 1.65-1.636c.128-.13.131-.34 0-.47l-.048-.047c-.128-.132-.34-.132-.47-.003l-1.653 1.638-.55-2.26c-.043-.178-.225-.288-.405-.244l-.064.016c-.178.042-.291.227-.248.403l.566 2.306-2.307-.563c-.177-.043-.36.065-.405.245l-.014.064c-.047.181.067.361.245.403l2.254.551-1.648 1.637c-.13.131-.13.342-.003.473l.048.047c.131.131.34.131.471.003l1.651-1.642.555 2.264c.043.178.225.289.402.244l.064-.014c.181-.045.293-.225.247-.403l-.563-2.306 2.305.562c.177.045.359-.067.402-.244l.017-.064c.047-.18-.066-.364-.243-.407z" fill="#38C0E0"/></g></g></svg>