<svg width="55" height="38" viewBox="0 0 55 38" xmlns="http://www.w3.org/2000/svg"><title>d</title><desc>Created with Sketch.</desc><g fill="#000"><path fill="none" d="M0-1h55v55h-55z"/><path d="M28.367 7.787c-.839-.065-1.683-.037-2.505.085-5.105.754-9.099 5.035-9.497 10.178-.477 6.135 4.126 11.517 10.265 11.998.838.064 1.681.035 2.505-.086 5.103-.754 9.097-5.035 9.491-10.18.236-2.974-.705-5.858-2.641-8.123-1.939-2.267-4.645-3.642-7.618-3.872zm5.604 22.097l-.27.16c-1.075.605-2.242 1.059-3.478 1.33l4.966 4.947-.321-7.01-.212.135c-.223.154-.452.3-.685.438zm-7.465 1.754c-1.002-.079-1.963-.283-2.881-.576l1.824 6.774 3.238-6.235c-.723.069-1.453.094-2.181.037zm-8.431-4.145l-1.814 6.782 5.918-3.777c-1.571-.724-2.96-1.749-4.104-3.005zm-3.039-5.843l-4.945 4.955 7.001-.32c-.977-1.375-1.684-2.947-2.056-4.635zm-.262-3.724c.077-.994.28-1.956.579-2.88l-6.77 1.824 6.222 3.227c-.068-.71-.089-1.435-.031-2.171zm2.412-6.471l.085-.118c.227-.304.465-.597.716-.88l.067-.077c.279-.308.567-.606.873-.885l-6.786-1.812 3.777 5.912c.353-.756.781-1.47 1.268-2.14zm3.845-3.509l.266-.157c1.075-.605 2.243-1.058 3.479-1.33l-4.965-4.949.321 7.01.202-.128c.227-.156.459-.304.697-.446zm7.458-1.749c.994.076 1.956.278 2.884.571l-1.826-6.768-3.235 6.232c.722-.067 1.45-.092 2.177-.035zm4.34 1.134c1.537.706 2.925 1.717 4.094 3l1.814-6.774-5.908 3.774zm5.083 4.213c.998 1.405 1.695 2.975 2.056 4.632l4.941-4.953-6.997.321zm2.283 6.186c.065.716.081 1.442.024 2.174-.076.997-.28 1.96-.579 2.885l6.778-1.832-6.223-3.227zm-4.127 10.606l6.795 1.811-3.79-5.923c-.722 1.575-1.748 2.967-3.005 4.112z" fill="#FFCE00"/></g></svg>