<svg width="55" height="55" viewBox="0 0 55 55" xmlns="http://www.w3.org/2000/svg"><title>n_c2_s2_st</title><desc>Created with Sketch.</desc><g fill="none"><g><path id="Rectangle-1" d="M0 0h55v55h-55z"/><path d="M38.605 24.673l-.9-.414-.073-.989c-.236-3.183-2.924-5.677-6.121-5.677-.564 0-1.135.08-1.698.238l-.987.276-.697-.75c-1.545-1.662-3.733-2.615-6.004-2.615-3.888 0-7.268 2.771-8.033 6.59l-.179.894-.849.338c-2.865 1.135-4.79 3.964-4.79 7.04 0 4.176 3.4 7.576 7.577 7.576h20.028c3.609 0 6.545-2.94 6.545-6.554-.001-2.548-1.499-4.885-3.819-5.953" id="Shape" fill="#D5DCE2"/><path d="M33.349 13.315c-2.687-3.39-4.369-9.278-.584-13.275-1.456.418-2.861 1.113-4.126 2.11-2.158 1.698-3.414 4.027-3.891 6.491-.213 1.714-.253 3.347-.211 4.919 1.801.461 3.458 1.42 4.742 2.798l.046.05.063-.018c.702-.196 1.416-.296 2.123-.296 3.953 0 7.274 3.042 7.658 6.954 1.526-.295 3.011-.911 4.358-1.972 1.268-.995 2.272-2.195 3.02-3.515-4.776 2.736-10.188-.45-13.198-4.246" id="Shape" fill="#7694B4"/></g><g><path d="M-2 0h55v55h-55z"/><path id="Shape" fill="#FF7800" d="M30.873 43.465l-2.815-.043 2.308-4.037-3.563.03-3.023 6.023h2.632l-3.696 9.129z"/><path d="M35.845 51.602l-2.256-.553 1.65-1.636c.128-.13.131-.34 0-.47l-.048-.047c-.128-.132-.34-.132-.47-.003l-1.653 1.638-.55-2.26c-.043-.178-.225-.288-.405-.244l-.064.016c-.178.042-.291.227-.248.403l.566 2.306-2.307-.562c-.177-.043-.36.065-.405.245l-.014.064c-.047.181.067.361.245.403l2.254.551-1.647 1.634c-.13.131-.13.342-.003.473l.048.047c.131.131.34.131.471.003l1.651-1.642.555 2.264c.043.178.225.289.402.244l.064-.014c.181-.045.293-.225.247-.403l-.563-2.306 2.305.562c.177.045.359-.067.402-.244l.017-.064c.046-.179-.067-.362-.244-.405zm5.161-7.857l-2.256-.553 1.65-1.636c.128-.13.131-.34 0-.47l-.048-.047c-.128-.132-.34-.132-.47-.003l-1.653 1.638-.55-2.26c-.043-.178-.225-.288-.405-.244l-.064.016c-.178.042-.291.227-.248.403l.566 2.306-2.307-.563c-.177-.043-.36.065-.405.245l-.014.064c-.047.181.067.361.245.403l2.254.551-1.647 1.634c-.13.131-.13.342-.003.473l.048.047c.131.131.34.131.471.003l1.651-1.642.555 2.264c.043.178.225.289.402.244l.064-.014c.181-.045.293-.225.248-.403l-.563-2.306 2.305.562c.177.045.359-.067.402-.244l.017-.064c.044-.178-.068-.361-.245-.404zm-20.999 7.857l-2.256-.553 1.65-1.636c.128-.13.131-.34 0-.47l-.048-.047c-.128-.132-.34-.132-.47-.003l-1.653 1.638-.55-2.26c-.043-.178-.225-.288-.405-.244l-.064.016c-.178.042-.291.227-.247.403l.566 2.306-2.307-.563c-.177-.043-.36.065-.405.245l-.014.064c-.047.181.067.361.245.403l2.254.551-1.647 1.634c-.13.131-.13.342-.003.473l.048.047c.131.131.34.131.471.003l1.651-1.642.555 2.264c.043.178.225.289.402.244l.064-.014c.181-.045.293-.225.247-.403l-.563-2.306 2.305.562c.177.045.359-.067.402-.244l.017-.064c.044-.178-.068-.361-.245-.404zm.143-7.857l-2.256-.553 1.65-1.636c.128-.13.131-.34 0-.47l-.048-.047c-.128-.132-.34-.132-.47-.003l-1.653 1.638-.55-2.26c-.043-.178-.225-.288-.405-.244l-.064.016c-.178.042-.291.227-.247.403l.566 2.306-2.307-.563c-.177-.043-.36.065-.405.245l-.014.064c-.047.181.067.361.245.403l2.254.551-1.647 1.634c-.13.131-.13.342-.003.473l.048.047c.131.131.34.131.471.003l1.651-1.642.555 2.264c.043.178.225.289.402.244l.064-.014c.181-.045.293-.225.247-.403l-.563-2.306 2.305.562c.177.045.359-.067.402-.244l.017-.064c.044-.178-.069-.361-.245-.404z" fill="#38C0E0"/></g></g></svg>