<svg width="55" height="38" viewBox="0 0 55 38" xmlns="http://www.w3.org/2000/svg"><title>n_c3</title><desc>Created with Sketch.</desc><g fill="none"><path d="M0 0h55v55h-55z"/><path d="M43.598 24.764l-.898-.416-.07-.988c-.226-3.185-2.907-5.687-6.104-5.696-.564-.002-1.136.078-1.699.233l-.988.273-.694-.752c-1.54-1.666-3.726-2.626-5.996-2.633-3.888-.012-7.276 2.749-8.052 6.566l-.181.894-.851.335c-2.869 1.127-4.802 3.95-4.811 7.026-.012 4.176 3.377 7.586 7.554 7.598l20.028.059c3.609.011 6.554-2.92 6.564-6.535.006-2.548-1.485-4.888-3.802-5.964zm-31.917 4.837c.011-3.714 2.344-7.123 5.807-8.483l.056-.022.011-.058c.925-4.548 4.96-7.837 9.597-7.823 2.705.008 5.309 1.151 7.145 3.137l.046.05.064-.018c.497-.137 1.001-.209 1.504-.248.042-.533-.191-1.381-.246-1.528-.507-1.358-1.489-2.596-3.037-3.448-1.66-.912-3.52-.881-5.095-.133l-.114-.07-.649-.703c-1.151-1.245-2.585-2.23-4.21-2.713-5.416-1.611-10.705 1.838-11.753 6.999l-.206 1.008-.683.269c-3.072 1.209-5.366 3.982-5.66 7.269-.362 4.045 2.121 7.573 5.673 8.826 0 0 .975.271 2.185.491-.283-.885-.438-1.826-.435-2.802z" id="Shape" fill="#D5DCE2"/><path d="M38.376 13.32c-2.677-3.398-4.341-9.291-.545-13.276-1.457.413-2.865 1.105-4.133 2.097-2.163 1.692-3.426 4.017-3.91 6.48l-.028.293.229-.016c1.192.004 2.334.302 3.394.885 1.777.977 3.075 2.455 3.754 4.276.082.22.389 1.267.341 2.128.444.058.872.152 1.289.283l.03.008c.391.124.765.277 1.127.46l.15.076c.314.167.614.351.901.559l.295.225c.226.18.443.365.648.57.149.146.283.303.42.461.137.161.275.319.398.491.177.243.331.5.48.764l.193.344c.174.35.315.716.434 1.093l.056.161c.13.447.223.909.267 1.386 1.526-.289 3.015-.902 4.364-1.958 1.271-.991 2.279-2.188 3.03-3.506-4.783 2.723-10.186-.479-13.184-4.284" fill="#7694B4"/></g></svg>