<svg width="55" height="53" viewBox="0 0 55 53" xmlns="http://www.w3.org/2000/svg"><title>r2_mist</title><desc>Created with Sketch.</desc><g fill="none"><g><path id="Rectangle-1" d="M0-2h55v55h-55z"/><path d="M37.844 43.229c-1.323 2.554-4.342.883-3.072-1.582 1.078-2.095 3.668-3.362 3.668-3.362s.45 2.916-.596 4.944zm-6.996 7.609c-1.323 2.554-4.342.883-3.072-1.582 1.078-2.095 3.668-3.362 3.668-3.362s.45 2.915-.596 4.944zm-6.202-7.609c-1.323 2.554-4.342.883-3.072-1.582 1.078-2.095 3.668-3.362 3.668-3.362s.45 2.916-.596 4.944zm-6.82 7.609c-1.323 2.554-4.342.883-3.072-1.582 1.078-2.095 3.668-3.362 3.668-3.362s.451 2.915-.596 4.944z" id="Shape" fill="#009EFF"/></g><g fill="none" opacity=".4"><path d="M0-2h55v55h-55z"/><path d="M6.06 27.503h39.132M11.689 37.708h39.132M4.561 22.401h38.958M9.762 32.606h38.958M6.06 7.093h39.132M11.689 17.298h39.132M4.561 1.99h38.958M10.29 12.16h38.958M4.561 43.097h38.958" stroke="#C9C9C9" stroke-width="1.4"/></g></g></svg>