<svg width="55" height="55" viewBox="0 0 55 55" xmlns="http://www.w3.org/2000/svg"><title>d_c3_rs3</title><desc>Created with Sketch.</desc><g fill="none"><g><path id="Rectangle-1" d="M0 0h55v55h-55z"/><path d="M27.841 9.173l.008.008c.67-.2 1.367-.304 2.056-.304 1.192 0 2.335.293 3.398.873 1.78.972 3.081 2.447 3.765 4.266.005.013.401 1.083.355 2.095l.144.031c.247.035.485.097.724.156l.538.135c.202.067.392.157.587.24.2.084.406.157.597.257l.039.025c1.751.928 3.094 2.517 3.722 4.435l.017.041c.069-.394.126-.791.152-1.196.212-3.046-.779-5.988-2.784-8.289-2.008-2.302-4.792-3.684-7.837-3.889-.86-.059-1.723-.02-2.563.113-.952.149-1.863.422-2.721.795l-.268.139.071.069zm-1.357-1.237c.986-.524 2.034-.947 3.148-1.203l-5.131-5.018.283 5.114c.59.312 1.159.678 1.7 1.107zm6.948-1.508c1.017.068 2.005.266 2.957.557l-1.934-6.91-3.252 6.411c.74-.075 1.485-.109 2.229-.058zm4.455 1.119c1.581.707 3.012 1.729 4.221 3.032l1.79-6.954-6.011 3.922zm5.244 4.264c1.036 1.429 1.764 3.029 2.15 4.721l5.009-5.118-7.159.397zm2.397 6.311c.073.733.097 1.476.046 2.225-.069 1.021-.267 2.01-.564 2.96l6.921-1.941-6.403-3.244z" id="Shape" fill="#FFCE00"/><path d="M11.659 29.635c0-3.714 2.323-7.13 5.782-8.5l.056-.022.01-.058c.911-4.551 4.937-7.852 9.574-7.852 2.705 0 5.313 1.135 7.154 3.115l.046.05.064-.018c.496-.139 1-.212 1.503-.253.041-.533-.195-1.38-.25-1.527-.511-1.357-1.497-2.592-3.047-3.439-1.663-.908-3.523-.871-5.095-.118l-.114-.069-.651-.701c-1.155-1.241-2.592-2.222-4.218-2.7-5.421-1.595-10.7 1.87-11.733 7.033l-.203 1.008-.682.271c-3.068 1.218-5.355 3.998-5.639 7.286-.35 4.046 2.144 7.566 5.699 8.809 0 0 .976.268 2.187.485-.286-.883-.443-1.824-.443-2.8zm31.902-4.931l-.9-.414-.073-.987c-.236-3.185-2.924-5.678-6.121-5.678-.564 0-1.135.081-1.698.238l-.987.276-.697-.75c-1.545-1.662-3.733-2.615-6.004-2.615-3.888 0-7.268 2.771-8.033 6.59l-.178.894-.85.338c-2.865 1.135-4.79 3.964-4.79 7.04 0 4.176 3.4 7.576 7.577 7.576h20.028c3.609 0 6.545-2.94 6.545-6.554-.001-2.55-1.499-4.886-3.819-5.954z" fill="#D5DCE2"/></g><g><path d="M0 0h55v55h-55z"/><path d="M19.1 45.229c-1.323 2.554-4.342.883-3.072-1.582 1.078-2.095 3.668-3.362 3.668-3.362s.451 2.916-.596 4.944zm7.071 7.934c-1.323 2.554-4.342.883-3.072-1.582 1.078-2.095 3.668-3.362 3.668-3.362s.451 2.916-.596 4.944zm13.199-7.934c-1.323 2.554-4.342.883-3.072-1.582 1.078-2.095 3.668-3.362 3.668-3.362s.45 2.916-.596 4.944z" fill="#009EFF"/><path d="M30.873 43.853l-2.256-.553 1.65-1.636c.128-.13.131-.34 0-.47l-.048-.047c-.128-.132-.34-.132-.47-.003l-1.653 1.638-.55-2.26c-.043-.178-.225-.288-.405-.244l-.064.016c-.178.042-.291.227-.248.403l.566 2.306-2.307-.563c-.177-.043-.36.065-.405.245l-.014.064c-.047.181.067.361.245.403l2.254.551-1.647 1.634c-.13.131-.13.342-.003.473l.048.047c.131.131.34.131.471.003l1.651-1.642.555 2.264c.043.178.225.289.402.244l.064-.014c.181-.045.293-.225.247-.403l-.563-2.306 2.305.562c.177.045.359-.067.402-.244l.017-.064c.045-.177-.067-.36-.244-.404zm7.07 7.826l-2.256-.553 1.65-1.636c.128-.13.131-.34 0-.47l-.048-.047c-.128-.132-.34-.132-.47-.003l-1.653 1.638-.55-2.26c-.043-.178-.225-.288-.405-.244l-.064.016c-.178.042-.291.227-.248.403l.566 2.306-2.307-.563c-.177-.043-.36.065-.405.245l-.014.064c-.047.181.067.361.245.403l2.254.551-1.647 1.634c-.13.131-.13.342-.003.473l.048.047c.131.131.34.131.471.003l1.651-1.642.555 2.264c.043.178.225.289.402.244l.064-.014c.181-.045.293-.225.247-.403l-.563-2.306 2.305.562c.177.045.359-.067.402-.244l.017-.064c.046-.177-.067-.361-.244-.404zm-20.269 0l-2.256-.553 1.65-1.636c.128-.13.131-.34 0-.47l-.048-.047c-.128-.132-.34-.132-.47-.003l-1.653 1.638-.55-2.26c-.043-.178-.225-.288-.405-.244l-.064.016c-.178.042-.291.227-.247.403l.566 2.306-2.307-.563c-.177-.043-.36.065-.405.245l-.014.064c-.047.181.067.361.245.403l2.254.551-1.647 1.634c-.13.131-.13.342-.003.473l.048.047c.131.131.34.131.471.003l1.651-1.642.555 2.264c.043.178.225.289.402.244l.064-.014c.181-.045.293-.225.247-.403l-.563-2.306 2.305.562c.177.045.359-.067.402-.244l.017-.064c.044-.177-.068-.361-.245-.404z" fill="#38C0E0"/></g></g></svg>