<svg width="55" height="55" viewBox="0 0 55 55" xmlns="http://www.w3.org/2000/svg"><title>n_c2_r1_st</title><desc>Created with Sketch.</desc><g fill="none"><g><path id="Rectangle-1" d="M0 0h55v55h-55z"/><path d="M38.605 24.673l-.9-.414-.073-.989c-.236-3.183-2.924-5.677-6.121-5.677-.564 0-1.135.08-1.698.238l-.987.276-.697-.75c-1.545-1.662-3.733-2.615-6.004-2.615-3.888 0-7.268 2.771-8.033 6.59l-.179.894-.849.338c-2.865 1.135-4.79 3.964-4.79 7.04 0 4.176 3.4 7.576 7.577 7.576h20.028c3.609 0 6.545-2.94 6.545-6.554-.001-2.548-1.499-4.885-3.819-5.953" id="Shape" fill="#D5DCE2"/><path d="M33.349 13.315c-2.687-3.39-4.369-9.278-.584-13.275-1.456.418-2.861 1.113-4.126 2.11-2.158 1.698-3.414 4.027-3.891 6.491-.213 1.714-.253 3.347-.211 4.919 1.801.461 3.458 1.42 4.742 2.798l.046.05.063-.018c.702-.196 1.416-.296 2.123-.296 3.953 0 7.274 3.042 7.658 6.954 1.526-.295 3.011-.911 4.358-1.972 1.268-.995 2.272-2.195 3.02-3.515-4.776 2.736-10.188-.45-13.198-4.246" id="Shape" fill="#7694B4"/></g><g><path d="M-3 0h55v55h-55z"/><path d="M18.38 45.229c-1.323 2.554-4.342.883-3.072-1.582 1.078-2.095 3.668-3.362 3.668-3.362s.45 2.916-.596 4.944m18.45 0c-1.323 2.554-4.342.883-3.072-1.582 1.078-2.095 3.668-3.362 3.668-3.362s.45 2.916-.596 4.944" id="Shape" fill="#009EFF"/><path fill="#FF7800" d="M29.372 43.465l-2.816-.043 2.309-4.037-3.563.028-3.024 6.025h2.632l-3.695 9.128 8.157-11.101z"/></g></g></svg>