<svg width="55" height="38" viewBox="0 0 55 38" xmlns="http://www.w3.org/2000/svg"><title>n_c2</title><desc>Created with Sketch.</desc><g fill="none"><path d="M0 0h55v55h-55z"/><path d="M38.605 24.673l-.9-.414-.073-.989c-.236-3.183-2.924-5.677-6.121-5.677-.564 0-1.135.08-1.698.238l-.987.276-.697-.75c-1.545-1.662-3.733-2.615-6.004-2.615-3.888 0-7.268 2.771-8.033 6.59l-.179.894-.849.338c-2.865 1.135-4.79 3.964-4.79 7.04 0 4.176 3.4 7.576 7.577 7.576h20.028c3.609 0 6.545-2.94 6.545-6.554-.001-2.548-1.499-4.885-3.819-5.953" id="Shape" fill="#D5DCE2"/><path d="M33.349 13.315c-2.687-3.39-4.369-9.278-.584-13.275-1.456.418-2.861 1.113-4.126 2.11-2.158 1.698-3.414 4.027-3.891 6.491-.213 1.714-.253 3.347-.211 4.919 1.801.461 3.458 1.42 4.742 2.798l.046.05.063-.018c.702-.196 1.416-.296 2.123-.296 3.953 0 7.274 3.042 7.658 6.954 1.526-.295 3.011-.911 4.358-1.972 1.268-.995 2.272-2.195 3.02-3.515-4.776 2.736-10.188-.45-13.198-4.246" fill="#7694B4"/></g></svg>