<svg width="55" height="39" viewBox="0 0 55 39" xmlns="http://www.w3.org/2000/svg"><title>n</title><desc>Created with Sketch.</desc><g fill="#000"><path fill="none" d="M0 0h55v55h-55z"/><path d="M20.8 29.3l1.4 2.9 3.2.5-2.2 2.3.6 3.2-2.9-1.5-2.9 1.5.6-3.2-2.3-2.3 3.2-.5 1.3-2.9zm23.7-27.6l.9 1.8 2 .3-1.4 1.4.3 2-1.8-.9-1.8.9.3-2-1.4-1.4 2-.3.9-1.8zm-37 14l.9 1.8 2 .3-1.4 1.4.3 2-1.8-.9-1.8.9.3-2-1.4-1.4 2-.3.9-1.8zm41.1 14l.5 1.1 1.2.2-.9.9.2 1.2-1.1-.6-1 .5.2-1.2-.9-.9 1.2-.2.6-1z" fill="#7694B4"/><path d="M29 14.6c-3.4-4.8-3.4-10.5-.7-14.6-5.1 1.8-8.8 6.7-8.8 12.5 0 7.3 5.9 13.3 13.3 13.3 4.6 0 8.6-2.3 11-5.8-5.4 1.7-11.4-.6-14.8-5.4" fill="#7694B4"/></g></svg>