<svg width="55" height="53" viewBox="0 0 55 53" xmlns="http://www.w3.org/2000/svg"><title>s3_mist</title><desc>Created with Sketch.</desc><g fill="none"><g><path id="Rectangle-1" d="M0-2h55v55h-55z"/><path d="M21.576 41.745l-2.256-.553 1.65-1.636c.128-.13.131-.34 0-.47l-.048-.047c-.128-.132-.34-.132-.47-.003l-1.653 1.638-.55-2.26c-.043-.178-.225-.288-.405-.244l-.064.016c-.178.042-.291.227-.247.403l.566 2.306-2.307-.563c-.177-.043-.36.065-.405.245l-.014.064c-.047.181.067.361.245.403l2.254.551-1.647 1.634c-.13.131-.13.342-.003.473l.048.047c.131.131.34.131.471.003l1.651-1.642.555 2.264c.043.178.225.289.402.244l.064-.014c.181-.045.293-.225.247-.403l-.563-2.306 2.305.562c.177.045.359-.067.402-.244l.017-.064c.045-.178-.068-.361-.245-.404zm15.784 7.857l-2.256-.553 1.65-1.636c.128-.13.131-.34 0-.47l-.048-.047c-.128-.132-.34-.132-.47-.003l-1.653 1.638-.55-2.26c-.043-.178-.225-.288-.405-.244l-.064.016c-.178.042-.291.227-.248.403l.566 2.306-2.307-.563c-.177-.043-.36.065-.405.245l-.014.064c-.047.181.067.361.245.403l2.254.551-1.647 1.634c-.13.131-.13.342-.003.473l.048.047c.131.131.34.131.471.003l1.651-1.642.555 2.264c.043.178.225.289.402.244l.064-.014c.181-.045.293-.225.247-.403l-.563-2.306 2.305.562c.177.045.359-.067.402-.244l.017-.064c.046-.178-.067-.361-.244-.404zm-10.028 0l-2.256-.553 1.65-1.636c.128-.13.131-.34 0-.47l-.048-.047c-.128-.132-.34-.132-.47-.003l-1.653 1.638-.55-2.26c-.043-.178-.225-.288-.405-.244l-.064.016c-.178.042-.291.227-.248.403l.566 2.306-2.307-.563c-.177-.043-.36.065-.405.245l-.014.064c-.047.181.067.361.245.403l2.254.551-1.647 1.634c-.13.131-.13.342-.003.473l.048.047c.131.131.34.131.471.003l1.651-1.642.555 2.264c.043.178.225.289.402.244l.064-.014c.181-.045.293-.225.247-.403l-.563-2.306 2.305.562c.177.045.359-.067.402-.244l.017-.064c.046-.178-.067-.361-.244-.404zm-11.264 0l-2.256-.553 1.65-1.636c.128-.13.131-.34 0-.47l-.048-.047c-.128-.132-.34-.132-.47-.003l-1.653 1.638-.55-2.26c-.043-.178-.225-.288-.405-.244l-.064.016c-.178.042-.291.227-.248.403l.566 2.306-2.307-.563c-.177-.043-.36.065-.405.245l-.014.064c-.047.181.067.361.245.403l2.254.551-1.647 1.634c-.13.131-.13.342-.003.473l.048.047c.131.131.34.131.471.003l1.651-1.642.555 2.264c.043.178.225.289.402.244l.064-.014c.181-.045.293-.225.248-.403l-.563-2.306 2.305.562c.177.045.359-.067.402-.244l.017-.064c.044-.178-.068-.361-.245-.404zm26.801-7.857l-2.256-.553 1.65-1.636c.128-.13.131-.34 0-.47l-.048-.047c-.128-.132-.34-.132-.47-.003l-1.653 1.638-.55-2.26c-.043-.178-.225-.288-.405-.244l-.064.016c-.178.042-.291.227-.248.403l.566 2.306-2.307-.563c-.177-.043-.36.065-.405.245l-.014.064c-.047.181.067.361.245.403l2.254.551-1.647 1.634c-.13.131-.13.342-.003.473l.048.047c.131.131.34.131.471.003l1.651-1.642.555 2.264c.043.178.225.289.402.244l.064-.014c.181-.045.293-.225.247-.403l-.563-2.306 2.305.562c.177.045.359-.067.402-.244l.017-.064c.045-.178-.067-.361-.244-.404zm-10.646 0l-2.256-.553 1.65-1.636c.128-.13.131-.34 0-.47l-.048-.047c-.128-.132-.34-.132-.47-.003l-1.653 1.638-.55-2.26c-.043-.178-.225-.288-.405-.244l-.064.016c-.178.042-.291.227-.248.403l.566 2.306-2.307-.563c-.177-.043-.36.065-.405.245l-.014.064c-.047.181.067.361.245.403l2.254.551-1.647 1.634c-.13.131-.13.342-.003.473l.048.047c.131.131.34.131.471.003l1.651-1.642.555 2.264c.043.178.225.289.402.244l.064-.014c.181-.045.293-.225.247-.403l-.563-2.306 2.305.562c.177.045.359-.067.402-.244l.017-.064c.045-.178-.068-.361-.244-.404z" fill="#38C0E0"/></g><g fill="none" opacity=".4"><path d="M0-2h55v55h-55z"/><path d="M6.06 27.503h39.132M11.689 37.708h39.132M4.561 22.401h38.958M9.762 32.606h38.958M6.06 7.093h39.132M11.689 17.298h39.132M4.561 1.99h38.958M10.29 12.16h38.958M4.561 43.097h38.958" stroke="#C9C9C9" stroke-width="1.4"/></g></g></svg>