<?xml version="1.0" encoding="utf-8"?>

<svg xmlns="http://www.w3.org/2000/svg" x="0px" y="0px"
	 width="32px" height="37px" viewBox="0 0 32 37" enable-background="new 0 0 32 37" xml:space="preserve">

<g>
	<path opacity="0.3" fill="#279FF9" d="M32,3.6c0,0-5.7-2.2-16,0s-16,0-16,0v2.7c0,0,3.6,2.1,16,0c12.4-2.1,16,0,16,0V3.6z"/>
</g>
<g>
	<path opacity="0.3" fill="#279FF9" d="M16,3.6c-10.3,2.2-16,0-16,0V9v0.4c0,0,3.6,2.1,16,0c12.4-2.1,16,0,16,0V9V3.6
		C32,3.6,26.3,1.4,16,3.6z"/>
</g>
<g>
	<path opacity="0.3" fill="#279FF9" d="M16,3.6c-10.3,2.2-16,0-16,0V9v3.4c0,0,3.6,2.1,16,0s16,0,16,0V9V3.6C32,3.6,26.3,1.4,16,3.6
		z"/>
</g>
<g>
	<path opacity="0.3" fill="#279FF9" d="M16,3.6c-10.3,2.2-16,0-16,0V9v6.5c0,0,3.6,2.1,16,0c12.4-2.1,16,0,16,0V9V3.6
		C32,3.6,26.3,1.4,16,3.6z"/>
</g>
<g>
	<path opacity="0.3" fill="#279FF9" d="M16,3.6c-10.3,2.2-16,0-16,0V9v9.5c0,0,3.6,2.1,16,0c12.4-2.1,16,0,16,0V3.6
		C32,3.6,26.3,1.4,16,3.6z"/>
</g>
<g>
	<path opacity="0.3" fill="#279FF9" d="M16,3.6c-10.3,2.2-16,0-16,0V9v12.6c0,0,3.6,2.1,16,0c12.4-2.1,16,0,16,0V9V3.6
		C32,3.6,26.3,1.4,16,3.6z"/>
</g>
<g>
	<path opacity="0.3" fill="#279FF9" d="M16,3.6c-10.3,2.2-16,0-16,0V9v15.6c0,0,3.6,2.1,16,0c12.4-2.1,16,0,16,0V9V3.6
		C32,3.6,26.3,1.4,16,3.6z"/>
</g>
<g>
	<path opacity="0.3" fill="#279FF9" d="M16,3.6c-10.3,2.2-16,0-16,0V9v18.7c0,0,3.6,2.1,16,0s16,0,16,0V9V3.6
		C32,3.6,26.3,1.4,16,3.6z"/>
</g>
<g>
	<path opacity="0.3" fill="#279FF9" d="M16,3.6c-10.3,2.2-16,0-16,0V9v21.8c0,0,3.6,2.1,16,0c12.4-2.1,16,0,16,0V9V3.6
		C32,3.6,26.3,1.4,16,3.6z"/>
</g>
<g>
	<path opacity="0.3" fill="#279FF9" d="M16,3.6c-10.3,2.2-16,0-16,0V9v25.1c0,0,3.6,2.1,16,0c12.4-2.1,16,0,16,0V9V3.6
		C32,3.6,26.3,1.4,16,3.6z"/>
</g>
<g>
	<path opacity="0.3" fill="#279FF9" d="M16,3.6c-10.3,2.2-16,0-16,0V9v28h32V9V3.6C32,3.6,26.3,1.4,16,3.6z"/>
</g>
</svg>
