<svg xmlns="http://www.w3.org/2000/svg" width="55" height="53" viewBox="0 0 55 53">
  <g fill="none" fill-rule="evenodd">
    <g transform="translate(0 -2)">
      <rect width="55" height="55"/>
      <path fill="#D5DCE2" d="M43.2134605,24.852 C45.5344605,25.921 47.0324605,28.257 47.0324605,30.805 C47.0324605,34.419 44.0964605,37.359 40.4874605,37.359 L20.4594605,37.359 C16.2824605,37.359 12.8824605,33.959 12.8824605,29.783 C12.8824605,26.707 14.8074605,23.878 17.6724605,22.743 L18.5224605,22.405 L18.7004605,21.511 C19.4654605,17.692 22.8454605,14.921 26.7334605,14.921 C29.0044605,14.921 31.1924605,15.874 32.7374605,17.536 L33.4344605,18.286 L34.4214605,18.01 C34.9844605,17.852 35.5554605,17.772 36.1194605,17.772 C39.3164605,17.772 42.0044605,20.266 42.2404605,23.449 L42.3134605,24.438 L43.2134605,24.852 Z M42.0944605,12.966 C47.0844605,13.943 50.8514605,18.335 50.8524605,23.61 C50.8524605,26.118 49.9934605,28.42 48.5644605,30.257 C48.3624605,27.316 46.5794605,24.671 43.8724605,23.424 L43.8134605,23.397 L43.8084605,23.333 C43.5594605,19.974 41.1274605,17.252 37.9794605,16.458 L37.9384605,16.066 C37.6564605,13.312 35.7264605,10.792 32.9004605,9.486 C31.6674605,8.918 30.3264605,8.618 29.0224605,8.618 C28.0404605,8.618 27.0884605,8.784 26.2164605,9.105 C24.9354605,8.047 23.4664605,7.299 21.9134605,6.896 C23.9494605,4.118 27.2254605,2.306 30.9344605,2.306 C36.9344605,2.306 41.8164605,7.034 42.0944605,12.966 Z M11.3114605,29.783 C11.3114605,30.76 11.4684605,31.7 11.7544605,32.584 C11.5014605,32.585 11.3354605,32.585 11.3234605,32.584 C7.00646053,31.991 3.73746053,28.073 4.20446053,23.504 C4.52646053,20.339 6.78646053,17.701 9.74246053,16.528 L10.2754605,16.317 C10.3124605,16.303 10.3384605,16.271 10.3464605,16.232 L10.4534605,15.696 C10.9994605,12.969 12.6214605,10.503 15.0694605,9.182 C18.6554605,7.246 22.7564605,8.1 25.5234605,10.58 C25.6624605,10.704 25.7864605,10.838 25.9134605,10.969 C27.6404605,9.992 30.0204605,9.888 32.2424605,10.913 C34.6394605,12.02 36.1604605,14.119 36.3754605,16.227 C36.2894605,16.223 36.2074605,16.202 36.1214605,16.202 C35.4144605,16.202 34.6994605,16.302 33.9984605,16.498 L33.9344605,16.516 L33.8884605,16.466 C32.0474605,14.486 29.4394605,13.351 26.7344605,13.351 C22.0974605,13.351 18.0714605,16.652 17.1604605,21.203 L17.1484605,21.261 L17.0934605,21.283 C13.6344605,22.653 11.3114605,26.069 11.3114605,29.783 Z"/>
    </g>
    <g transform="translate(0 -2)">
      <rect width="55" height="55"/>
      <path fill="#009EFF" d="M18.105,45.229 C16.782,47.783 13.763,46.112 15.033,43.647 C16.111,41.552 18.701,40.285 18.701,40.285 C18.701,40.285 19.151,43.201 18.105,45.229 Z M20.139,53.04 C18.816,55.594 15.797,53.923 17.067,51.458 C18.145,49.363 20.735,48.096 20.735,48.096 C20.735,48.096 21.185,51.011 20.139,53.04 Z M41.131,45.229 C39.808,47.783 36.789,46.112 38.059,43.647 C39.137,41.552 41.727,40.285 41.727,40.285 C41.727,40.285 42.177,43.201 41.131,45.229 Z"/>
      <polygon fill="#FF7800" points="32.037 43.465 29.222 43.422 31.53 39.385 27.967 39.415 24.944 45.438 27.576 45.438 23.88 54.567"/>
      <path fill="#38C0E0" d="M13.247,51.555 C13.424,51.598 13.537,51.782 13.492,51.959 L13.475,52.023 C13.432,52.2 13.25,52.312 13.073,52.267 L10.768,51.705 L11.331,54.011 C11.376,54.189 11.264,54.369 11.083,54.414 L11.019,54.428 C10.842,54.473 10.66,54.362 10.617,54.184 L10.062,51.92 L8.411,53.562 C8.28,53.69 8.071,53.69 7.94,53.559 L7.892,53.512 C7.765,53.381 7.765,53.17 7.895,53.039 L9.542,51.405 L7.288,50.854 C7.11,50.812 6.996,50.632 7.043,50.451 L7.057,50.387 C7.102,50.207 7.285,50.099 7.462,50.142 L9.769,50.705 L9.203,48.399 C9.16,48.223 9.273,48.038 9.451,47.996 L9.515,47.98 C9.695,47.936 9.877,48.046 9.92,48.224 L10.47,50.484 L12.123,48.846 C12.253,48.717 12.465,48.717 12.593,48.849 L12.641,48.896 C12.772,49.026 12.769,49.236 12.641,49.366 L10.991,51.002 L13.247,51.555 Z M37.049,51.555 C37.226,51.598 37.338,51.782 37.293,51.959 L37.276,52.023 C37.233,52.2 37.051,52.312 36.874,52.267 L34.569,51.705 L35.132,54.011 C35.178,54.189 35.066,54.369 34.885,54.414 L34.821,54.428 C34.644,54.473 34.462,54.362 34.419,54.184 L33.864,51.92 L32.213,53.562 C32.082,53.69 31.873,53.69 31.742,53.559 L31.694,53.512 C31.567,53.381 31.567,53.17 31.697,53.039 L33.344,51.405 L31.09,50.854 C30.912,50.812 30.798,50.632 30.845,50.451 L30.859,50.387 C30.904,50.207 31.087,50.099 31.264,50.142 L33.571,50.705 L33.005,48.399 C32.962,48.223 33.075,48.038 33.253,47.996 L33.317,47.98 C33.497,47.936 33.679,48.046 33.722,48.224 L34.272,50.484 L35.925,48.846 C36.055,48.717 36.267,48.717 36.395,48.849 L36.443,48.896 C36.574,49.026 36.571,49.236 36.443,49.366 L34.793,51.002 L37.049,51.555 Z M45.553,51.555 C45.73,51.598 45.843,51.782 45.796,51.962 L45.779,52.026 C45.736,52.203 45.554,52.315 45.377,52.27 L43.072,51.708 L43.635,54.014 C43.681,54.192 43.569,54.372 43.388,54.417 L43.324,54.431 C43.147,54.476 42.965,54.365 42.922,54.187 L42.367,51.923 L40.716,53.565 C40.585,53.693 40.376,53.693 40.245,53.562 L40.197,53.515 C40.07,53.384 40.07,53.173 40.2,53.042 L41.848,51.405 L39.594,50.854 C39.416,50.812 39.302,50.632 39.349,50.451 L39.363,50.387 C39.408,50.207 39.591,50.099 39.768,50.142 L42.075,50.705 L41.509,48.399 C41.466,48.223 41.579,48.038 41.757,47.996 L41.821,47.98 C42.001,47.936 42.183,48.046 42.226,48.224 L42.776,50.484 L44.429,48.846 C44.559,48.717 44.771,48.717 44.899,48.849 L44.947,48.896 C45.078,49.026 45.075,49.236 44.947,49.366 L43.297,51.002 L45.553,51.555 Z"/>
    </g>
  </g>
</svg>
