<svg xmlns="http://www.w3.org/2000/svg" width="55" height="53" viewBox="0 0 55 53">
  <g fill="none" fill-rule="evenodd">
    <g transform="translate(0 -2)">
      <rect width="55" height="55"/>
      <path fill="#D5DCE2" d="M43.2134605,24.852 C45.5344605,25.921 47.0324605,28.257 47.0324605,30.805 C47.0324605,34.419 44.0964605,37.359 40.4874605,37.359 L20.4594605,37.359 C16.2824605,37.359 12.8824605,33.959 12.8824605,29.783 C12.8824605,26.707 14.8074605,23.878 17.6724605,22.743 L18.5224605,22.405 L18.7004605,21.511 C19.4654605,17.692 22.8454605,14.921 26.7334605,14.921 C29.0044605,14.921 31.1924605,15.874 32.7374605,17.536 L33.4344605,18.286 L34.4214605,18.01 C34.9844605,17.852 35.5554605,17.772 36.1194605,17.772 C39.3164605,17.772 42.0044605,20.266 42.2404605,23.449 L42.3134605,24.438 L43.2134605,24.852 Z M42.0944605,12.966 C47.0844605,13.943 50.8514605,18.335 50.8524605,23.61 C50.8524605,26.118 49.9934605,28.42 48.5644605,30.257 C48.3624605,27.316 46.5794605,24.671 43.8724605,23.424 L43.8134605,23.397 L43.8084605,23.333 C43.5594605,19.974 41.1274605,17.252 37.9794605,16.458 L37.9384605,16.066 C37.6564605,13.312 35.7264605,10.792 32.9004605,9.486 C31.6674605,8.918 30.3264605,8.618 29.0224605,8.618 C28.0404605,8.618 27.0884605,8.784 26.2164605,9.105 C24.9354605,8.047 23.4664605,7.299 21.9134605,6.896 C23.9494605,4.118 27.2254605,2.306 30.9344605,2.306 C36.9344605,2.306 41.8164605,7.034 42.0944605,12.966 Z M11.3114605,29.783 C11.3114605,30.76 11.4684605,31.7 11.7544605,32.584 C11.5014605,32.585 11.3354605,32.585 11.3234605,32.584 C7.00646053,31.991 3.73746053,28.073 4.20446053,23.504 C4.52646053,20.339 6.78646053,17.701 9.74246053,16.528 L10.2754605,16.317 C10.3124605,16.303 10.3384605,16.271 10.3464605,16.232 L10.4534605,15.696 C10.9994605,12.969 12.6214605,10.503 15.0694605,9.182 C18.6554605,7.246 22.7564605,8.1 25.5234605,10.58 C25.6624605,10.704 25.7864605,10.838 25.9134605,10.969 C27.6404605,9.992 30.0204605,9.888 32.2424605,10.913 C34.6394605,12.02 36.1604605,14.119 36.3754605,16.227 C36.2894605,16.223 36.2074605,16.202 36.1214605,16.202 C35.4144605,16.202 34.6994605,16.302 33.9984605,16.498 L33.9344605,16.516 L33.8884605,16.466 C32.0474605,14.486 29.4394605,13.351 26.7344605,13.351 C22.0974605,13.351 18.0714605,16.652 17.1604605,21.203 L17.1484605,21.261 L17.0934605,21.283 C13.6344605,22.653 11.3114605,26.069 11.3114605,29.783 Z"/>
    </g>
    <g transform="translate(0 -2)">
      <rect width="55" height="55"/>
      <path fill="#38C0E0" d="M22.15,43.745 C22.326,43.788 22.439,43.971 22.395,44.149 L22.378,44.213 C22.335,44.39 22.153,44.502 21.976,44.457 L19.671,43.895 L20.234,46.201 C20.28,46.379 20.168,46.559 19.987,46.604 L19.923,46.618 C19.746,46.663 19.564,46.552 19.521,46.374 L18.966,44.11 L17.315,45.752 C17.184,45.88 16.975,45.88 16.844,45.749 L16.796,45.702 C16.669,45.571 16.669,45.36 16.799,45.229 L18.446,43.595 L16.192,43.044 C16.014,43.002 15.9,42.822 15.947,42.641 L15.961,42.577 C16.006,42.397 16.189,42.289 16.366,42.332 L18.673,42.895 L18.107,40.589 C18.063,40.413 18.176,40.228 18.354,40.186 L18.418,40.17 C18.598,40.126 18.78,40.236 18.823,40.414 L19.373,42.674 L21.026,41.036 C21.156,40.907 21.368,40.907 21.496,41.039 L21.544,41.086 C21.675,41.216 21.672,41.426 21.544,41.556 L19.894,43.192 L22.15,43.745 Z M13.156,51.602 C13.333,51.645 13.446,51.828 13.4,52.007 L13.383,52.071 C13.34,52.248 13.158,52.36 12.981,52.315 L10.676,51.753 L11.239,54.059 C11.285,54.237 11.173,54.417 10.992,54.462 L10.928,54.476 C10.751,54.521 10.569,54.41 10.526,54.232 L9.971,51.968 L8.32,53.61 C8.189,53.738 7.98,53.738 7.849,53.607 L7.801,53.56 C7.674,53.429 7.674,53.218 7.804,53.087 L9.451,51.453 L7.197,50.902 C7.019,50.86 6.905,50.68 6.952,50.499 L6.966,50.435 C7.011,50.255 7.194,50.147 7.371,50.19 L9.678,50.753 L9.112,48.447 C9.069,48.271 9.182,48.086 9.36,48.044 L9.424,48.027 C9.604,47.983 9.786,48.093 9.829,48.271 L10.379,50.531 L12.032,48.893 C12.162,48.764 12.374,48.764 12.502,48.896 L12.55,48.943 C12.681,49.073 12.678,49.283 12.55,49.413 L10.9,51.049 L13.156,51.602 Z M22.007,51.602 C22.184,51.645 22.296,51.828 22.252,52.006 L22.235,52.07 C22.192,52.247 22.01,52.359 21.833,52.314 L19.528,51.752 L20.091,54.058 C20.137,54.236 20.025,54.416 19.844,54.461 L19.78,54.475 C19.603,54.52 19.421,54.409 19.378,54.231 L18.823,51.967 L17.172,53.609 C17.041,53.737 16.832,53.737 16.701,53.606 L16.653,53.559 C16.526,53.428 16.526,53.217 16.656,53.086 L18.303,51.452 L16.049,50.901 C15.871,50.859 15.757,50.679 15.804,50.498 L15.818,50.434 C15.863,50.254 16.046,50.146 16.223,50.189 L18.53,50.752 L17.964,48.446 C17.92,48.27 18.033,48.085 18.211,48.043 L18.275,48.027 C18.455,47.983 18.637,48.093 18.68,48.271 L19.23,50.531 L20.883,48.893 C21.013,48.764 21.225,48.764 21.353,48.896 L21.401,48.943 C21.532,49.073 21.529,49.283 21.401,49.413 L19.751,51.049 L22.007,51.602 Z M37.845,51.602 C38.022,51.645 38.135,51.828 38.089,52.007 L38.072,52.071 C38.029,52.248 37.847,52.36 37.67,52.315 L35.365,51.753 L35.928,54.059 C35.974,54.237 35.862,54.417 35.681,54.462 L35.617,54.476 C35.44,54.521 35.258,54.41 35.215,54.232 L34.66,51.968 L33.009,53.61 C32.878,53.738 32.669,53.738 32.538,53.607 L32.49,53.56 C32.363,53.429 32.363,53.218 32.493,53.087 L34.14,51.453 L31.886,50.902 C31.708,50.86 31.594,50.68 31.641,50.499 L31.655,50.435 C31.7,50.255 31.883,50.147 32.06,50.19 L34.367,50.752 L33.801,48.446 C33.758,48.27 33.871,48.085 34.049,48.043 L34.113,48.027 C34.293,47.983 34.475,48.093 34.518,48.271 L35.068,50.531 L36.721,48.893 C36.851,48.764 37.063,48.764 37.191,48.896 L37.239,48.943 C37.37,49.073 37.367,49.283 37.239,49.413 L35.589,51.049 L37.845,51.602 Z M46.697,51.602 C46.873,51.645 46.986,51.828 46.941,52.007 L46.924,52.071 C46.881,52.248 46.699,52.36 46.522,52.315 L44.217,51.753 L44.78,54.059 C44.826,54.237 44.714,54.417 44.533,54.462 L44.469,54.476 C44.292,54.521 44.11,54.41 44.067,54.232 L43.512,51.968 L41.861,53.61 C41.73,53.738 41.521,53.738 41.39,53.607 L41.342,53.56 C41.215,53.429 41.215,53.218 41.345,53.087 L42.992,51.453 L40.738,50.902 C40.56,50.86 40.446,50.68 40.493,50.499 L40.507,50.435 C40.552,50.255 40.735,50.147 40.912,50.19 L43.219,50.753 L42.653,48.447 C42.609,48.271 42.722,48.086 42.9,48.044 L42.965,48.027 C43.145,47.983 43.327,48.093 43.37,48.271 L43.92,50.531 L45.573,48.893 C45.703,48.764 45.915,48.764 46.043,48.896 L46.091,48.943 C46.222,49.073 46.219,49.283 46.091,49.413 L44.441,51.049 L46.697,51.602 Z M43.006,43.745 C43.183,43.788 43.295,43.971 43.251,44.149 L43.234,44.213 C43.191,44.39 43.009,44.502 42.832,44.457 L40.527,43.895 L41.09,46.201 C41.135,46.379 41.023,46.559 40.842,46.604 L40.778,46.618 C40.601,46.663 40.419,46.552 40.376,46.374 L39.821,44.11 L38.17,45.752 C38.039,45.88 37.83,45.88 37.699,45.749 L37.651,45.702 C37.524,45.571 37.524,45.36 37.654,45.229 L39.301,43.595 L37.047,43.044 C36.869,43.002 36.755,42.822 36.802,42.641 L36.816,42.577 C36.861,42.397 37.044,42.289 37.221,42.332 L39.528,42.895 L38.962,40.589 C38.919,40.413 39.032,40.228 39.21,40.186 L39.274,40.17 C39.454,40.126 39.636,40.236 39.679,40.414 L40.229,42.674 L41.882,41.036 C42.012,40.907 42.224,40.907 42.352,41.039 L42.4,41.086 C42.531,41.216 42.528,41.426 42.4,41.556 L40.75,43.192 L43.006,43.745 Z"/>
      <polygon fill="#FF7800" points="32.873 43.465 30.058 43.422 32.366 39.385 28.803 39.415 25.78 45.438 28.412 45.438 24.716 54.567"/>
    </g>
  </g>
</svg>
