<svg xmlns="http://www.w3.org/2000/svg" width="55" height="53" viewBox="0 0 55 53">
  <g fill="none" fill-rule="evenodd">
    <g transform="translate(0 -2)">
      <rect width="55" height="55"/>
      <path fill="#D5DCE2" d="M43.2134605,24.852 C45.5344605,25.921 47.0324605,28.257 47.0324605,30.805 C47.0324605,34.419 44.0964605,37.359 40.4874605,37.359 L20.4594605,37.359 C16.2824605,37.359 12.8824605,33.959 12.8824605,29.783 C12.8824605,26.707 14.8074605,23.878 17.6724605,22.743 L18.5224605,22.405 L18.7004605,21.511 C19.4654605,17.692 22.8454605,14.921 26.7334605,14.921 C29.0044605,14.921 31.1924605,15.874 32.7374605,17.536 L33.4344605,18.286 L34.4214605,18.01 C34.9844605,17.852 35.5554605,17.772 36.1194605,17.772 C39.3164605,17.772 42.0044605,20.266 42.2404605,23.449 L42.3134605,24.438 L43.2134605,24.852 Z M42.0944605,12.966 C47.0844605,13.943 50.8514605,18.335 50.8524605,23.61 C50.8524605,26.118 49.9934605,28.42 48.5644605,30.257 C48.3624605,27.316 46.5794605,24.671 43.8724605,23.424 L43.8134605,23.397 L43.8084605,23.333 C43.5594605,19.974 41.1274605,17.252 37.9794605,16.458 L37.9384605,16.066 C37.6564605,13.312 35.7264605,10.792 32.9004605,9.486 C31.6674605,8.918 30.3264605,8.618 29.0224605,8.618 C28.0404605,8.618 27.0884605,8.784 26.2164605,9.105 C24.9354605,8.047 23.4664605,7.299 21.9134605,6.896 C23.9494605,4.118 27.2254605,2.306 30.9344605,2.306 C36.9344605,2.306 41.8164605,7.034 42.0944605,12.966 Z M11.3114605,29.783 C11.3114605,30.76 11.4684605,31.7 11.7544605,32.584 C11.5014605,32.585 11.3354605,32.585 11.3234605,32.584 C7.00646053,31.991 3.73746053,28.073 4.20446053,23.504 C4.52646053,20.339 6.78646053,17.701 9.74246053,16.528 L10.2754605,16.317 C10.3124605,16.303 10.3384605,16.271 10.3464605,16.232 L10.4534605,15.696 C10.9994605,12.969 12.6214605,10.503 15.0694605,9.182 C18.6554605,7.246 22.7564605,8.1 25.5234605,10.58 C25.6624605,10.704 25.7864605,10.838 25.9134605,10.969 C27.6404605,9.992 30.0204605,9.888 32.2424605,10.913 C34.6394605,12.02 36.1604605,14.119 36.3754605,16.227 C36.2894605,16.223 36.2074605,16.202 36.1214605,16.202 C35.4144605,16.202 34.6994605,16.302 33.9984605,16.498 L33.9344605,16.516 L33.8884605,16.466 C32.0474605,14.486 29.4394605,13.351 26.7344605,13.351 C22.0974605,13.351 18.0714605,16.652 17.1604605,21.203 L17.1484605,21.261 L17.0934605,21.283 C13.6344605,22.653 11.3114605,26.069 11.3114605,29.783 Z"/>
    </g>
    <g transform="translate(0 -2)">
      <rect width="55" height="55"/>
      <path fill="#38C0E0" d="M22.33,43.745 C22.506,43.788 22.619,43.971 22.575,44.149 L22.558,44.213 C22.515,44.39 22.333,44.502 22.156,44.457 L19.851,43.895 L20.414,46.201 C20.46,46.379 20.348,46.559 20.167,46.604 L20.103,46.618 C19.926,46.663 19.744,46.552 19.701,46.374 L19.146,44.11 L17.495,45.752 C17.364,45.88 17.155,45.88 17.024,45.749 L16.976,45.702 C16.849,45.571 16.849,45.36 16.979,45.229 L18.626,43.595 L16.372,43.044 C16.194,43.002 16.08,42.822 16.127,42.641 L16.141,42.577 C16.186,42.397 16.369,42.289 16.546,42.332 L18.853,42.895 L18.287,40.589 C18.243,40.413 18.356,40.228 18.534,40.186 L18.598,40.17 C18.778,40.126 18.96,40.236 19.003,40.414 L19.553,42.674 L21.206,41.036 C21.336,40.907 21.548,40.907 21.676,41.039 L21.724,41.086 C21.855,41.216 21.852,41.426 21.724,41.556 L20.074,43.192 L22.33,43.745 Z M16.531,51.602 C16.708,51.645 16.82,51.828 16.776,52.006 L16.759,52.07 C16.716,52.247 16.534,52.359 16.357,52.314 L14.052,51.752 L14.615,54.058 C14.66,54.236 14.548,54.416 14.367,54.461 L14.303,54.475 C14.126,54.52 13.944,54.409 13.901,54.231 L13.346,51.967 L11.695,53.609 C11.564,53.737 11.355,53.737 11.224,53.606 L11.176,53.559 C11.049,53.428 11.049,53.217 11.179,53.086 L12.826,51.452 L10.572,50.901 C10.394,50.859 10.28,50.679 10.327,50.498 L10.341,50.434 C10.386,50.254 10.569,50.146 10.746,50.189 L13.053,50.752 L12.487,48.446 C12.444,48.27 12.557,48.085 12.735,48.043 L12.799,48.027 C12.979,47.983 13.161,48.093 13.204,48.271 L13.754,50.531 L15.407,48.893 C15.537,48.764 15.749,48.764 15.877,48.896 L15.925,48.943 C16.056,49.073 16.053,49.283 15.925,49.413 L14.275,51.049 L16.531,51.602 Z M31.79,51.602 C31.967,51.645 32.079,51.828 32.034,52.006 L32.017,52.07 C31.974,52.247 31.792,52.359 31.615,52.314 L29.31,51.752 L29.873,54.058 C29.919,54.236 29.807,54.416 29.626,54.461 L29.562,54.475 C29.385,54.52 29.203,54.409 29.16,54.231 L28.605,51.967 L26.954,53.609 C26.823,53.737 26.614,53.737 26.483,53.606 L26.435,53.559 C26.308,53.428 26.308,53.217 26.438,53.086 L28.085,51.452 L25.831,50.901 C25.653,50.859 25.539,50.679 25.586,50.498 L25.6,50.434 C25.645,50.254 25.828,50.146 26.005,50.189 L28.312,50.752 L27.746,48.446 C27.703,48.27 27.816,48.085 27.994,48.043 L28.058,48.027 C28.238,47.983 28.42,48.093 28.463,48.271 L29.013,50.531 L30.666,48.893 C30.796,48.764 31.008,48.764 31.136,48.896 L31.184,48.943 C31.315,49.073 31.312,49.283 31.184,49.413 L29.534,51.049 L31.79,51.602 Z M37.717,43.745 C37.893,43.788 38.006,43.971 37.961,44.149 L37.944,44.213 C37.901,44.39 37.719,44.502 37.542,44.457 L35.237,43.895 L35.8,46.201 C35.846,46.379 35.734,46.559 35.553,46.604 L35.489,46.618 C35.312,46.663 35.13,46.552 35.087,46.374 L34.532,44.11 L32.881,45.752 C32.75,45.88 32.541,45.88 32.41,45.749 L32.362,45.702 C32.235,45.571 32.235,45.36 32.365,45.229 L34.012,43.595 L31.758,43.044 C31.58,43.002 31.466,42.822 31.513,42.641 L31.527,42.577 C31.572,42.397 31.755,42.289 31.932,42.332 L34.239,42.895 L33.673,40.589 C33.63,40.413 33.743,40.228 33.921,40.186 L33.985,40.17 C34.165,40.126 34.347,40.236 34.39,40.414 L34.94,42.674 L36.593,41.036 C36.723,40.907 36.935,40.907 37.063,41.039 L37.111,41.086 C37.242,41.216 37.239,41.426 37.111,41.556 L35.461,43.192 L37.717,43.745 Z"/>
    </g>
  </g>
</svg>
