<svg xmlns="http://www.w3.org/2000/svg" width="55" height="38" viewBox="0 0 55 38">
  <g fill="#000000" fill-rule="evenodd" transform="translate(0 -1)">
    <rect width="55" height="55" fill="none"/>
    <path fill="#FFCE00" d="M28.367,8.787 C31.34,9.017 34.046,10.392 35.985,12.659 C37.921,14.924 38.862,17.808 38.626,20.782 C38.232,25.927 34.238,30.208 29.135,30.962 C28.311,31.083 27.468,31.112 26.63,31.048 C20.491,30.567 15.888,25.185 16.365,19.05 C16.763,13.907 20.757,9.626 25.862,8.872 C26.684,8.75 27.528,8.722 28.367,8.787 Z M33.971,30.884 C34.204,30.746 34.433,30.6 34.656,30.446 C34.725,30.399 34.8,30.359 34.868,30.311 L35.189,37.321 L30.223,32.374 C31.459,32.103 32.626,31.649 33.701,31.044 C33.793,30.993 33.881,30.938 33.971,30.884 Z M26.506,32.638 C27.234,32.695 27.964,32.67 28.687,32.601 L25.449,38.836 L23.625,32.062 C24.543,32.355 25.504,32.559 26.506,32.638 Z M18.075,28.493 C19.219,29.749 20.608,30.774 22.179,31.498 L16.261,35.275 L18.075,28.493 Z M15.036,22.65 C15.408,24.338 16.115,25.91 17.092,27.285 L10.091,27.605 L15.036,22.65 Z M14.774,18.926 C14.716,19.662 14.737,20.387 14.805,21.097 L8.583,17.87 L15.353,16.046 C15.054,16.97 14.851,17.932 14.774,18.926 Z M17.186,12.455 C16.699,13.125 16.271,13.839 15.918,14.595 L12.141,8.683 L18.927,10.495 C18.621,10.774 18.333,11.072 18.054,11.38 C18.032,11.405 18.011,11.432 17.987,11.457 C17.736,11.74 17.498,12.033 17.271,12.337 C17.242,12.376 17.215,12.416 17.186,12.455 Z M21.031,8.946 C20.793,9.088 20.561,9.236 20.334,9.392 C20.268,9.436 20.197,9.474 20.132,9.52 L19.811,2.51 L24.776,7.459 C23.54,7.731 22.372,8.184 21.297,8.789 C21.208,8.839 21.12,8.894 21.031,8.946 Z M28.489,7.197 C27.762,7.14 27.034,7.165 26.312,7.232 L29.547,1 L31.373,7.768 C30.445,7.475 29.483,7.273 28.489,7.197 Z M32.829,8.331 L38.737,4.557 L36.923,11.331 C35.754,10.048 34.366,9.037 32.829,8.331 Z M37.912,12.544 L44.909,12.223 L39.968,17.176 C39.607,15.519 38.91,13.949 37.912,12.544 Z M40.195,18.73 L46.418,21.957 L39.64,23.789 C39.939,22.864 40.143,21.901 40.219,20.904 C40.276,20.172 40.26,19.446 40.195,18.73 Z M36.068,29.336 C37.325,28.191 38.351,26.799 39.073,25.224 L42.863,31.147 L36.068,29.336 Z"/>
  </g>
</svg>
