<svg xmlns="http://www.w3.org/2000/svg" width="55" height="55" viewBox="0 0 55 55">
  <g fill="none" fill-rule="evenodd">
    <rect width="55" height="55"/>
    <path fill="#D5DCE2" d="M40.03,24.704 L39.13,24.29 L39.057,23.301 C38.821,20.118 36.133,17.624 32.936,17.624 C32.372,17.624 31.801,17.704 31.238,17.862 L30.251,18.138 L29.554,17.388 C28.009,15.726 25.821,14.773 23.55,14.773 C19.662,14.773 16.282,17.544 15.517,21.363 L15.338,22.257 L14.489,22.595 C11.624,23.73 9.699,26.559 9.699,29.635 C9.699,33.811 13.099,37.211 17.276,37.211 L37.304,37.211 C40.913,37.211 43.849,34.271 43.849,30.657 C43.849,28.108 42.351,25.772 40.03,24.704"/>
    <path fill="#FFCE00" d="M14.749,18.759 C14.514,19.249 14.316,19.761 14.164,20.294 L8.52,17.621 L15.22,15.552 C14.956,16.485 14.787,17.454 14.746,18.451 C14.742,18.555 14.75,18.656 14.749,18.759 Z M40.092,20.986 C40.173,20.498 40.225,20.005 40.246,19.503 C40.278,18.77 40.236,18.046 40.144,17.332 L46.479,20.331 L40.455,22.196 C40.367,21.778 40.245,21.376 40.092,20.986 Z M16.922,11.896 C16.458,12.584 16.058,13.313 15.734,14.08 L11.745,8.309 L18.592,9.873 C18.296,10.164 18.018,10.473 17.751,10.79 C17.729,10.816 17.709,10.844 17.687,10.87 C17.446,11.162 17.218,11.464 17.003,11.776 C16.976,11.815 16.95,11.855 16.922,11.896 Z M20.637,8.25 C20.405,8.401 20.177,8.557 19.955,8.721 C19.893,8.768 19.823,8.809 19.759,8.857 L19.184,1.863 L24.325,6.628 C23.101,6.945 21.95,7.44 20.898,8.084 C20.81,8.137 20.723,8.194 20.637,8.25 Z M28.026,6.231 C27.298,6.201 26.572,6.253 25.852,6.346 L28.859,0 L30.928,6.697 C29.99,6.438 29.021,6.272 28.026,6.231 Z M32.405,7.207 L38.171,3.221 L36.605,10.057 C35.391,8.816 33.967,7.857 32.405,7.207 Z M37.637,11.233 L44.617,10.658 L39.859,15.786 C39.439,14.144 38.686,12.601 37.637,11.233 Z M23.551,13.202 C20.946,13.202 18.535,14.244 16.76,15.964 C17.902,11.961 21.253,8.781 25.463,8.002 C26.278,7.85 27.12,7.79 27.962,7.825 C30.942,7.947 33.696,9.222 35.717,11.417 C37.555,13.414 38.573,15.955 38.648,18.643 C37.227,17.065 35.196,16.053 32.938,16.053 C32.231,16.053 31.516,16.152 30.815,16.35 L30.751,16.367 L30.705,16.319 C28.864,14.337 26.256,13.202 23.551,13.202 Z"/>
    <g>
      <rect width="55" height="55"/>
      <path fill="#38C0E0" d="M40.467,43.745 C40.644,43.788 40.757,43.971 40.711,44.149 L40.694,44.213 C40.651,44.39 40.469,44.502 40.292,44.457 L37.987,43.895 L38.55,46.201 C38.596,46.379 38.484,46.559 38.303,46.604 L38.239,46.618 C38.062,46.663 37.88,46.552 37.837,46.374 L37.282,44.11 L35.631,45.752 C35.5,45.88 35.291,45.88 35.16,45.749 L35.112,45.702 C34.985,45.571 34.985,45.36 35.115,45.229 L36.762,43.595 L34.508,43.044 C34.33,43.002 34.216,42.822 34.263,42.641 L34.277,42.577 C34.322,42.397 34.505,42.289 34.682,42.332 L36.989,42.895 L36.423,40.589 C36.38,40.413 36.493,40.228 36.671,40.186 L36.735,40.17 C36.915,40.126 37.097,40.236 37.14,40.414 L37.69,42.674 L39.343,41.036 C39.473,40.907 39.685,40.907 39.813,41.039 L39.861,41.086 C39.992,41.216 39.989,41.426 39.861,41.556 L38.211,43.192 L40.467,43.745 Z M21.513,43.745 C21.69,43.788 21.802,43.971 21.758,44.149 L21.741,44.213 C21.698,44.39 21.516,44.502 21.339,44.457 L19.034,43.895 L19.597,46.201 C19.642,46.379 19.53,46.559 19.349,46.604 L19.285,46.618 C19.108,46.663 18.926,46.552 18.883,46.374 L18.328,44.11 L16.677,45.752 C16.546,45.88 16.337,45.88 16.206,45.749 L16.158,45.702 C16.031,45.571 16.031,45.36 16.161,45.229 L17.808,43.595 L15.554,43.044 C15.376,43.002 15.262,42.822 15.309,42.641 L15.323,42.577 C15.368,42.397 15.551,42.289 15.728,42.332 L18.035,42.895 L17.469,40.589 C17.426,40.413 17.539,40.228 17.717,40.186 L17.781,40.17 C17.961,40.126 18.143,40.236 18.186,40.414 L18.736,42.674 L20.389,41.036 C20.519,40.907 20.731,40.907 20.859,41.039 L20.907,41.086 C21.038,41.216 21.035,41.426 20.907,41.556 L19.257,43.192 L21.513,43.745 Z"/>
      <polygon fill="#FF7800" points="31.037 43.465 28.222 43.422 30.53 39.385 26.967 39.415 23.944 45.438 26.576 45.438 22.88 54.567"/>
    </g>
  </g>
</svg>
