<svg xmlns="http://www.w3.org/2000/svg" width="55" height="55" viewBox="0 0 55 55">
  <g fill="none" fill-rule="evenodd">
    <rect width="55" height="55"/>
    <path fill="#D5DCE2" d="M40.03,24.704 L39.13,24.29 L39.057,23.301 C38.821,20.118 36.133,17.624 32.936,17.624 C32.372,17.624 31.801,17.704 31.238,17.862 L30.251,18.138 L29.554,17.388 C28.009,15.726 25.821,14.773 23.55,14.773 C19.662,14.773 16.282,17.544 15.517,21.363 L15.338,22.257 L14.489,22.595 C11.624,23.73 9.699,26.559 9.699,29.635 C9.699,33.811 13.099,37.211 17.276,37.211 L37.304,37.211 C40.913,37.211 43.849,34.271 43.849,30.657 C43.849,28.108 42.351,25.772 40.03,24.704"/>
    <path fill="#FFCE00" d="M14.749,18.759 C14.514,19.249 14.316,19.761 14.164,20.294 L8.52,17.621 L15.22,15.552 C14.956,16.485 14.787,17.454 14.746,18.451 C14.742,18.555 14.75,18.656 14.749,18.759 Z M40.092,20.986 C40.173,20.498 40.225,20.005 40.246,19.503 C40.278,18.77 40.236,18.046 40.144,17.332 L46.479,20.331 L40.455,22.196 C40.367,21.778 40.245,21.376 40.092,20.986 Z M16.922,11.896 C16.458,12.584 16.058,13.313 15.734,14.08 L11.745,8.309 L18.592,9.873 C18.296,10.164 18.018,10.473 17.751,10.79 C17.729,10.816 17.709,10.844 17.687,10.87 C17.446,11.162 17.218,11.464 17.003,11.776 C16.976,11.815 16.95,11.855 16.922,11.896 Z M20.637,8.25 C20.405,8.401 20.177,8.557 19.955,8.721 C19.893,8.768 19.823,8.809 19.759,8.857 L19.184,1.863 L24.325,6.628 C23.101,6.945 21.95,7.44 20.898,8.084 C20.81,8.137 20.723,8.194 20.637,8.25 Z M28.026,6.231 C27.298,6.201 26.572,6.253 25.852,6.346 L28.859,0 L30.928,6.697 C29.99,6.438 29.021,6.272 28.026,6.231 Z M32.405,7.207 L38.171,3.221 L36.605,10.057 C35.391,8.816 33.967,7.857 32.405,7.207 Z M37.637,11.233 L44.617,10.658 L39.859,15.786 C39.439,14.144 38.686,12.601 37.637,11.233 Z M23.551,13.202 C20.946,13.202 18.535,14.244 16.76,15.964 C17.902,11.961 21.253,8.781 25.463,8.002 C26.278,7.85 27.12,7.79 27.962,7.825 C30.942,7.947 33.696,9.222 35.717,11.417 C37.555,13.414 38.573,15.955 38.648,18.643 C37.227,17.065 35.196,16.053 32.938,16.053 C32.231,16.053 31.516,16.152 30.815,16.35 L30.751,16.367 L30.705,16.319 C28.864,14.337 26.256,13.202 23.551,13.202 Z"/>
    <g transform="translate(-1)">
      <rect width="55" height="55"/>
      <polygon fill="#FF7800" points="31.037 43.465 28.222 43.422 30.53 39.385 26.967 39.415 23.944 45.438 26.576 45.438 22.88 54.567"/>
      <path fill="#009EFF" d="M38.659,45.229 C37.336,47.783 34.317,46.112 35.587,43.647 C36.665,41.552 39.255,40.285 39.255,40.285 C39.255,40.285 39.705,43.201 38.659,45.229"/>
      <path fill="#38C0E0" d="M21.395,43.745 L19.139,43.192 L20.789,41.556 C20.917,41.426 20.92,41.216 20.789,41.086 L20.741,41.039 C20.613,40.907 20.401,40.907 20.271,41.036 L18.618,42.674 L18.068,40.414 C18.025,40.236 17.843,40.126 17.663,40.17 L17.599,40.186 C17.421,40.228 17.308,40.413 17.352,40.589 L17.918,42.895 L15.611,42.332 C15.434,42.289 15.251,42.397 15.206,42.577 L15.192,42.641 C15.145,42.822 15.259,43.002 15.437,43.044 L17.691,43.595 L16.044,45.229 C15.914,45.36 15.914,45.571 16.041,45.702 L16.089,45.749 C16.22,45.88 16.429,45.88 16.56,45.752 L18.211,44.11 L18.766,46.374 C18.809,46.552 18.991,46.663 19.168,46.618 L19.232,46.604 C19.413,46.559 19.525,46.379 19.479,46.201 L18.916,43.895 L21.221,44.457 C21.398,44.502 21.58,44.39 21.623,44.213 L21.64,44.149 C21.685,43.971 21.572,43.788 21.395,43.745"/>
    </g>
  </g>
</svg>
