<svg xmlns="http://www.w3.org/2000/svg" width="55" height="55" viewBox="0 0 55 55">
  <g fill="none" fill-rule="evenodd">
    <rect width="55" height="55"/>
    <path fill="#D5DCE2" d="M40.03,24.704 L39.13,24.29 L39.057,23.301 C38.821,20.118 36.133,17.624 32.936,17.624 C32.372,17.624 31.801,17.704 31.238,17.862 L30.251,18.138 L29.554,17.388 C28.009,15.726 25.821,14.773 23.55,14.773 C19.662,14.773 16.282,17.544 15.517,21.363 L15.338,22.257 L14.489,22.595 C11.624,23.73 9.699,26.559 9.699,29.635 C9.699,33.811 13.099,37.211 17.276,37.211 L37.304,37.211 C40.913,37.211 43.849,34.271 43.849,30.657 C43.849,28.108 42.351,25.772 40.03,24.704"/>
    <path fill="#FFCE00" d="M14.749,18.759 C14.514,19.249 14.316,19.761 14.164,20.294 L8.52,17.621 L15.22,15.552 C14.956,16.485 14.787,17.454 14.746,18.451 C14.742,18.555 14.75,18.656 14.749,18.759 Z M40.092,20.986 C40.173,20.498 40.225,20.005 40.246,19.503 C40.278,18.77 40.236,18.046 40.144,17.332 L46.479,20.331 L40.455,22.196 C40.367,21.778 40.245,21.376 40.092,20.986 Z M16.922,11.896 C16.458,12.584 16.058,13.313 15.734,14.08 L11.745,8.309 L18.592,9.873 C18.296,10.164 18.018,10.473 17.751,10.79 C17.729,10.816 17.709,10.844 17.687,10.87 C17.446,11.162 17.218,11.464 17.003,11.776 C16.976,11.815 16.95,11.855 16.922,11.896 Z M20.637,8.25 C20.405,8.401 20.177,8.557 19.955,8.721 C19.893,8.768 19.823,8.809 19.759,8.857 L19.184,1.863 L24.325,6.628 C23.101,6.945 21.95,7.44 20.898,8.084 C20.81,8.137 20.723,8.194 20.637,8.25 Z M28.026,6.231 C27.298,6.201 26.572,6.253 25.852,6.346 L28.859,0 L30.928,6.697 C29.99,6.438 29.021,6.272 28.026,6.231 Z M32.405,7.207 L38.171,3.221 L36.605,10.057 C35.391,8.816 33.967,7.857 32.405,7.207 Z M37.637,11.233 L44.617,10.658 L39.859,15.786 C39.439,14.144 38.686,12.601 37.637,11.233 Z M23.551,13.202 C20.946,13.202 18.535,14.244 16.76,15.964 C17.902,11.961 21.253,8.781 25.463,8.002 C26.278,7.85 27.12,7.79 27.962,7.825 C30.942,7.947 33.696,9.222 35.717,11.417 C37.555,13.414 38.573,15.955 38.648,18.643 C37.227,17.065 35.196,16.053 32.938,16.053 C32.231,16.053 31.516,16.152 30.815,16.35 L30.751,16.367 L30.705,16.319 C28.864,14.337 26.256,13.202 23.551,13.202 Z"/>
    <g transform="translate(-2)">
      <rect width="55" height="55"/>
      <path fill="#38C0E0" d="M21.576,43.745 C21.753,43.788 21.866,43.971 21.821,44.149 L21.804,44.213 C21.761,44.39 21.579,44.502 21.402,44.457 L19.097,43.895 L19.66,46.201 C19.706,46.379 19.594,46.559 19.413,46.604 L19.349,46.618 C19.172,46.663 18.99,46.552 18.947,46.374 L18.392,44.11 L16.741,45.752 C16.61,45.88 16.401,45.88 16.27,45.749 L16.222,45.702 C16.095,45.571 16.095,45.36 16.225,45.229 L17.872,43.595 L15.618,43.044 C15.44,43.002 15.326,42.822 15.373,42.641 L15.387,42.577 C15.432,42.397 15.615,42.289 15.792,42.332 L18.099,42.895 L17.533,40.589 C17.489,40.413 17.602,40.228 17.78,40.186 L17.844,40.17 C18.024,40.126 18.206,40.236 18.249,40.414 L18.799,42.674 L20.452,41.036 C20.582,40.907 20.794,40.907 20.922,41.039 L20.97,41.086 C21.101,41.216 21.098,41.426 20.97,41.556 L19.32,43.192 L21.576,43.745 Z M37.36,51.602 C37.537,51.645 37.65,51.828 37.604,52.006 L37.587,52.07 C37.544,52.247 37.362,52.359 37.185,52.314 L34.88,51.752 L35.443,54.058 C35.489,54.236 35.377,54.416 35.196,54.461 L35.132,54.475 C34.955,54.52 34.773,54.409 34.73,54.231 L34.175,51.967 L32.524,53.609 C32.393,53.737 32.184,53.737 32.053,53.606 L32.005,53.559 C31.878,53.428 31.878,53.217 32.008,53.086 L33.655,51.452 L31.401,50.901 C31.223,50.859 31.109,50.679 31.156,50.498 L31.17,50.434 C31.215,50.254 31.398,50.146 31.575,50.189 L33.882,50.752 L33.316,48.446 C33.273,48.27 33.386,48.085 33.564,48.043 L33.628,48.027 C33.808,47.983 33.99,48.093 34.033,48.271 L34.583,50.531 L36.236,48.893 C36.366,48.764 36.578,48.764 36.706,48.896 L36.754,48.943 C36.885,49.073 36.882,49.283 36.754,49.413 L35.104,51.049 L37.36,51.602 Z M27.332,51.602 C27.509,51.645 27.622,51.828 27.576,52.006 L27.559,52.07 C27.516,52.247 27.334,52.359 27.157,52.314 L24.852,51.752 L25.415,54.058 C25.461,54.236 25.349,54.416 25.168,54.461 L25.104,54.475 C24.927,54.52 24.745,54.409 24.702,54.231 L24.147,51.967 L22.496,53.609 C22.365,53.737 22.156,53.737 22.025,53.606 L21.977,53.559 C21.85,53.428 21.85,53.217 21.98,53.086 L23.627,51.452 L21.373,50.901 C21.195,50.859 21.081,50.679 21.128,50.498 L21.142,50.434 C21.187,50.254 21.37,50.146 21.547,50.189 L23.854,50.752 L23.288,48.446 C23.245,48.27 23.358,48.085 23.536,48.043 L23.6,48.027 C23.78,47.983 23.962,48.093 24.005,48.271 L24.555,50.531 L26.208,48.893 C26.338,48.764 26.55,48.764 26.678,48.896 L26.726,48.943 C26.857,49.073 26.854,49.283 26.726,49.413 L25.076,51.049 L27.332,51.602 Z M16.068,51.602 C16.245,51.645 16.357,51.828 16.313,52.006 L16.296,52.07 C16.253,52.247 16.071,52.359 15.894,52.314 L13.589,51.752 L14.152,54.058 C14.197,54.236 14.085,54.416 13.904,54.461 L13.84,54.475 C13.663,54.52 13.481,54.409 13.438,54.231 L12.883,51.967 L11.232,53.609 C11.101,53.737 10.892,53.737 10.761,53.606 L10.713,53.559 C10.586,53.428 10.586,53.217 10.716,53.086 L12.363,51.452 L10.109,50.901 C9.931,50.859 9.817,50.679 9.864,50.498 L9.878,50.434 C9.923,50.254 10.106,50.146 10.283,50.189 L12.59,50.752 L12.024,48.446 C11.981,48.27 12.094,48.085 12.272,48.043 L12.336,48.027 C12.516,47.983 12.698,48.093 12.741,48.271 L13.291,50.531 L14.944,48.893 C15.074,48.764 15.286,48.764 15.414,48.896 L15.462,48.943 C15.593,49.073 15.59,49.283 15.462,49.413 L13.812,51.049 L16.068,51.602 Z M42.869,43.745 C43.046,43.788 43.158,43.971 43.113,44.149 L43.096,44.213 C43.053,44.39 42.871,44.502 42.694,44.457 L40.389,43.895 L40.952,46.201 C40.998,46.379 40.886,46.559 40.705,46.604 L40.641,46.618 C40.464,46.663 40.282,46.552 40.239,46.374 L39.684,44.11 L38.033,45.752 C37.902,45.88 37.693,45.88 37.562,45.749 L37.514,45.702 C37.387,45.571 37.387,45.36 37.517,45.229 L39.164,43.595 L36.91,43.044 C36.732,43.002 36.618,42.822 36.665,42.641 L36.679,42.577 C36.724,42.397 36.907,42.289 37.084,42.332 L39.391,42.895 L38.825,40.589 C38.782,40.413 38.895,40.228 39.073,40.186 L39.137,40.17 C39.317,40.126 39.499,40.236 39.542,40.414 L40.092,42.674 L41.745,41.036 C41.875,40.907 42.087,40.907 42.215,41.039 L42.263,41.086 C42.394,41.216 42.391,41.426 42.263,41.556 L40.613,43.192 L42.869,43.745 Z M32.223,43.745 C32.399,43.788 32.512,43.971 32.467,44.149 L32.45,44.213 C32.407,44.39 32.225,44.502 32.048,44.457 L29.743,43.895 L30.306,46.201 C30.352,46.379 30.24,46.559 30.059,46.604 L29.995,46.618 C29.818,46.663 29.636,46.552 29.593,46.374 L29.038,44.11 L27.387,45.752 C27.256,45.88 27.047,45.88 26.916,45.749 L26.868,45.702 C26.741,45.571 26.741,45.36 26.871,45.229 L28.518,43.595 L26.264,43.044 C26.086,43.002 25.972,42.822 26.019,42.641 L26.033,42.577 C26.078,42.397 26.261,42.289 26.438,42.332 L28.745,42.895 L28.179,40.589 C28.136,40.413 28.249,40.228 28.427,40.186 L28.491,40.17 C28.671,40.126 28.853,40.236 28.896,40.414 L29.446,42.674 L31.099,41.036 C31.229,40.907 31.441,40.907 31.569,41.039 L31.617,41.086 C31.748,41.216 31.745,41.426 31.617,41.556 L29.967,43.192 L32.223,43.745 Z"/>
    </g>
  </g>
</svg>
