<svg xmlns="http://www.w3.org/2000/svg" width="55" height="55" viewBox="0 0 55 55">
  <g fill="none" fill-rule="evenodd">
    <rect width="55" height="55"/>
    <path fill="#D5DCE2" d="M40.03,24.704 L39.13,24.29 L39.057,23.301 C38.821,20.118 36.133,17.624 32.936,17.624 C32.372,17.624 31.801,17.704 31.238,17.862 L30.251,18.138 L29.554,17.388 C28.009,15.726 25.821,14.773 23.55,14.773 C19.662,14.773 16.282,17.544 15.517,21.363 L15.338,22.257 L14.489,22.595 C11.624,23.73 9.699,26.559 9.699,29.635 C9.699,33.811 13.099,37.211 17.276,37.211 L37.304,37.211 C40.913,37.211 43.849,34.271 43.849,30.657 C43.849,28.108 42.351,25.772 40.03,24.704"/>
    <path fill="#FFCE00" d="M14.749,18.759 C14.514,19.249 14.316,19.761 14.164,20.294 L8.52,17.621 L15.22,15.552 C14.956,16.485 14.787,17.454 14.746,18.451 C14.742,18.555 14.75,18.656 14.749,18.759 Z M40.092,20.986 C40.173,20.498 40.225,20.005 40.246,19.503 C40.278,18.77 40.236,18.046 40.144,17.332 L46.479,20.331 L40.455,22.196 C40.367,21.778 40.245,21.376 40.092,20.986 Z M16.922,11.896 C16.458,12.584 16.058,13.313 15.734,14.08 L11.745,8.309 L18.592,9.873 C18.296,10.164 18.018,10.473 17.751,10.79 C17.729,10.816 17.709,10.844 17.687,10.87 C17.446,11.162 17.218,11.464 17.003,11.776 C16.976,11.815 16.95,11.855 16.922,11.896 Z M20.637,8.25 C20.405,8.401 20.177,8.557 19.955,8.721 C19.893,8.768 19.823,8.809 19.759,8.857 L19.184,1.863 L24.325,6.628 C23.101,6.945 21.95,7.44 20.898,8.084 C20.81,8.137 20.723,8.194 20.637,8.25 Z M28.026,6.231 C27.298,6.201 26.572,6.253 25.852,6.346 L28.859,0 L30.928,6.697 C29.99,6.438 29.021,6.272 28.026,6.231 Z M32.405,7.207 L38.171,3.221 L36.605,10.057 C35.391,8.816 33.967,7.857 32.405,7.207 Z M37.637,11.233 L44.617,10.658 L39.859,15.786 C39.439,14.144 38.686,12.601 37.637,11.233 Z M23.551,13.202 C20.946,13.202 18.535,14.244 16.76,15.964 C17.902,11.961 21.253,8.781 25.463,8.002 C26.278,7.85 27.12,7.79 27.962,7.825 C30.942,7.947 33.696,9.222 35.717,11.417 C37.555,13.414 38.573,15.955 38.648,18.643 C37.227,17.065 35.196,16.053 32.938,16.053 C32.231,16.053 31.516,16.152 30.815,16.35 L30.751,16.367 L30.705,16.319 C28.864,14.337 26.256,13.202 23.551,13.202 Z"/>
    <g transform="translate(-1)">
      <rect width="55" height="55"/>
      <path fill="#009EFF" d="M31.073,53.086 C29.75,55.64 26.731,53.969 28.001,51.504 C29.079,49.409 31.669,48.142 31.669,48.142 C31.669,48.142 32.119,51.058 31.073,53.086 Z M22.578,45.229 C21.255,47.783 18.236,46.112 19.506,43.647 C20.584,41.552 23.174,40.285 23.174,40.285 C23.174,40.285 23.624,43.201 22.578,45.229 Z"/>
      <path fill="#38C0E0" d="M39.464,43.745 L37.208,43.192 L38.858,41.556 C38.986,41.426 38.989,41.216 38.858,41.086 L38.81,41.039 C38.682,40.907 38.47,40.907 38.34,41.036 L36.687,42.674 L36.137,40.414 C36.094,40.236 35.912,40.126 35.732,40.17 L35.668,40.186 C35.49,40.228 35.377,40.413 35.42,40.589 L35.986,42.895 L33.679,42.332 C33.502,42.289 33.319,42.397 33.274,42.577 L33.26,42.641 C33.213,42.822 33.327,43.002 33.505,43.044 L35.759,43.595 L34.112,45.229 C33.982,45.36 33.982,45.571 34.109,45.702 L34.157,45.749 C34.288,45.88 34.497,45.88 34.628,45.752 L36.279,44.11 L36.834,46.374 C36.877,46.552 37.059,46.663 37.236,46.618 L37.3,46.604 C37.481,46.559 37.593,46.379 37.547,46.201 L36.984,43.895 L39.289,44.457 C39.466,44.502 39.648,44.39 39.691,44.213 L39.708,44.149 C39.753,43.971 39.641,43.788 39.464,43.745 M19.104,51.602 L16.848,51.049 L18.498,49.413 C18.626,49.283 18.629,49.073 18.498,48.943 L18.45,48.896 C18.322,48.764 18.11,48.764 17.98,48.893 L16.327,50.531 L15.777,48.271 C15.734,48.093 15.552,47.983 15.372,48.027 L15.308,48.043 C15.13,48.085 15.017,48.27 15.06,48.446 L15.626,50.752 L13.319,50.189 C13.142,50.146 12.959,50.254 12.914,50.434 L12.9,50.498 C12.853,50.679 12.967,50.859 13.145,50.901 L15.399,51.452 L13.752,53.086 C13.622,53.217 13.622,53.428 13.749,53.559 L13.797,53.606 C13.928,53.737 14.137,53.737 14.268,53.609 L15.919,51.967 L16.474,54.231 C16.517,54.409 16.699,54.52 16.876,54.475 L16.94,54.461 C17.121,54.416 17.233,54.236 17.187,54.058 L16.624,51.752 L18.929,52.314 C19.106,52.359 19.288,52.247 19.331,52.07 L19.348,52.006 C19.393,51.828 19.281,51.645 19.104,51.602"/>
    </g>
  </g>
</svg>
