<svg xmlns="http://www.w3.org/2000/svg" width="55" height="55" viewBox="0 0 55 55">
  <g fill="none" fill-rule="evenodd">
    <rect width="55" height="55"/>
    <path fill="#D5DCE2" d="M40.03,24.704 L39.13,24.29 L39.057,23.301 C38.821,20.118 36.133,17.624 32.936,17.624 C32.372,17.624 31.801,17.704 31.238,17.862 L30.251,18.138 L29.554,17.388 C28.009,15.726 25.821,14.773 23.55,14.773 C19.662,14.773 16.282,17.544 15.517,21.363 L15.338,22.257 L14.489,22.595 C11.624,23.73 9.699,26.559 9.699,29.635 C9.699,33.811 13.099,37.211 17.276,37.211 L37.304,37.211 C40.913,37.211 43.849,34.271 43.849,30.657 C43.849,28.108 42.351,25.772 40.03,24.704"/>
    <path fill="#FFCE00" d="M14.749,18.759 C14.514,19.249 14.316,19.761 14.164,20.294 L8.52,17.621 L15.22,15.552 C14.956,16.485 14.787,17.454 14.746,18.451 C14.742,18.555 14.75,18.656 14.749,18.759 Z M40.092,20.986 C40.173,20.498 40.225,20.005 40.246,19.503 C40.278,18.77 40.236,18.046 40.144,17.332 L46.479,20.331 L40.455,22.196 C40.367,21.778 40.245,21.376 40.092,20.986 Z M16.922,11.896 C16.458,12.584 16.058,13.313 15.734,14.08 L11.745,8.309 L18.592,9.873 C18.296,10.164 18.018,10.473 17.751,10.79 C17.729,10.816 17.709,10.844 17.687,10.87 C17.446,11.162 17.218,11.464 17.003,11.776 C16.976,11.815 16.95,11.855 16.922,11.896 Z M20.637,8.25 C20.405,8.401 20.177,8.557 19.955,8.721 C19.893,8.768 19.823,8.809 19.759,8.857 L19.184,1.863 L24.325,6.628 C23.101,6.945 21.95,7.44 20.898,8.084 C20.81,8.137 20.723,8.194 20.637,8.25 Z M28.026,6.231 C27.298,6.201 26.572,6.253 25.852,6.346 L28.859,0 L30.928,6.697 C29.99,6.438 29.021,6.272 28.026,6.231 Z M32.405,7.207 L38.171,3.221 L36.605,10.057 C35.391,8.816 33.967,7.857 32.405,7.207 Z M37.637,11.233 L44.617,10.658 L39.859,15.786 C39.439,14.144 38.686,12.601 37.637,11.233 Z M23.551,13.202 C20.946,13.202 18.535,14.244 16.76,15.964 C17.902,11.961 21.253,8.781 25.463,8.002 C26.278,7.85 27.12,7.79 27.962,7.825 C30.942,7.947 33.696,9.222 35.717,11.417 C37.555,13.414 38.573,15.955 38.648,18.643 C37.227,17.065 35.196,16.053 32.938,16.053 C32.231,16.053 31.516,16.152 30.815,16.35 L30.751,16.367 L30.705,16.319 C28.864,14.337 26.256,13.202 23.551,13.202 Z"/>
    <g transform="translate(-2)">
      <rect width="55" height="55"/>
      <path fill="#009EFF" d="M18.105,45.229 C16.782,47.783 13.763,46.112 15.033,43.647 C16.111,41.552 18.701,40.285 18.701,40.285 C18.701,40.285 19.151,43.201 18.105,45.229 Z M20.139,53.04 C18.816,55.594 15.797,53.923 17.067,51.458 C18.145,49.363 20.735,48.096 20.735,48.096 C20.735,48.096 21.185,51.011 20.139,53.04 Z M41.131,45.229 C39.808,47.783 36.789,46.112 38.059,43.647 C39.137,41.552 41.727,40.285 41.727,40.285 C41.727,40.285 42.177,43.201 41.131,45.229 Z"/>
      <polygon fill="#FF7800" points="32.037 43.465 29.222 43.422 31.53 39.385 27.967 39.415 24.944 45.438 27.576 45.438 23.88 54.567"/>
      <path fill="#38C0E0" d="M13.247,51.555 C13.424,51.598 13.537,51.782 13.492,51.959 L13.475,52.023 C13.432,52.2 13.25,52.312 13.073,52.267 L10.768,51.705 L11.331,54.011 C11.376,54.189 11.264,54.369 11.083,54.414 L11.019,54.428 C10.842,54.473 10.66,54.362 10.617,54.184 L10.062,51.92 L8.411,53.562 C8.28,53.69 8.071,53.69 7.94,53.559 L7.892,53.512 C7.765,53.381 7.765,53.17 7.895,53.039 L9.542,51.405 L7.288,50.854 C7.11,50.812 6.996,50.632 7.043,50.451 L7.057,50.387 C7.102,50.207 7.285,50.099 7.462,50.142 L9.769,50.705 L9.203,48.399 C9.16,48.223 9.273,48.038 9.451,47.996 L9.515,47.98 C9.695,47.936 9.877,48.046 9.92,48.224 L10.47,50.484 L12.123,48.846 C12.253,48.717 12.465,48.717 12.593,48.849 L12.641,48.896 C12.772,49.026 12.769,49.236 12.641,49.366 L10.991,51.002 L13.247,51.555 Z M37.049,51.555 C37.226,51.598 37.338,51.782 37.293,51.959 L37.276,52.023 C37.233,52.2 37.051,52.312 36.874,52.267 L34.569,51.705 L35.132,54.011 C35.178,54.189 35.066,54.369 34.885,54.414 L34.821,54.428 C34.644,54.473 34.462,54.362 34.419,54.184 L33.864,51.92 L32.213,53.562 C32.082,53.69 31.873,53.69 31.742,53.559 L31.694,53.512 C31.567,53.381 31.567,53.17 31.697,53.039 L33.344,51.405 L31.09,50.854 C30.912,50.812 30.798,50.632 30.845,50.451 L30.859,50.387 C30.904,50.207 31.087,50.099 31.264,50.142 L33.571,50.705 L33.005,48.399 C32.962,48.223 33.075,48.038 33.253,47.996 L33.317,47.98 C33.497,47.936 33.679,48.046 33.722,48.224 L34.272,50.484 L35.925,48.846 C36.055,48.717 36.267,48.717 36.395,48.849 L36.443,48.896 C36.574,49.026 36.571,49.236 36.443,49.366 L34.793,51.002 L37.049,51.555 Z M45.553,51.555 C45.73,51.598 45.843,51.782 45.796,51.962 L45.779,52.026 C45.736,52.203 45.554,52.315 45.377,52.27 L43.072,51.708 L43.635,54.014 C43.681,54.192 43.569,54.372 43.388,54.417 L43.324,54.431 C43.147,54.476 42.965,54.365 42.922,54.187 L42.367,51.923 L40.716,53.565 C40.585,53.693 40.376,53.693 40.245,53.562 L40.197,53.515 C40.07,53.384 40.07,53.173 40.2,53.042 L41.848,51.405 L39.594,50.854 C39.416,50.812 39.302,50.632 39.349,50.451 L39.363,50.387 C39.408,50.207 39.591,50.099 39.768,50.142 L42.075,50.705 L41.509,48.399 C41.466,48.223 41.579,48.038 41.757,47.996 L41.821,47.98 C42.001,47.936 42.183,48.046 42.226,48.224 L42.776,50.484 L44.429,48.846 C44.559,48.717 44.771,48.717 44.899,48.849 L44.947,48.896 C45.078,49.026 45.075,49.236 44.947,49.366 L43.297,51.002 L45.553,51.555 Z"/>
    </g>
  </g>
</svg>
