<svg xmlns="http://www.w3.org/2000/svg" width="55" height="55" viewBox="0 0 55 55">
  <g fill="none" fill-rule="evenodd">
    <rect width="55" height="55"/>
    <path fill="#FFCE00" d="M27.841,9.173 C27.818,9.149 27.792,9.129 27.77,9.104 C27.859,9.058 27.954,9.01 28.038,8.965 C28.896,8.592 29.807,8.319 30.759,8.17 C31.599,8.037 32.462,7.998 33.322,8.057 C36.367,8.262 39.151,9.644 41.159,11.946 C43.164,14.247 44.155,17.189 43.943,20.235 C43.917,20.64 43.86,21.037 43.791,21.431 C43.786,21.416 43.778,21.403 43.774,21.39 C43.146,19.472 41.803,17.883 40.052,16.955 C40.039,16.947 40.027,16.938 40.013,16.93 C39.822,16.83 39.616,16.757 39.416,16.673 C39.221,16.59 39.031,16.5 38.829,16.433 C38.654,16.377 38.47,16.343 38.291,16.298 C38.052,16.239 37.814,16.177 37.567,16.142 C37.517,16.135 37.473,16.118 37.423,16.111 C37.469,15.099 37.073,14.029 37.068,14.016 C36.384,12.197 35.083,10.722 33.303,9.75 C32.24,9.17 31.097,8.877 29.905,8.877 C29.216,8.877 28.519,8.981 27.849,9.181 L27.841,9.173 Z M26.484,7.936 C25.943,7.507 25.374,7.141 24.784,6.829 L24.501,1.715 L29.632,6.733 C28.518,6.989 27.47,7.412 26.484,7.936 Z M33.432,6.428 C32.688,6.377 31.943,6.411 31.203,6.486 L34.455,0.075 L36.389,6.985 C35.437,6.694 34.449,6.496 33.432,6.428 Z M37.887,7.547 L43.898,3.625 L42.108,10.579 C40.899,9.276 39.468,8.254 37.887,7.547 Z M43.131,11.811 L50.29,11.414 L45.281,16.532 C44.895,14.84 44.167,13.24 43.131,11.811 Z M45.528,18.122 L51.931,21.366 L45.01,23.307 C45.307,22.357 45.505,21.368 45.574,20.347 C45.625,19.598 45.601,18.855 45.528,18.122 Z"/>
    <path fill="#D5DCE2" d="M11.659,29.635 C11.659,30.611 11.816,31.552 12.102,32.435 C10.891,32.218 9.915,31.95 9.915,31.95 C6.36,30.707 3.866,27.187 4.216,23.141 C4.5,19.853 6.787,17.073 9.855,15.855 L10.537,15.584 L10.74,14.576 C11.773,9.413 17.052,5.948 22.473,7.543 C24.099,8.021 25.536,9.002 26.691,10.243 L27.342,10.944 C27.342,10.944 27.387,10.97 27.456,11.013 C29.028,10.26 30.888,10.223 32.551,11.131 C34.101,11.978 35.087,13.213 35.598,14.57 C35.653,14.717 35.889,15.564 35.848,16.097 C35.345,16.138 34.841,16.211 34.345,16.35 L34.281,16.368 L34.235,16.318 C32.394,14.338 29.786,13.203 27.081,13.203 C22.444,13.203 18.418,16.504 17.507,21.055 L17.497,21.113 L17.441,21.135 C13.982,22.505 11.659,25.921 11.659,29.635 Z M43.561,24.704 C45.881,25.772 47.379,28.108 47.38,30.658 C47.38,34.272 44.444,37.212 40.835,37.212 L20.807,37.212 C16.63,37.212 13.23,33.812 13.23,29.636 C13.23,26.56 15.155,23.731 18.02,22.596 L18.87,22.258 L19.048,21.364 C19.813,17.545 23.193,14.774 27.081,14.774 C29.352,14.774 31.54,15.727 33.085,17.389 L33.782,18.139 L34.769,17.863 C35.332,17.706 35.903,17.625 36.467,17.625 C39.664,17.625 42.352,20.118 42.588,23.303 L42.661,24.29 L43.561,24.704 Z"/>
    <g>
      <rect width="55" height="55"/>
      <path fill="#009EFF" d="M31.073,53.086 C29.75,55.64 26.731,53.969 28.001,51.504 C29.079,49.409 31.669,48.142 31.669,48.142 C31.669,48.142 32.119,51.058 31.073,53.086 Z M22.578,45.229 C21.255,47.783 18.236,46.112 19.506,43.647 C20.584,41.552 23.174,40.285 23.174,40.285 C23.174,40.285 23.624,43.201 22.578,45.229 Z"/>
      <path fill="#38C0E0" d="M39.464,43.745 L37.208,43.192 L38.858,41.556 C38.986,41.426 38.989,41.216 38.858,41.086 L38.81,41.039 C38.682,40.907 38.47,40.907 38.34,41.036 L36.687,42.674 L36.137,40.414 C36.094,40.236 35.912,40.126 35.732,40.17 L35.668,40.186 C35.49,40.228 35.377,40.413 35.42,40.589 L35.986,42.895 L33.679,42.332 C33.502,42.289 33.319,42.397 33.274,42.577 L33.26,42.641 C33.213,42.822 33.327,43.002 33.505,43.044 L35.759,43.595 L34.112,45.229 C33.982,45.36 33.982,45.571 34.109,45.702 L34.157,45.749 C34.288,45.88 34.497,45.88 34.628,45.752 L36.279,44.11 L36.834,46.374 C36.877,46.552 37.059,46.663 37.236,46.618 L37.3,46.604 C37.481,46.559 37.593,46.379 37.547,46.201 L36.984,43.895 L39.289,44.457 C39.466,44.502 39.648,44.39 39.691,44.213 L39.708,44.149 C39.753,43.971 39.641,43.788 39.464,43.745 M19.104,51.602 L16.848,51.049 L18.498,49.413 C18.626,49.283 18.629,49.073 18.498,48.943 L18.45,48.896 C18.322,48.764 18.11,48.764 17.98,48.893 L16.327,50.531 L15.777,48.271 C15.734,48.093 15.552,47.983 15.372,48.027 L15.308,48.043 C15.13,48.085 15.017,48.27 15.06,48.446 L15.626,50.752 L13.319,50.189 C13.142,50.146 12.959,50.254 12.914,50.434 L12.9,50.498 C12.853,50.679 12.967,50.859 13.145,50.901 L15.399,51.452 L13.752,53.086 C13.622,53.217 13.622,53.428 13.749,53.559 L13.797,53.606 C13.928,53.737 14.137,53.737 14.268,53.609 L15.919,51.967 L16.474,54.231 C16.517,54.409 16.699,54.52 16.876,54.475 L16.94,54.461 C17.121,54.416 17.233,54.236 17.187,54.058 L16.624,51.752 L18.929,52.314 C19.106,52.359 19.288,52.247 19.331,52.07 L19.348,52.006 C19.393,51.828 19.281,51.645 19.104,51.602"/>
    </g>
  </g>
</svg>
