<svg xmlns="http://www.w3.org/2000/svg" width="55" height="55" viewBox="0 0 55 55">
  <g fill="none" fill-rule="evenodd">
    <rect width="55" height="55"/>
    <path fill="#FFCE00" d="M27.841,9.173 C27.818,9.149 27.792,9.129 27.77,9.104 C27.859,9.058 27.954,9.01 28.038,8.965 C28.896,8.592 29.807,8.319 30.759,8.17 C31.599,8.037 32.462,7.998 33.322,8.057 C36.367,8.262 39.151,9.644 41.159,11.946 C43.164,14.247 44.155,17.189 43.943,20.235 C43.917,20.64 43.86,21.037 43.791,21.431 C43.786,21.416 43.778,21.403 43.774,21.39 C43.146,19.472 41.803,17.883 40.052,16.955 C40.039,16.947 40.027,16.938 40.013,16.93 C39.822,16.83 39.616,16.757 39.416,16.673 C39.221,16.59 39.031,16.5 38.829,16.433 C38.654,16.377 38.47,16.343 38.291,16.298 C38.052,16.239 37.814,16.177 37.567,16.142 C37.517,16.135 37.473,16.118 37.423,16.111 C37.469,15.099 37.073,14.029 37.068,14.016 C36.384,12.197 35.083,10.722 33.303,9.75 C32.24,9.17 31.097,8.877 29.905,8.877 C29.216,8.877 28.519,8.981 27.849,9.181 L27.841,9.173 Z M26.484,7.936 C25.943,7.507 25.374,7.141 24.784,6.829 L24.501,1.715 L29.632,6.733 C28.518,6.989 27.47,7.412 26.484,7.936 Z M33.432,6.428 C32.688,6.377 31.943,6.411 31.203,6.486 L34.455,0.075 L36.389,6.985 C35.437,6.694 34.449,6.496 33.432,6.428 Z M37.887,7.547 L43.898,3.625 L42.108,10.579 C40.899,9.276 39.468,8.254 37.887,7.547 Z M43.131,11.811 L50.29,11.414 L45.281,16.532 C44.895,14.84 44.167,13.24 43.131,11.811 Z M45.528,18.122 L51.931,21.366 L45.01,23.307 C45.307,22.357 45.505,21.368 45.574,20.347 C45.625,19.598 45.601,18.855 45.528,18.122 Z"/>
    <path fill="#D5DCE2" d="M11.659,29.635 C11.659,30.611 11.816,31.552 12.102,32.435 C10.891,32.218 9.915,31.95 9.915,31.95 C6.36,30.707 3.866,27.187 4.216,23.141 C4.5,19.853 6.787,17.073 9.855,15.855 L10.537,15.584 L10.74,14.576 C11.773,9.413 17.052,5.948 22.473,7.543 C24.099,8.021 25.536,9.002 26.691,10.243 L27.342,10.944 C27.342,10.944 27.387,10.97 27.456,11.013 C29.028,10.26 30.888,10.223 32.551,11.131 C34.101,11.978 35.087,13.213 35.598,14.57 C35.653,14.717 35.889,15.564 35.848,16.097 C35.345,16.138 34.841,16.211 34.345,16.35 L34.281,16.368 L34.235,16.318 C32.394,14.338 29.786,13.203 27.081,13.203 C22.444,13.203 18.418,16.504 17.507,21.055 L17.497,21.113 L17.441,21.135 C13.982,22.505 11.659,25.921 11.659,29.635 Z M43.561,24.704 C45.881,25.772 47.379,28.108 47.38,30.658 C47.38,34.272 44.444,37.212 40.835,37.212 L20.807,37.212 C16.63,37.212 13.23,33.812 13.23,29.636 C13.23,26.56 15.155,23.731 18.02,22.596 L18.87,22.258 L19.048,21.364 C19.813,17.545 23.193,14.774 27.081,14.774 C29.352,14.774 31.54,15.727 33.085,17.389 L33.782,18.139 L34.769,17.863 C35.332,17.706 35.903,17.625 36.467,17.625 C39.664,17.625 42.352,20.118 42.588,23.303 L42.661,24.29 L43.561,24.704 Z"/>
    <g>
      <rect width="55" height="55"/>
      <path fill="#38C0E0" d="M21.576,43.745 C21.753,43.788 21.866,43.971 21.821,44.149 L21.804,44.213 C21.761,44.39 21.579,44.502 21.402,44.457 L19.097,43.895 L19.66,46.201 C19.706,46.379 19.594,46.559 19.413,46.604 L19.349,46.618 C19.172,46.663 18.99,46.552 18.947,46.374 L18.392,44.11 L16.741,45.752 C16.61,45.88 16.401,45.88 16.27,45.749 L16.222,45.702 C16.095,45.571 16.095,45.36 16.225,45.229 L17.872,43.595 L15.618,43.044 C15.44,43.002 15.326,42.822 15.373,42.641 L15.387,42.577 C15.432,42.397 15.615,42.289 15.792,42.332 L18.099,42.895 L17.533,40.589 C17.489,40.413 17.602,40.228 17.78,40.186 L17.844,40.17 C18.024,40.126 18.206,40.236 18.249,40.414 L18.799,42.674 L20.452,41.036 C20.582,40.907 20.794,40.907 20.922,41.039 L20.97,41.086 C21.101,41.216 21.098,41.426 20.97,41.556 L19.32,43.192 L21.576,43.745 Z M37.36,51.602 C37.537,51.645 37.65,51.828 37.604,52.006 L37.587,52.07 C37.544,52.247 37.362,52.359 37.185,52.314 L34.88,51.752 L35.443,54.058 C35.489,54.236 35.377,54.416 35.196,54.461 L35.132,54.475 C34.955,54.52 34.773,54.409 34.73,54.231 L34.175,51.967 L32.524,53.609 C32.393,53.737 32.184,53.737 32.053,53.606 L32.005,53.559 C31.878,53.428 31.878,53.217 32.008,53.086 L33.655,51.452 L31.401,50.901 C31.223,50.859 31.109,50.679 31.156,50.498 L31.17,50.434 C31.215,50.254 31.398,50.146 31.575,50.189 L33.882,50.752 L33.316,48.446 C33.273,48.27 33.386,48.085 33.564,48.043 L33.628,48.027 C33.808,47.983 33.99,48.093 34.033,48.271 L34.583,50.531 L36.236,48.893 C36.366,48.764 36.578,48.764 36.706,48.896 L36.754,48.943 C36.885,49.073 36.882,49.283 36.754,49.413 L35.104,51.049 L37.36,51.602 Z M27.332,51.602 C27.509,51.645 27.622,51.828 27.576,52.006 L27.559,52.07 C27.516,52.247 27.334,52.359 27.157,52.314 L24.852,51.752 L25.415,54.058 C25.461,54.236 25.349,54.416 25.168,54.461 L25.104,54.475 C24.927,54.52 24.745,54.409 24.702,54.231 L24.147,51.967 L22.496,53.609 C22.365,53.737 22.156,53.737 22.025,53.606 L21.977,53.559 C21.85,53.428 21.85,53.217 21.98,53.086 L23.627,51.452 L21.373,50.901 C21.195,50.859 21.081,50.679 21.128,50.498 L21.142,50.434 C21.187,50.254 21.37,50.146 21.547,50.189 L23.854,50.752 L23.288,48.446 C23.245,48.27 23.358,48.085 23.536,48.043 L23.6,48.027 C23.78,47.983 23.962,48.093 24.005,48.271 L24.555,50.531 L26.208,48.893 C26.338,48.764 26.55,48.764 26.678,48.896 L26.726,48.943 C26.857,49.073 26.854,49.283 26.726,49.413 L25.076,51.049 L27.332,51.602 Z M16.068,51.602 C16.245,51.645 16.357,51.828 16.313,52.006 L16.296,52.07 C16.253,52.247 16.071,52.359 15.894,52.314 L13.589,51.752 L14.152,54.058 C14.197,54.236 14.085,54.416 13.904,54.461 L13.84,54.475 C13.663,54.52 13.481,54.409 13.438,54.231 L12.883,51.967 L11.232,53.609 C11.101,53.737 10.892,53.737 10.761,53.606 L10.713,53.559 C10.586,53.428 10.586,53.217 10.716,53.086 L12.363,51.452 L10.109,50.901 C9.931,50.859 9.817,50.679 9.864,50.498 L9.878,50.434 C9.923,50.254 10.106,50.146 10.283,50.189 L12.59,50.752 L12.024,48.446 C11.981,48.27 12.094,48.085 12.272,48.043 L12.336,48.027 C12.516,47.983 12.698,48.093 12.741,48.271 L13.291,50.531 L14.944,48.893 C15.074,48.764 15.286,48.764 15.414,48.896 L15.462,48.943 C15.593,49.073 15.59,49.283 15.462,49.413 L13.812,51.049 L16.068,51.602 Z M42.869,43.745 C43.046,43.788 43.158,43.971 43.113,44.149 L43.096,44.213 C43.053,44.39 42.871,44.502 42.694,44.457 L40.389,43.895 L40.952,46.201 C40.998,46.379 40.886,46.559 40.705,46.604 L40.641,46.618 C40.464,46.663 40.282,46.552 40.239,46.374 L39.684,44.11 L38.033,45.752 C37.902,45.88 37.693,45.88 37.562,45.749 L37.514,45.702 C37.387,45.571 37.387,45.36 37.517,45.229 L39.164,43.595 L36.91,43.044 C36.732,43.002 36.618,42.822 36.665,42.641 L36.679,42.577 C36.724,42.397 36.907,42.289 37.084,42.332 L39.391,42.895 L38.825,40.589 C38.782,40.413 38.895,40.228 39.073,40.186 L39.137,40.17 C39.317,40.126 39.499,40.236 39.542,40.414 L40.092,42.674 L41.745,41.036 C41.875,40.907 42.087,40.907 42.215,41.039 L42.263,41.086 C42.394,41.216 42.391,41.426 42.263,41.556 L40.613,43.192 L42.869,43.745 Z M32.223,43.745 C32.399,43.788 32.512,43.971 32.467,44.149 L32.45,44.213 C32.407,44.39 32.225,44.502 32.048,44.457 L29.743,43.895 L30.306,46.201 C30.352,46.379 30.24,46.559 30.059,46.604 L29.995,46.618 C29.818,46.663 29.636,46.552 29.593,46.374 L29.038,44.11 L27.387,45.752 C27.256,45.88 27.047,45.88 26.916,45.749 L26.868,45.702 C26.741,45.571 26.741,45.36 26.871,45.229 L28.518,43.595 L26.264,43.044 C26.086,43.002 25.972,42.822 26.019,42.641 L26.033,42.577 C26.078,42.397 26.261,42.289 26.438,42.332 L28.745,42.895 L28.179,40.589 C28.136,40.413 28.249,40.228 28.427,40.186 L28.491,40.17 C28.671,40.126 28.853,40.236 28.896,40.414 L29.446,42.674 L31.099,41.036 C31.229,40.907 31.441,40.907 31.569,41.039 L31.617,41.086 C31.748,41.216 31.745,41.426 31.617,41.556 L29.967,43.192 L32.223,43.745 Z"/>
    </g>
  </g>
</svg>
