<svg xmlns="http://www.w3.org/2000/svg" width="55" height="55" viewBox="0 0 55 55">
  <g fill="none" fill-rule="evenodd">
    <rect width="55" height="55"/>
    <path fill="#D5DCE2" d="M38.605,24.673 L37.705,24.259 L37.632,23.27 C37.396,20.087 34.708,17.593 31.511,17.593 C30.947,17.593 30.376,17.673 29.813,17.831 L28.826,18.107 L28.129,17.357 C26.584,15.695 24.396,14.742 22.125,14.742 C18.237,14.742 14.857,17.513 14.092,21.332 L13.913,22.226 L13.064,22.564 C10.199,23.699 8.274,26.528 8.274,29.604 C8.274,33.78 11.674,37.18 15.851,37.18 L35.879,37.18 C39.488,37.18 42.424,34.24 42.424,30.626 C42.423,28.078 40.925,25.741 38.605,24.673"/>
    <path fill="#7694B4" d="M33.349,13.315 C30.662,9.925 28.98,4.037 32.765,0.0399999991 C31.309,0.457999999 29.904,1.153 28.639,2.15 C26.481,3.848 25.225,6.177 24.748,8.641 C24.535,10.355 24.495,11.988 24.537,13.56 C26.338,14.021 27.995,14.98 29.279,16.358 L29.325,16.408 L29.388,16.39 C30.09,16.194 30.804,16.094 31.511,16.094 C35.464,16.094 38.785,19.136 39.169,23.048 C40.695,22.753 42.18,22.137 43.527,21.076 C44.795,20.081 45.799,18.881 46.547,17.561 C41.771,20.297 36.359,17.111 33.349,13.315"/>
    <g transform="translate(-3)">
      <rect width="55" height="55"/>
      <polygon fill="#FF7800" points="32.037 43.465 29.222 43.422 31.53 39.385 27.967 39.415 24.944 45.438 27.576 45.438 23.88 54.567"/>
      <path fill="#009EFF" d="M20.461,45.229 C19.138,47.783 16.119,46.112 17.389,43.647 C18.467,41.552 21.057,40.285 21.057,40.285 C21.057,40.285 21.507,43.201 20.461,45.229 Z M36.931,53.086 C35.608,55.64 32.589,53.969 33.859,51.504 C34.937,49.409 37.527,48.142 37.527,48.142 C37.527,48.142 37.977,51.058 36.931,53.086 Z"/>
      <path fill="#38C0E0" d="M21.076,51.602 C21.253,51.645 21.366,51.828 21.321,52.006 L21.304,52.07 C21.261,52.247 21.079,52.359 20.902,52.314 L18.597,51.752 L19.16,54.058 C19.206,54.236 19.094,54.416 18.913,54.461 L18.849,54.475 C18.672,54.52 18.49,54.409 18.447,54.231 L17.892,51.967 L16.241,53.609 C16.11,53.737 15.901,53.737 15.77,53.606 L15.722,53.559 C15.595,53.428 15.595,53.217 15.725,53.086 L17.372,51.452 L15.118,50.901 C14.94,50.859 14.826,50.679 14.873,50.498 L14.887,50.434 C14.932,50.254 15.115,50.146 15.292,50.189 L17.599,50.752 L17.033,48.446 C16.989,48.27 17.102,48.085 17.28,48.043 L17.344,48.027 C17.524,47.983 17.706,48.093 17.749,48.271 L18.299,50.531 L19.952,48.893 C20.082,48.764 20.294,48.764 20.422,48.896 L20.47,48.943 C20.601,49.073 20.598,49.283 20.47,49.413 L18.82,51.049 L21.076,51.602 Z M41.31,43.745 C41.487,43.788 41.599,43.971 41.555,44.149 L41.538,44.213 C41.495,44.39 41.313,44.502 41.136,44.457 L38.831,43.895 L39.394,46.201 C39.439,46.379 39.327,46.559 39.146,46.604 L39.082,46.618 C38.905,46.663 38.723,46.552 38.68,46.374 L38.125,44.11 L36.474,45.752 C36.343,45.88 36.134,45.88 36.003,45.749 L35.955,45.702 C35.828,45.571 35.828,45.36 35.958,45.229 L37.605,43.595 L35.351,43.044 C35.173,43.002 35.059,42.822 35.106,42.641 L35.12,42.577 C35.165,42.397 35.348,42.289 35.525,42.332 L37.832,42.895 L37.266,40.589 C37.223,40.413 37.336,40.228 37.514,40.186 L37.578,40.17 C37.758,40.126 37.94,40.236 37.983,40.414 L38.533,42.674 L40.186,41.036 C40.316,40.907 40.528,40.907 40.656,41.039 L40.704,41.086 C40.835,41.216 40.832,41.426 40.704,41.556 L39.054,43.192 L41.31,43.745 Z"/>
    </g>
  </g>
</svg>
