<svg xmlns="http://www.w3.org/2000/svg" width="55" height="55" viewBox="0 0 55 55">
  <g fill="none" fill-rule="evenodd">
    <rect width="55" height="55"/>
    <path fill="#D5DCE2" d="M38.605,24.673 L37.705,24.259 L37.632,23.27 C37.396,20.087 34.708,17.593 31.511,17.593 C30.947,17.593 30.376,17.673 29.813,17.831 L28.826,18.107 L28.129,17.357 C26.584,15.695 24.396,14.742 22.125,14.742 C18.237,14.742 14.857,17.513 14.092,21.332 L13.913,22.226 L13.064,22.564 C10.199,23.699 8.274,26.528 8.274,29.604 C8.274,33.78 11.674,37.18 15.851,37.18 L35.879,37.18 C39.488,37.18 42.424,34.24 42.424,30.626 C42.423,28.078 40.925,25.741 38.605,24.673"/>
    <path fill="#7694B4" d="M33.349,13.315 C30.662,9.925 28.98,4.037 32.765,0.0399999991 C31.309,0.457999999 29.904,1.153 28.639,2.15 C26.481,3.848 25.225,6.177 24.748,8.641 C24.535,10.355 24.495,11.988 24.537,13.56 C26.338,14.021 27.995,14.98 29.279,16.358 L29.325,16.408 L29.388,16.39 C30.09,16.194 30.804,16.094 31.511,16.094 C35.464,16.094 38.785,19.136 39.169,23.048 C40.695,22.753 42.18,22.137 43.527,21.076 C44.795,20.081 45.799,18.881 46.547,17.561 C41.771,20.297 36.359,17.111 33.349,13.315"/>
    <g transform="translate(-3)">
      <rect width="55" height="55"/>
      <path fill="#009EFF" d="M31.073,53.086 C29.75,55.64 26.731,53.969 28.001,51.504 C29.079,49.409 31.669,48.142 31.669,48.142 C31.669,48.142 32.119,51.058 31.073,53.086 Z M22.578,45.229 C21.255,47.783 18.236,46.112 19.506,43.647 C20.584,41.552 23.174,40.285 23.174,40.285 C23.174,40.285 23.624,43.201 22.578,45.229 Z"/>
      <path fill="#38C0E0" d="M39.464,43.745 L37.208,43.192 L38.858,41.556 C38.986,41.426 38.989,41.216 38.858,41.086 L38.81,41.039 C38.682,40.907 38.47,40.907 38.34,41.036 L36.687,42.674 L36.137,40.414 C36.094,40.236 35.912,40.126 35.732,40.17 L35.668,40.186 C35.49,40.228 35.377,40.413 35.42,40.589 L35.986,42.895 L33.679,42.332 C33.502,42.289 33.319,42.397 33.274,42.577 L33.26,42.641 C33.213,42.822 33.327,43.002 33.505,43.044 L35.759,43.595 L34.112,45.229 C33.982,45.36 33.982,45.571 34.109,45.702 L34.157,45.749 C34.288,45.88 34.497,45.88 34.628,45.752 L36.279,44.11 L36.834,46.374 C36.877,46.552 37.059,46.663 37.236,46.618 L37.3,46.604 C37.481,46.559 37.593,46.379 37.547,46.201 L36.984,43.895 L39.289,44.457 C39.466,44.502 39.648,44.39 39.691,44.213 L39.708,44.149 C39.753,43.971 39.641,43.788 39.464,43.745 M19.104,51.602 L16.848,51.049 L18.498,49.413 C18.626,49.283 18.629,49.073 18.498,48.943 L18.45,48.896 C18.322,48.764 18.11,48.764 17.98,48.893 L16.327,50.531 L15.777,48.271 C15.734,48.093 15.552,47.983 15.372,48.027 L15.308,48.043 C15.13,48.085 15.017,48.27 15.06,48.446 L15.626,50.752 L13.319,50.189 C13.142,50.146 12.959,50.254 12.914,50.434 L12.9,50.498 C12.853,50.679 12.967,50.859 13.145,50.901 L15.399,51.452 L13.752,53.086 C13.622,53.217 13.622,53.428 13.749,53.559 L13.797,53.606 C13.928,53.737 14.137,53.737 14.268,53.609 L15.919,51.967 L16.474,54.231 C16.517,54.409 16.699,54.52 16.876,54.475 L16.94,54.461 C17.121,54.416 17.233,54.236 17.187,54.058 L16.624,51.752 L18.929,52.314 C19.106,52.359 19.288,52.247 19.331,52.07 L19.348,52.006 C19.393,51.828 19.281,51.645 19.104,51.602"/>
    </g>
  </g>
</svg>
