<svg xmlns="http://www.w3.org/2000/svg" width="55" height="55" viewBox="0 0 55 55">
  <g fill="none" fill-rule="evenodd">
    <rect width="55" height="55"/>
    <path fill="#D5DCE2" d="M38.605,24.673 L37.705,24.259 L37.632,23.27 C37.396,20.087 34.708,17.593 31.511,17.593 C30.947,17.593 30.376,17.673 29.813,17.831 L28.826,18.107 L28.129,17.357 C26.584,15.695 24.396,14.742 22.125,14.742 C18.237,14.742 14.857,17.513 14.092,21.332 L13.913,22.226 L13.064,22.564 C10.199,23.699 8.274,26.528 8.274,29.604 C8.274,33.78 11.674,37.18 15.851,37.18 L35.879,37.18 C39.488,37.18 42.424,34.24 42.424,30.626 C42.423,28.078 40.925,25.741 38.605,24.673"/>
    <path fill="#7694B4" d="M33.349,13.315 C30.662,9.925 28.98,4.037 32.765,0.0399999991 C31.309,0.457999999 29.904,1.153 28.639,2.15 C26.481,3.848 25.225,6.177 24.748,8.641 C24.535,10.355 24.495,11.988 24.537,13.56 C26.338,14.021 27.995,14.98 29.279,16.358 L29.325,16.408 L29.388,16.39 C30.09,16.194 30.804,16.094 31.511,16.094 C35.464,16.094 38.785,19.136 39.169,23.048 C40.695,22.753 42.18,22.137 43.527,21.076 C44.795,20.081 45.799,18.881 46.547,17.561 C41.771,20.297 36.359,17.111 33.349,13.315"/>
    <g transform="translate(-3)">
      <rect width="55" height="55"/>
      <path fill="#009EFF" d="M18.105,45.229 C16.782,47.783 13.763,46.112 15.033,43.647 C16.111,41.552 18.701,40.285 18.701,40.285 C18.701,40.285 19.151,43.201 18.105,45.229 Z M20.139,53.04 C18.816,55.594 15.797,53.923 17.067,51.458 C18.145,49.363 20.735,48.096 20.735,48.096 C20.735,48.096 21.185,51.011 20.139,53.04 Z M41.131,45.229 C39.808,47.783 36.789,46.112 38.059,43.647 C39.137,41.552 41.727,40.285 41.727,40.285 C41.727,40.285 42.177,43.201 41.131,45.229 Z"/>
      <polygon fill="#FF7800" points="32.037 43.465 29.222 43.422 31.53 39.385 27.967 39.415 24.944 45.438 27.576 45.438 23.88 54.567"/>
      <path fill="#38C0E0" d="M13.247,51.555 C13.424,51.598 13.537,51.782 13.492,51.959 L13.475,52.023 C13.432,52.2 13.25,52.312 13.073,52.267 L10.768,51.705 L11.331,54.011 C11.376,54.189 11.264,54.369 11.083,54.414 L11.019,54.428 C10.842,54.473 10.66,54.362 10.617,54.184 L10.062,51.92 L8.411,53.562 C8.28,53.69 8.071,53.69 7.94,53.559 L7.892,53.512 C7.765,53.381 7.765,53.17 7.895,53.039 L9.542,51.405 L7.288,50.854 C7.11,50.812 6.996,50.632 7.043,50.451 L7.057,50.387 C7.102,50.207 7.285,50.099 7.462,50.142 L9.769,50.705 L9.203,48.399 C9.16,48.223 9.273,48.038 9.451,47.996 L9.515,47.98 C9.695,47.936 9.877,48.046 9.92,48.224 L10.47,50.484 L12.123,48.846 C12.253,48.717 12.465,48.717 12.593,48.849 L12.641,48.896 C12.772,49.026 12.769,49.236 12.641,49.366 L10.991,51.002 L13.247,51.555 Z M37.049,51.555 C37.226,51.598 37.338,51.782 37.293,51.959 L37.276,52.023 C37.233,52.2 37.051,52.312 36.874,52.267 L34.569,51.705 L35.132,54.011 C35.178,54.189 35.066,54.369 34.885,54.414 L34.821,54.428 C34.644,54.473 34.462,54.362 34.419,54.184 L33.864,51.92 L32.213,53.562 C32.082,53.69 31.873,53.69 31.742,53.559 L31.694,53.512 C31.567,53.381 31.567,53.17 31.697,53.039 L33.344,51.405 L31.09,50.854 C30.912,50.812 30.798,50.632 30.845,50.451 L30.859,50.387 C30.904,50.207 31.087,50.099 31.264,50.142 L33.571,50.705 L33.005,48.399 C32.962,48.223 33.075,48.038 33.253,47.996 L33.317,47.98 C33.497,47.936 33.679,48.046 33.722,48.224 L34.272,50.484 L35.925,48.846 C36.055,48.717 36.267,48.717 36.395,48.849 L36.443,48.896 C36.574,49.026 36.571,49.236 36.443,49.366 L34.793,51.002 L37.049,51.555 Z M45.553,51.555 C45.73,51.598 45.843,51.782 45.796,51.962 L45.779,52.026 C45.736,52.203 45.554,52.315 45.377,52.27 L43.072,51.708 L43.635,54.014 C43.681,54.192 43.569,54.372 43.388,54.417 L43.324,54.431 C43.147,54.476 42.965,54.365 42.922,54.187 L42.367,51.923 L40.716,53.565 C40.585,53.693 40.376,53.693 40.245,53.562 L40.197,53.515 C40.07,53.384 40.07,53.173 40.2,53.042 L41.848,51.405 L39.594,50.854 C39.416,50.812 39.302,50.632 39.349,50.451 L39.363,50.387 C39.408,50.207 39.591,50.099 39.768,50.142 L42.075,50.705 L41.509,48.399 C41.466,48.223 41.579,48.038 41.757,47.996 L41.821,47.98 C42.001,47.936 42.183,48.046 42.226,48.224 L42.776,50.484 L44.429,48.846 C44.559,48.717 44.771,48.717 44.899,48.849 L44.947,48.896 C45.078,49.026 45.075,49.236 44.947,49.366 L43.297,51.002 L45.553,51.555 Z"/>
    </g>
  </g>
</svg>
