<svg xmlns="http://www.w3.org/2000/svg" width="55" height="55" viewBox="0 0 55 55">
  <g fill="none" fill-rule="evenodd">
    <rect width="55" height="55"/>
    <path fill="#D5DCE2" d="M43.598,24.764 C45.915,25.84 47.406,28.18 47.4,30.728 C47.39,34.343 44.445,37.274 40.836,37.263 L20.808,37.204 C16.631,37.192 13.242,33.782 13.254,29.606 C13.263,26.53 15.196,23.707 18.065,22.58 L18.916,22.245 L19.097,21.351 C19.873,17.534 23.261,14.773 27.149,14.785 C29.419,14.792 31.605,15.752 33.145,17.418 L33.839,18.17 L34.827,17.897 C35.39,17.742 35.962,17.662 36.526,17.664 C39.723,17.673 42.404,20.175 42.63,23.36 L42.7,24.348 L43.598,24.764 Z M11.681,29.601 C11.678,30.577 11.833,31.518 12.116,32.403 C10.906,32.183 9.931,31.912 9.931,31.912 C6.379,30.659 3.896,27.131 4.258,23.086 C4.552,19.799 6.846,17.026 9.918,15.817 L10.601,15.548 L10.807,14.54 C11.855,9.379 17.144,5.93 22.56,7.541 C24.185,8.024 25.619,9.009 26.77,10.254 L27.419,10.957 C27.419,10.957 27.464,10.984 27.533,11.027 C29.108,10.279 30.968,10.248 32.628,11.16 C34.176,12.012 35.158,13.25 35.665,14.608 C35.72,14.755 35.953,15.603 35.911,16.136 C35.408,16.175 34.904,16.247 34.407,16.384 L34.343,16.402 L34.297,16.352 C32.461,14.366 29.857,13.223 27.152,13.215 C22.515,13.201 18.48,16.49 17.555,21.038 L17.544,21.096 L17.488,21.118 C14.025,22.478 11.692,25.887 11.681,29.601 Z"/>
    <path fill="#7694B4" d="M38.376,13.32 C35.699,9.922 34.035,4.029 37.831,0.044 C36.374,0.457 34.966,1.149 33.698,2.141 C31.535,3.833 30.272,6.158 29.788,8.621 C29.775,8.72 29.769,8.817 29.76,8.914 C29.836,8.912 29.913,8.897 29.989,8.898 C31.181,8.902 32.323,9.2 33.383,9.783 C35.16,10.76 36.458,12.238 37.137,14.059 C37.219,14.279 37.526,15.326 37.478,16.187 C37.922,16.245 38.35,16.339 38.767,16.47 C38.776,16.473 38.787,16.475 38.797,16.478 C39.188,16.602 39.562,16.755 39.924,16.938 C39.974,16.963 40.023,16.988 40.074,17.014 C40.388,17.181 40.688,17.365 40.975,17.573 C41.077,17.645 41.172,17.722 41.27,17.798 C41.496,17.978 41.713,18.163 41.918,18.368 C42.067,18.514 42.201,18.671 42.338,18.829 C42.475,18.99 42.613,19.148 42.736,19.32 C42.913,19.563 43.067,19.82 43.216,20.084 C43.28,20.199 43.352,20.31 43.409,20.428 C43.583,20.778 43.724,21.144 43.843,21.521 C43.86,21.576 43.883,21.627 43.899,21.682 C44.029,22.129 44.122,22.591 44.166,23.068 C45.692,22.779 47.181,22.166 48.53,21.11 C49.801,20.119 50.809,18.922 51.56,17.604 C46.777,20.327 41.374,17.125 38.376,13.32"/>
    <g>
      <rect width="55" height="55"/>
      <path fill="#009EFF" d="M19.1,45.229 C17.777,47.783 14.758,46.112 16.028,43.647 C17.106,41.552 19.696,40.285 19.696,40.285 C19.696,40.285 20.147,43.201 19.1,45.229 Z M26.171,53.163 C24.848,55.717 21.829,54.046 23.099,51.581 C24.177,49.486 26.767,48.219 26.767,48.219 C26.767,48.219 27.218,51.135 26.171,53.163 Z M39.37,45.229 C38.047,47.783 35.028,46.112 36.298,43.647 C37.376,41.552 39.966,40.285 39.966,40.285 C39.966,40.285 40.416,43.201 39.37,45.229 Z"/>
      <path fill="#38C0E0" d="M30.873,43.853 C31.05,43.897 31.162,44.08 31.117,44.257 L31.1,44.321 C31.057,44.498 30.875,44.61 30.698,44.565 L28.393,44.003 L28.956,46.309 C29.002,46.487 28.89,46.667 28.709,46.712 L28.645,46.726 C28.468,46.771 28.286,46.66 28.243,46.482 L27.688,44.218 L26.037,45.86 C25.906,45.988 25.697,45.988 25.566,45.857 L25.518,45.81 C25.391,45.679 25.391,45.468 25.521,45.337 L27.168,43.703 L24.914,43.152 C24.736,43.11 24.622,42.93 24.669,42.749 L24.683,42.685 C24.728,42.505 24.911,42.397 25.088,42.44 L27.395,43.003 L26.829,40.697 C26.786,40.521 26.899,40.336 27.077,40.294 L27.141,40.278 C27.321,40.234 27.503,40.344 27.546,40.522 L28.096,42.782 L29.749,41.144 C29.879,41.015 30.091,41.015 30.219,41.147 L30.267,41.194 C30.398,41.324 30.395,41.534 30.267,41.664 L28.617,43.3 L30.873,43.853 Z M37.943,51.679 C38.12,51.722 38.233,51.906 38.187,52.083 L38.17,52.147 C38.127,52.324 37.945,52.436 37.768,52.391 L35.463,51.829 L36.026,54.135 C36.072,54.313 35.96,54.493 35.779,54.538 L35.715,54.552 C35.538,54.597 35.356,54.486 35.313,54.308 L34.758,52.044 L33.107,53.686 C32.976,53.814 32.767,53.814 32.636,53.683 L32.588,53.636 C32.461,53.505 32.461,53.294 32.591,53.163 L34.238,51.529 L31.984,50.978 C31.806,50.936 31.692,50.756 31.739,50.575 L31.753,50.511 C31.798,50.331 31.981,50.223 32.158,50.266 L34.465,50.829 L33.899,48.523 C33.856,48.347 33.969,48.162 34.147,48.12 L34.211,48.104 C34.391,48.06 34.573,48.17 34.616,48.348 L35.166,50.608 L36.819,48.97 C36.949,48.841 37.161,48.841 37.289,48.973 L37.337,49.02 C37.468,49.15 37.465,49.36 37.337,49.49 L35.687,51.126 L37.943,51.679 Z M17.674,51.679 C17.851,51.722 17.963,51.906 17.919,52.083 L17.902,52.147 C17.859,52.324 17.677,52.436 17.5,52.391 L15.195,51.829 L15.758,54.135 C15.804,54.313 15.692,54.493 15.511,54.538 L15.447,54.552 C15.27,54.597 15.088,54.486 15.045,54.308 L14.49,52.044 L12.839,53.686 C12.708,53.814 12.499,53.814 12.368,53.683 L12.32,53.636 C12.193,53.505 12.193,53.294 12.323,53.163 L13.97,51.529 L11.716,50.978 C11.538,50.936 11.424,50.756 11.471,50.575 L11.485,50.511 C11.53,50.331 11.713,50.223 11.89,50.266 L14.197,50.829 L13.631,48.523 C13.587,48.347 13.7,48.162 13.878,48.12 L13.942,48.104 C14.122,48.06 14.304,48.17 14.347,48.348 L14.897,50.608 L16.55,48.97 C16.68,48.841 16.892,48.841 17.02,48.973 L17.068,49.02 C17.199,49.15 17.196,49.36 17.068,49.49 L15.418,51.126 L17.674,51.679 Z"/>
    </g>
  </g>
</svg>
