<svg xmlns="http://www.w3.org/2000/svg" width="55" height="55" viewBox="0 0 55 55">
  <g fill="none" fill-rule="evenodd">
    <rect width="55" height="55"/>
    <path fill="#D5DCE2" d="M43.598,24.764 C45.915,25.84 47.406,28.18 47.4,30.728 C47.39,34.343 44.445,37.274 40.836,37.263 L20.808,37.204 C16.631,37.192 13.242,33.782 13.254,29.606 C13.263,26.53 15.196,23.707 18.065,22.58 L18.916,22.245 L19.097,21.351 C19.873,17.534 23.261,14.773 27.149,14.785 C29.419,14.792 31.605,15.752 33.145,17.418 L33.839,18.17 L34.827,17.897 C35.39,17.742 35.962,17.662 36.526,17.664 C39.723,17.673 42.404,20.175 42.63,23.36 L42.7,24.348 L43.598,24.764 Z M11.681,29.601 C11.678,30.577 11.833,31.518 12.116,32.403 C10.906,32.183 9.931,31.912 9.931,31.912 C6.379,30.659 3.896,27.131 4.258,23.086 C4.552,19.799 6.846,17.026 9.918,15.817 L10.601,15.548 L10.807,14.54 C11.855,9.379 17.144,5.93 22.56,7.541 C24.185,8.024 25.619,9.009 26.77,10.254 L27.419,10.957 C27.419,10.957 27.464,10.984 27.533,11.027 C29.108,10.279 30.968,10.248 32.628,11.16 C34.176,12.012 35.158,13.25 35.665,14.608 C35.72,14.755 35.953,15.603 35.911,16.136 C35.408,16.175 34.904,16.247 34.407,16.384 L34.343,16.402 L34.297,16.352 C32.461,14.366 29.857,13.223 27.152,13.215 C22.515,13.201 18.48,16.49 17.555,21.038 L17.544,21.096 L17.488,21.118 C14.025,22.478 11.692,25.887 11.681,29.601 Z"/>
    <path fill="#7694B4" d="M38.376,13.32 C35.699,9.922 34.035,4.029 37.831,0.044 C36.374,0.457 34.966,1.149 33.698,2.141 C31.535,3.833 30.272,6.158 29.788,8.621 C29.775,8.72 29.769,8.817 29.76,8.914 C29.836,8.912 29.913,8.897 29.989,8.898 C31.181,8.902 32.323,9.2 33.383,9.783 C35.16,10.76 36.458,12.238 37.137,14.059 C37.219,14.279 37.526,15.326 37.478,16.187 C37.922,16.245 38.35,16.339 38.767,16.47 C38.776,16.473 38.787,16.475 38.797,16.478 C39.188,16.602 39.562,16.755 39.924,16.938 C39.974,16.963 40.023,16.988 40.074,17.014 C40.388,17.181 40.688,17.365 40.975,17.573 C41.077,17.645 41.172,17.722 41.27,17.798 C41.496,17.978 41.713,18.163 41.918,18.368 C42.067,18.514 42.201,18.671 42.338,18.829 C42.475,18.99 42.613,19.148 42.736,19.32 C42.913,19.563 43.067,19.82 43.216,20.084 C43.28,20.199 43.352,20.31 43.409,20.428 C43.583,20.778 43.724,21.144 43.843,21.521 C43.86,21.576 43.883,21.627 43.899,21.682 C44.029,22.129 44.122,22.591 44.166,23.068 C45.692,22.779 47.181,22.166 48.53,21.11 C49.801,20.119 50.809,18.922 51.56,17.604 C46.777,20.327 41.374,17.125 38.376,13.32"/>
    <g>
      <rect width="55" height="55"/>
      <polygon fill="#FF7800" points="32.037 43.465 29.222 43.422 31.53 39.385 27.967 39.415 24.944 45.438 27.576 45.438 23.88 54.567"/>
      <path fill="#009EFF" d="M20.461,45.229 C19.138,47.783 16.119,46.112 17.389,43.647 C18.467,41.552 21.057,40.285 21.057,40.285 C21.057,40.285 21.507,43.201 20.461,45.229 Z M36.931,53.086 C35.608,55.64 32.589,53.969 33.859,51.504 C34.937,49.409 37.527,48.142 37.527,48.142 C37.527,48.142 37.977,51.058 36.931,53.086 Z"/>
      <path fill="#38C0E0" d="M21.076,51.602 C21.253,51.645 21.366,51.828 21.321,52.006 L21.304,52.07 C21.261,52.247 21.079,52.359 20.902,52.314 L18.597,51.752 L19.16,54.058 C19.206,54.236 19.094,54.416 18.913,54.461 L18.849,54.475 C18.672,54.52 18.49,54.409 18.447,54.231 L17.892,51.967 L16.241,53.609 C16.11,53.737 15.901,53.737 15.77,53.606 L15.722,53.559 C15.595,53.428 15.595,53.217 15.725,53.086 L17.372,51.452 L15.118,50.901 C14.94,50.859 14.826,50.679 14.873,50.498 L14.887,50.434 C14.932,50.254 15.115,50.146 15.292,50.189 L17.599,50.752 L17.033,48.446 C16.989,48.27 17.102,48.085 17.28,48.043 L17.344,48.027 C17.524,47.983 17.706,48.093 17.749,48.271 L18.299,50.531 L19.952,48.893 C20.082,48.764 20.294,48.764 20.422,48.896 L20.47,48.943 C20.601,49.073 20.598,49.283 20.47,49.413 L18.82,51.049 L21.076,51.602 Z M41.31,43.745 C41.487,43.788 41.599,43.971 41.555,44.149 L41.538,44.213 C41.495,44.39 41.313,44.502 41.136,44.457 L38.831,43.895 L39.394,46.201 C39.439,46.379 39.327,46.559 39.146,46.604 L39.082,46.618 C38.905,46.663 38.723,46.552 38.68,46.374 L38.125,44.11 L36.474,45.752 C36.343,45.88 36.134,45.88 36.003,45.749 L35.955,45.702 C35.828,45.571 35.828,45.36 35.958,45.229 L37.605,43.595 L35.351,43.044 C35.173,43.002 35.059,42.822 35.106,42.641 L35.12,42.577 C35.165,42.397 35.348,42.289 35.525,42.332 L37.832,42.895 L37.266,40.589 C37.223,40.413 37.336,40.228 37.514,40.186 L37.578,40.17 C37.758,40.126 37.94,40.236 37.983,40.414 L38.533,42.674 L40.186,41.036 C40.316,40.907 40.528,40.907 40.656,41.039 L40.704,41.086 C40.835,41.216 40.832,41.426 40.704,41.556 L39.054,43.192 L41.31,43.745 Z"/>
    </g>
  </g>
</svg>
