<svg xmlns="http://www.w3.org/2000/svg" width="55" height="55" viewBox="0 0 55 55">
  <g fill="none" fill-rule="evenodd">
    <rect width="55" height="55"/>
    <path fill="#D5DCE2" d="M43.598,24.764 C45.915,25.84 47.406,28.18 47.4,30.728 C47.39,34.343 44.445,37.274 40.836,37.263 L20.808,37.204 C16.631,37.192 13.242,33.782 13.254,29.606 C13.263,26.53 15.196,23.707 18.065,22.58 L18.916,22.245 L19.097,21.351 C19.873,17.534 23.261,14.773 27.149,14.785 C29.419,14.792 31.605,15.752 33.145,17.418 L33.839,18.17 L34.827,17.897 C35.39,17.742 35.962,17.662 36.526,17.664 C39.723,17.673 42.404,20.175 42.63,23.36 L42.7,24.348 L43.598,24.764 Z M11.681,29.601 C11.678,30.577 11.833,31.518 12.116,32.403 C10.906,32.183 9.931,31.912 9.931,31.912 C6.379,30.659 3.896,27.131 4.258,23.086 C4.552,19.799 6.846,17.026 9.918,15.817 L10.601,15.548 L10.807,14.54 C11.855,9.379 17.144,5.93 22.56,7.541 C24.185,8.024 25.619,9.009 26.77,10.254 L27.419,10.957 C27.419,10.957 27.464,10.984 27.533,11.027 C29.108,10.279 30.968,10.248 32.628,11.16 C34.176,12.012 35.158,13.25 35.665,14.608 C35.72,14.755 35.953,15.603 35.911,16.136 C35.408,16.175 34.904,16.247 34.407,16.384 L34.343,16.402 L34.297,16.352 C32.461,14.366 29.857,13.223 27.152,13.215 C22.515,13.201 18.48,16.49 17.555,21.038 L17.544,21.096 L17.488,21.118 C14.025,22.478 11.692,25.887 11.681,29.601 Z"/>
    <path fill="#7694B4" d="M38.376,13.32 C35.699,9.922 34.035,4.029 37.831,0.044 C36.374,0.457 34.966,1.149 33.698,2.141 C31.535,3.833 30.272,6.158 29.788,8.621 C29.775,8.72 29.769,8.817 29.76,8.914 C29.836,8.912 29.913,8.897 29.989,8.898 C31.181,8.902 32.323,9.2 33.383,9.783 C35.16,10.76 36.458,12.238 37.137,14.059 C37.219,14.279 37.526,15.326 37.478,16.187 C37.922,16.245 38.35,16.339 38.767,16.47 C38.776,16.473 38.787,16.475 38.797,16.478 C39.188,16.602 39.562,16.755 39.924,16.938 C39.974,16.963 40.023,16.988 40.074,17.014 C40.388,17.181 40.688,17.365 40.975,17.573 C41.077,17.645 41.172,17.722 41.27,17.798 C41.496,17.978 41.713,18.163 41.918,18.368 C42.067,18.514 42.201,18.671 42.338,18.829 C42.475,18.99 42.613,19.148 42.736,19.32 C42.913,19.563 43.067,19.82 43.216,20.084 C43.28,20.199 43.352,20.31 43.409,20.428 C43.583,20.778 43.724,21.144 43.843,21.521 C43.86,21.576 43.883,21.627 43.899,21.682 C44.029,22.129 44.122,22.591 44.166,23.068 C45.692,22.779 47.181,22.166 48.53,21.11 C49.801,20.119 50.809,18.922 51.56,17.604 C46.777,20.327 41.374,17.125 38.376,13.32"/>
    <g>
      <rect width="55" height="55"/>
      <path fill="#38C0E0" d="M21.576,43.745 C21.753,43.788 21.866,43.971 21.821,44.149 L21.804,44.213 C21.761,44.39 21.579,44.502 21.402,44.457 L19.097,43.895 L19.66,46.201 C19.706,46.379 19.594,46.559 19.413,46.604 L19.349,46.618 C19.172,46.663 18.99,46.552 18.947,46.374 L18.392,44.11 L16.741,45.752 C16.61,45.88 16.401,45.88 16.27,45.749 L16.222,45.702 C16.095,45.571 16.095,45.36 16.225,45.229 L17.872,43.595 L15.618,43.044 C15.44,43.002 15.326,42.822 15.373,42.641 L15.387,42.577 C15.432,42.397 15.615,42.289 15.792,42.332 L18.099,42.895 L17.533,40.589 C17.489,40.413 17.602,40.228 17.78,40.186 L17.844,40.17 C18.024,40.126 18.206,40.236 18.249,40.414 L18.799,42.674 L20.452,41.036 C20.582,40.907 20.794,40.907 20.922,41.039 L20.97,41.086 C21.101,41.216 21.098,41.426 20.97,41.556 L19.32,43.192 L21.576,43.745 Z M37.36,51.602 C37.537,51.645 37.65,51.828 37.604,52.006 L37.587,52.07 C37.544,52.247 37.362,52.359 37.185,52.314 L34.88,51.752 L35.443,54.058 C35.489,54.236 35.377,54.416 35.196,54.461 L35.132,54.475 C34.955,54.52 34.773,54.409 34.73,54.231 L34.175,51.967 L32.524,53.609 C32.393,53.737 32.184,53.737 32.053,53.606 L32.005,53.559 C31.878,53.428 31.878,53.217 32.008,53.086 L33.655,51.452 L31.401,50.901 C31.223,50.859 31.109,50.679 31.156,50.498 L31.17,50.434 C31.215,50.254 31.398,50.146 31.575,50.189 L33.882,50.752 L33.316,48.446 C33.273,48.27 33.386,48.085 33.564,48.043 L33.628,48.027 C33.808,47.983 33.99,48.093 34.033,48.271 L34.583,50.531 L36.236,48.893 C36.366,48.764 36.578,48.764 36.706,48.896 L36.754,48.943 C36.885,49.073 36.882,49.283 36.754,49.413 L35.104,51.049 L37.36,51.602 Z M27.332,51.602 C27.509,51.645 27.622,51.828 27.576,52.006 L27.559,52.07 C27.516,52.247 27.334,52.359 27.157,52.314 L24.852,51.752 L25.415,54.058 C25.461,54.236 25.349,54.416 25.168,54.461 L25.104,54.475 C24.927,54.52 24.745,54.409 24.702,54.231 L24.147,51.967 L22.496,53.609 C22.365,53.737 22.156,53.737 22.025,53.606 L21.977,53.559 C21.85,53.428 21.85,53.217 21.98,53.086 L23.627,51.452 L21.373,50.901 C21.195,50.859 21.081,50.679 21.128,50.498 L21.142,50.434 C21.187,50.254 21.37,50.146 21.547,50.189 L23.854,50.752 L23.288,48.446 C23.245,48.27 23.358,48.085 23.536,48.043 L23.6,48.027 C23.78,47.983 23.962,48.093 24.005,48.271 L24.555,50.531 L26.208,48.893 C26.338,48.764 26.55,48.764 26.678,48.896 L26.726,48.943 C26.857,49.073 26.854,49.283 26.726,49.413 L25.076,51.049 L27.332,51.602 Z M16.068,51.602 C16.245,51.645 16.357,51.828 16.313,52.006 L16.296,52.07 C16.253,52.247 16.071,52.359 15.894,52.314 L13.589,51.752 L14.152,54.058 C14.197,54.236 14.085,54.416 13.904,54.461 L13.84,54.475 C13.663,54.52 13.481,54.409 13.438,54.231 L12.883,51.967 L11.232,53.609 C11.101,53.737 10.892,53.737 10.761,53.606 L10.713,53.559 C10.586,53.428 10.586,53.217 10.716,53.086 L12.363,51.452 L10.109,50.901 C9.931,50.859 9.817,50.679 9.864,50.498 L9.878,50.434 C9.923,50.254 10.106,50.146 10.283,50.189 L12.59,50.752 L12.024,48.446 C11.981,48.27 12.094,48.085 12.272,48.043 L12.336,48.027 C12.516,47.983 12.698,48.093 12.741,48.271 L13.291,50.531 L14.944,48.893 C15.074,48.764 15.286,48.764 15.414,48.896 L15.462,48.943 C15.593,49.073 15.59,49.283 15.462,49.413 L13.812,51.049 L16.068,51.602 Z M42.869,43.745 C43.046,43.788 43.158,43.971 43.113,44.149 L43.096,44.213 C43.053,44.39 42.871,44.502 42.694,44.457 L40.389,43.895 L40.952,46.201 C40.998,46.379 40.886,46.559 40.705,46.604 L40.641,46.618 C40.464,46.663 40.282,46.552 40.239,46.374 L39.684,44.11 L38.033,45.752 C37.902,45.88 37.693,45.88 37.562,45.749 L37.514,45.702 C37.387,45.571 37.387,45.36 37.517,45.229 L39.164,43.595 L36.91,43.044 C36.732,43.002 36.618,42.822 36.665,42.641 L36.679,42.577 C36.724,42.397 36.907,42.289 37.084,42.332 L39.391,42.895 L38.825,40.589 C38.782,40.413 38.895,40.228 39.073,40.186 L39.137,40.17 C39.317,40.126 39.499,40.236 39.542,40.414 L40.092,42.674 L41.745,41.036 C41.875,40.907 42.087,40.907 42.215,41.039 L42.263,41.086 C42.394,41.216 42.391,41.426 42.263,41.556 L40.613,43.192 L42.869,43.745 Z M32.223,43.745 C32.399,43.788 32.512,43.971 32.467,44.149 L32.45,44.213 C32.407,44.39 32.225,44.502 32.048,44.457 L29.743,43.895 L30.306,46.201 C30.352,46.379 30.24,46.559 30.059,46.604 L29.995,46.618 C29.818,46.663 29.636,46.552 29.593,46.374 L29.038,44.11 L27.387,45.752 C27.256,45.88 27.047,45.88 26.916,45.749 L26.868,45.702 C26.741,45.571 26.741,45.36 26.871,45.229 L28.518,43.595 L26.264,43.044 C26.086,43.002 25.972,42.822 26.019,42.641 L26.033,42.577 C26.078,42.397 26.261,42.289 26.438,42.332 L28.745,42.895 L28.179,40.589 C28.136,40.413 28.249,40.228 28.427,40.186 L28.491,40.17 C28.671,40.126 28.853,40.236 28.896,40.414 L29.446,42.674 L31.099,41.036 C31.229,40.907 31.441,40.907 31.569,41.039 L31.617,41.086 C31.748,41.216 31.745,41.426 31.617,41.556 L29.967,43.192 L32.223,43.745 Z"/>
    </g>
  </g>
</svg>
