<svg xmlns="http://www.w3.org/2000/svg" width="55" height="55" viewBox="0 0 55 55">
  <g fill="none" fill-rule="evenodd">
    <rect width="55" height="55"/>
    <path fill="#D5DCE2" d="M43.598,24.764 C45.915,25.84 47.406,28.18 47.4,30.728 C47.39,34.343 44.445,37.274 40.836,37.263 L20.808,37.204 C16.631,37.192 13.242,33.782 13.254,29.606 C13.263,26.53 15.196,23.707 18.065,22.58 L18.916,22.245 L19.097,21.351 C19.873,17.534 23.261,14.773 27.149,14.785 C29.419,14.792 31.605,15.752 33.145,17.418 L33.839,18.17 L34.827,17.897 C35.39,17.742 35.962,17.662 36.526,17.664 C39.723,17.673 42.404,20.175 42.63,23.36 L42.7,24.348 L43.598,24.764 Z M11.681,29.601 C11.678,30.577 11.833,31.518 12.116,32.403 C10.906,32.183 9.931,31.912 9.931,31.912 C6.379,30.659 3.896,27.131 4.258,23.086 C4.552,19.799 6.846,17.026 9.918,15.817 L10.601,15.548 L10.807,14.54 C11.855,9.379 17.144,5.93 22.56,7.541 C24.185,8.024 25.619,9.009 26.77,10.254 L27.419,10.957 C27.419,10.957 27.464,10.984 27.533,11.027 C29.108,10.279 30.968,10.248 32.628,11.16 C34.176,12.012 35.158,13.25 35.665,14.608 C35.72,14.755 35.953,15.603 35.911,16.136 C35.408,16.175 34.904,16.247 34.407,16.384 L34.343,16.402 L34.297,16.352 C32.461,14.366 29.857,13.223 27.152,13.215 C22.515,13.201 18.48,16.49 17.555,21.038 L17.544,21.096 L17.488,21.118 C14.025,22.478 11.692,25.887 11.681,29.601 Z"/>
    <path fill="#7694B4" d="M38.376,13.32 C35.699,9.922 34.035,4.029 37.831,0.044 C36.374,0.457 34.966,1.149 33.698,2.141 C31.535,3.833 30.272,6.158 29.788,8.621 C29.775,8.72 29.769,8.817 29.76,8.914 C29.836,8.912 29.913,8.897 29.989,8.898 C31.181,8.902 32.323,9.2 33.383,9.783 C35.16,10.76 36.458,12.238 37.137,14.059 C37.219,14.279 37.526,15.326 37.478,16.187 C37.922,16.245 38.35,16.339 38.767,16.47 C38.776,16.473 38.787,16.475 38.797,16.478 C39.188,16.602 39.562,16.755 39.924,16.938 C39.974,16.963 40.023,16.988 40.074,17.014 C40.388,17.181 40.688,17.365 40.975,17.573 C41.077,17.645 41.172,17.722 41.27,17.798 C41.496,17.978 41.713,18.163 41.918,18.368 C42.067,18.514 42.201,18.671 42.338,18.829 C42.475,18.99 42.613,19.148 42.736,19.32 C42.913,19.563 43.067,19.82 43.216,20.084 C43.28,20.199 43.352,20.31 43.409,20.428 C43.583,20.778 43.724,21.144 43.843,21.521 C43.86,21.576 43.883,21.627 43.899,21.682 C44.029,22.129 44.122,22.591 44.166,23.068 C45.692,22.779 47.181,22.166 48.53,21.11 C49.801,20.119 50.809,18.922 51.56,17.604 C46.777,20.327 41.374,17.125 38.376,13.32"/>
    <g>
      <rect width="55" height="55"/>
      <path fill="#009EFF" d="M31.073,53.086 C29.75,55.64 26.731,53.969 28.001,51.504 C29.079,49.409 31.669,48.142 31.669,48.142 C31.669,48.142 32.119,51.058 31.073,53.086 Z M22.578,45.229 C21.255,47.783 18.236,46.112 19.506,43.647 C20.584,41.552 23.174,40.285 23.174,40.285 C23.174,40.285 23.624,43.201 22.578,45.229 Z"/>
      <path fill="#38C0E0" d="M39.464,43.745 L37.208,43.192 L38.858,41.556 C38.986,41.426 38.989,41.216 38.858,41.086 L38.81,41.039 C38.682,40.907 38.47,40.907 38.34,41.036 L36.687,42.674 L36.137,40.414 C36.094,40.236 35.912,40.126 35.732,40.17 L35.668,40.186 C35.49,40.228 35.377,40.413 35.42,40.589 L35.986,42.895 L33.679,42.332 C33.502,42.289 33.319,42.397 33.274,42.577 L33.26,42.641 C33.213,42.822 33.327,43.002 33.505,43.044 L35.759,43.595 L34.112,45.229 C33.982,45.36 33.982,45.571 34.109,45.702 L34.157,45.749 C34.288,45.88 34.497,45.88 34.628,45.752 L36.279,44.11 L36.834,46.374 C36.877,46.552 37.059,46.663 37.236,46.618 L37.3,46.604 C37.481,46.559 37.593,46.379 37.547,46.201 L36.984,43.895 L39.289,44.457 C39.466,44.502 39.648,44.39 39.691,44.213 L39.708,44.149 C39.753,43.971 39.641,43.788 39.464,43.745 M19.104,51.602 L16.848,51.049 L18.498,49.413 C18.626,49.283 18.629,49.073 18.498,48.943 L18.45,48.896 C18.322,48.764 18.11,48.764 17.98,48.893 L16.327,50.531 L15.777,48.271 C15.734,48.093 15.552,47.983 15.372,48.027 L15.308,48.043 C15.13,48.085 15.017,48.27 15.06,48.446 L15.626,50.752 L13.319,50.189 C13.142,50.146 12.959,50.254 12.914,50.434 L12.9,50.498 C12.853,50.679 12.967,50.859 13.145,50.901 L15.399,51.452 L13.752,53.086 C13.622,53.217 13.622,53.428 13.749,53.559 L13.797,53.606 C13.928,53.737 14.137,53.737 14.268,53.609 L15.919,51.967 L16.474,54.231 C16.517,54.409 16.699,54.52 16.876,54.475 L16.94,54.461 C17.121,54.416 17.233,54.236 17.187,54.058 L16.624,51.752 L18.929,52.314 C19.106,52.359 19.288,52.247 19.331,52.07 L19.348,52.006 C19.393,51.828 19.281,51.645 19.104,51.602"/>
    </g>
  </g>
</svg>
