<svg xmlns="http://www.w3.org/2000/svg" width="55" height="53" viewBox="0 0 55 53">
  <g fill="none" fill-rule="evenodd">
    <g transform="translate(0 -2)">
      <rect width="55" height="55"/>
      <path fill="#D5DCE2" d="M43.2134605,24.852 C45.5344605,25.921 47.0324605,28.257 47.0324605,30.805 C47.0324605,34.419 44.0964605,37.359 40.4874605,37.359 L20.4594605,37.359 C16.2824605,37.359 12.8824605,33.959 12.8824605,29.783 C12.8824605,26.707 14.8074605,23.878 17.6724605,22.743 L18.5224605,22.405 L18.7004605,21.511 C19.4654605,17.692 22.8454605,14.921 26.7334605,14.921 C29.0044605,14.921 31.1924605,15.874 32.7374605,17.536 L33.4344605,18.286 L34.4214605,18.01 C34.9844605,17.852 35.5554605,17.772 36.1194605,17.772 C39.3164605,17.772 42.0044605,20.266 42.2404605,23.449 L42.3134605,24.438 L43.2134605,24.852 Z M42.0944605,12.966 C47.0844605,13.943 50.8514605,18.335 50.8524605,23.61 C50.8524605,26.118 49.9934605,28.42 48.5644605,30.257 C48.3624605,27.316 46.5794605,24.671 43.8724605,23.424 L43.8134605,23.397 L43.8084605,23.333 C43.5594605,19.974 41.1274605,17.252 37.9794605,16.458 L37.9384605,16.066 C37.6564605,13.312 35.7264605,10.792 32.9004605,9.486 C31.6674605,8.918 30.3264605,8.618 29.0224605,8.618 C28.0404605,8.618 27.0884605,8.784 26.2164605,9.105 C24.9354605,8.047 23.4664605,7.299 21.9134605,6.896 C23.9494605,4.118 27.2254605,2.306 30.9344605,2.306 C36.9344605,2.306 41.8164605,7.034 42.0944605,12.966 Z M11.3114605,29.783 C11.3114605,30.76 11.4684605,31.7 11.7544605,32.584 C11.5014605,32.585 11.3354605,32.585 11.3234605,32.584 C7.00646053,31.991 3.73746053,28.073 4.20446053,23.504 C4.52646053,20.339 6.78646053,17.701 9.74246053,16.528 L10.2754605,16.317 C10.3124605,16.303 10.3384605,16.271 10.3464605,16.232 L10.4534605,15.696 C10.9994605,12.969 12.6214605,10.503 15.0694605,9.182 C18.6554605,7.246 22.7564605,8.1 25.5234605,10.58 C25.6624605,10.704 25.7864605,10.838 25.9134605,10.969 C27.6404605,9.992 30.0204605,9.888 32.2424605,10.913 C34.6394605,12.02 36.1604605,14.119 36.3754605,16.227 C36.2894605,16.223 36.2074605,16.202 36.1214605,16.202 C35.4144605,16.202 34.6994605,16.302 33.9984605,16.498 L33.9344605,16.516 L33.8884605,16.466 C32.0474605,14.486 29.4394605,13.351 26.7344605,13.351 C22.0974605,13.351 18.0714605,16.652 17.1604605,21.203 L17.1484605,21.261 L17.0934605,21.283 C13.6344605,22.653 11.3114605,26.069 11.3114605,29.783 Z"/>
    </g>
    <g transform="translate(0 -2)">
      <rect width="55" height="55"/>
      <path fill="#009EFF" d="M31.073,53.086 C29.75,55.64 26.731,53.969 28.001,51.504 C29.079,49.409 31.669,48.142 31.669,48.142 C31.669,48.142 32.119,51.058 31.073,53.086 Z M22.578,45.229 C21.255,47.783 18.236,46.112 19.506,43.647 C20.584,41.552 23.174,40.285 23.174,40.285 C23.174,40.285 23.624,43.201 22.578,45.229 Z"/>
      <path fill="#38C0E0" d="M39.464,43.745 L37.208,43.192 L38.858,41.556 C38.986,41.426 38.989,41.216 38.858,41.086 L38.81,41.039 C38.682,40.907 38.47,40.907 38.34,41.036 L36.687,42.674 L36.137,40.414 C36.094,40.236 35.912,40.126 35.732,40.17 L35.668,40.186 C35.49,40.228 35.377,40.413 35.42,40.589 L35.986,42.895 L33.679,42.332 C33.502,42.289 33.319,42.397 33.274,42.577 L33.26,42.641 C33.213,42.822 33.327,43.002 33.505,43.044 L35.759,43.595 L34.112,45.229 C33.982,45.36 33.982,45.571 34.109,45.702 L34.157,45.749 C34.288,45.88 34.497,45.88 34.628,45.752 L36.279,44.11 L36.834,46.374 C36.877,46.552 37.059,46.663 37.236,46.618 L37.3,46.604 C37.481,46.559 37.593,46.379 37.547,46.201 L36.984,43.895 L39.289,44.457 C39.466,44.502 39.648,44.39 39.691,44.213 L39.708,44.149 C39.753,43.971 39.641,43.788 39.464,43.745 M19.104,51.602 L16.848,51.049 L18.498,49.413 C18.626,49.283 18.629,49.073 18.498,48.943 L18.45,48.896 C18.322,48.764 18.11,48.764 17.98,48.893 L16.327,50.531 L15.777,48.271 C15.734,48.093 15.552,47.983 15.372,48.027 L15.308,48.043 C15.13,48.085 15.017,48.27 15.06,48.446 L15.626,50.752 L13.319,50.189 C13.142,50.146 12.959,50.254 12.914,50.434 L12.9,50.498 C12.853,50.679 12.967,50.859 13.145,50.901 L15.399,51.452 L13.752,53.086 C13.622,53.217 13.622,53.428 13.749,53.559 L13.797,53.606 C13.928,53.737 14.137,53.737 14.268,53.609 L15.919,51.967 L16.474,54.231 C16.517,54.409 16.699,54.52 16.876,54.475 L16.94,54.461 C17.121,54.416 17.233,54.236 17.187,54.058 L16.624,51.752 L18.929,52.314 C19.106,52.359 19.288,52.247 19.331,52.07 L19.348,52.006 C19.393,51.828 19.281,51.645 19.104,51.602"/>
    </g>
  </g>
</svg>
