<svg xmlns="http://www.w3.org/2000/svg" width="55" height="53" viewBox="0 0 55 53">
  <g fill="none" fill-rule="evenodd">
    <g transform="translate(0 -2)">
      <rect width="55" height="55"/>
      <path fill="#D5DCE2" d="M43.2134605,24.852 C45.5344605,25.921 47.0324605,28.257 47.0324605,30.805 C47.0324605,34.419 44.0964605,37.359 40.4874605,37.359 L20.4594605,37.359 C16.2824605,37.359 12.8824605,33.959 12.8824605,29.783 C12.8824605,26.707 14.8074605,23.878 17.6724605,22.743 L18.5224605,22.405 L18.7004605,21.511 C19.4654605,17.692 22.8454605,14.921 26.7334605,14.921 C29.0044605,14.921 31.1924605,15.874 32.7374605,17.536 L33.4344605,18.286 L34.4214605,18.01 C34.9844605,17.852 35.5554605,17.772 36.1194605,17.772 C39.3164605,17.772 42.0044605,20.266 42.2404605,23.449 L42.3134605,24.438 L43.2134605,24.852 Z M42.0944605,12.966 C47.0844605,13.943 50.8514605,18.335 50.8524605,23.61 C50.8524605,26.118 49.9934605,28.42 48.5644605,30.257 C48.3624605,27.316 46.5794605,24.671 43.8724605,23.424 L43.8134605,23.397 L43.8084605,23.333 C43.5594605,19.974 41.1274605,17.252 37.9794605,16.458 L37.9384605,16.066 C37.6564605,13.312 35.7264605,10.792 32.9004605,9.486 C31.6674605,8.918 30.3264605,8.618 29.0224605,8.618 C28.0404605,8.618 27.0884605,8.784 26.2164605,9.105 C24.9354605,8.047 23.4664605,7.299 21.9134605,6.896 C23.9494605,4.118 27.2254605,2.306 30.9344605,2.306 C36.9344605,2.306 41.8164605,7.034 42.0944605,12.966 Z M11.3114605,29.783 C11.3114605,30.76 11.4684605,31.7 11.7544605,32.584 C11.5014605,32.585 11.3354605,32.585 11.3234605,32.584 C7.00646053,31.991 3.73746053,28.073 4.20446053,23.504 C4.52646053,20.339 6.78646053,17.701 9.74246053,16.528 L10.2754605,16.317 C10.3124605,16.303 10.3384605,16.271 10.3464605,16.232 L10.4534605,15.696 C10.9994605,12.969 12.6214605,10.503 15.0694605,9.182 C18.6554605,7.246 22.7564605,8.1 25.5234605,10.58 C25.6624605,10.704 25.7864605,10.838 25.9134605,10.969 C27.6404605,9.992 30.0204605,9.888 32.2424605,10.913 C34.6394605,12.02 36.1604605,14.119 36.3754605,16.227 C36.2894605,16.223 36.2074605,16.202 36.1214605,16.202 C35.4144605,16.202 34.6994605,16.302 33.9984605,16.498 L33.9344605,16.516 L33.8884605,16.466 C32.0474605,14.486 29.4394605,13.351 26.7344605,13.351 C22.0974605,13.351 18.0714605,16.652 17.1604605,21.203 L17.1484605,21.261 L17.0934605,21.283 C13.6344605,22.653 11.3114605,26.069 11.3114605,29.783 Z"/>
    </g>
    <g transform="translate(0 -2)">
      <rect width="55" height="55"/>
      <polygon fill="#FF7800" points="32.037 43.465 29.222 43.422 31.53 39.385 27.967 39.415 24.944 45.438 27.576 45.438 23.88 54.567"/>
      <path fill="#009EFF" d="M20.461,45.229 C19.138,47.783 16.119,46.112 17.389,43.647 C18.467,41.552 21.057,40.285 21.057,40.285 C21.057,40.285 21.507,43.201 20.461,45.229 Z M36.931,53.086 C35.608,55.64 32.589,53.969 33.859,51.504 C34.937,49.409 37.527,48.142 37.527,48.142 C37.527,48.142 37.977,51.058 36.931,53.086 Z"/>
      <path fill="#38C0E0" d="M21.076,51.602 C21.253,51.645 21.366,51.828 21.321,52.006 L21.304,52.07 C21.261,52.247 21.079,52.359 20.902,52.314 L18.597,51.752 L19.16,54.058 C19.206,54.236 19.094,54.416 18.913,54.461 L18.849,54.475 C18.672,54.52 18.49,54.409 18.447,54.231 L17.892,51.967 L16.241,53.609 C16.11,53.737 15.901,53.737 15.77,53.606 L15.722,53.559 C15.595,53.428 15.595,53.217 15.725,53.086 L17.372,51.452 L15.118,50.901 C14.94,50.859 14.826,50.679 14.873,50.498 L14.887,50.434 C14.932,50.254 15.115,50.146 15.292,50.189 L17.599,50.752 L17.033,48.446 C16.989,48.27 17.102,48.085 17.28,48.043 L17.344,48.027 C17.524,47.983 17.706,48.093 17.749,48.271 L18.299,50.531 L19.952,48.893 C20.082,48.764 20.294,48.764 20.422,48.896 L20.47,48.943 C20.601,49.073 20.598,49.283 20.47,49.413 L18.82,51.049 L21.076,51.602 Z M41.31,43.745 C41.487,43.788 41.599,43.971 41.555,44.149 L41.538,44.213 C41.495,44.39 41.313,44.502 41.136,44.457 L38.831,43.895 L39.394,46.201 C39.439,46.379 39.327,46.559 39.146,46.604 L39.082,46.618 C38.905,46.663 38.723,46.552 38.68,46.374 L38.125,44.11 L36.474,45.752 C36.343,45.88 36.134,45.88 36.003,45.749 L35.955,45.702 C35.828,45.571 35.828,45.36 35.958,45.229 L37.605,43.595 L35.351,43.044 C35.173,43.002 35.059,42.822 35.106,42.641 L35.12,42.577 C35.165,42.397 35.348,42.289 35.525,42.332 L37.832,42.895 L37.266,40.589 C37.223,40.413 37.336,40.228 37.514,40.186 L37.578,40.17 C37.758,40.126 37.94,40.236 37.983,40.414 L38.533,42.674 L40.186,41.036 C40.316,40.907 40.528,40.907 40.656,41.039 L40.704,41.086 C40.835,41.216 40.832,41.426 40.704,41.556 L39.054,43.192 L41.31,43.745 Z"/>
    </g>
  </g>
</svg>
