<svg xmlns="http://www.w3.org/2000/svg" width="55" height="53" viewBox="0 0 55 53">
  <g fill="none" fill-rule="evenodd">
    <g transform="translate(0 -2)">
      <rect width="55" height="55"/>
      <path fill="#D5DCE2" d="M43.2134605,24.852 C45.5344605,25.921 47.0324605,28.257 47.0324605,30.805 C47.0324605,34.419 44.0964605,37.359 40.4874605,37.359 L20.4594605,37.359 C16.2824605,37.359 12.8824605,33.959 12.8824605,29.783 C12.8824605,26.707 14.8074605,23.878 17.6724605,22.743 L18.5224605,22.405 L18.7004605,21.511 C19.4654605,17.692 22.8454605,14.921 26.7334605,14.921 C29.0044605,14.921 31.1924605,15.874 32.7374605,17.536 L33.4344605,18.286 L34.4214605,18.01 C34.9844605,17.852 35.5554605,17.772 36.1194605,17.772 C39.3164605,17.772 42.0044605,20.266 42.2404605,23.449 L42.3134605,24.438 L43.2134605,24.852 Z M42.0944605,12.966 C47.0844605,13.943 50.8514605,18.335 50.8524605,23.61 C50.8524605,26.118 49.9934605,28.42 48.5644605,30.257 C48.3624605,27.316 46.5794605,24.671 43.8724605,23.424 L43.8134605,23.397 L43.8084605,23.333 C43.5594605,19.974 41.1274605,17.252 37.9794605,16.458 L37.9384605,16.066 C37.6564605,13.312 35.7264605,10.792 32.9004605,9.486 C31.6674605,8.918 30.3264605,8.618 29.0224605,8.618 C28.0404605,8.618 27.0884605,8.784 26.2164605,9.105 C24.9354605,8.047 23.4664605,7.299 21.9134605,6.896 C23.9494605,4.118 27.2254605,2.306 30.9344605,2.306 C36.9344605,2.306 41.8164605,7.034 42.0944605,12.966 Z M11.3114605,29.783 C11.3114605,30.76 11.4684605,31.7 11.7544605,32.584 C11.5014605,32.585 11.3354605,32.585 11.3234605,32.584 C7.00646053,31.991 3.73746053,28.073 4.20446053,23.504 C4.52646053,20.339 6.78646053,17.701 9.74246053,16.528 L10.2754605,16.317 C10.3124605,16.303 10.3384605,16.271 10.3464605,16.232 L10.4534605,15.696 C10.9994605,12.969 12.6214605,10.503 15.0694605,9.182 C18.6554605,7.246 22.7564605,8.1 25.5234605,10.58 C25.6624605,10.704 25.7864605,10.838 25.9134605,10.969 C27.6404605,9.992 30.0204605,9.888 32.2424605,10.913 C34.6394605,12.02 36.1604605,14.119 36.3754605,16.227 C36.2894605,16.223 36.2074605,16.202 36.1214605,16.202 C35.4144605,16.202 34.6994605,16.302 33.9984605,16.498 L33.9344605,16.516 L33.8884605,16.466 C32.0474605,14.486 29.4394605,13.351 26.7344605,13.351 C22.0974605,13.351 18.0714605,16.652 17.1604605,21.203 L17.1484605,21.261 L17.0934605,21.283 C13.6344605,22.653 11.3114605,26.069 11.3114605,29.783 Z"/>
    </g>
    <g transform="translate(0 -2)">
      <rect width="55" height="55"/>
      <path fill="#009EFF" d="M19.1,45.229 C17.777,47.783 14.758,46.112 16.028,43.647 C17.106,41.552 19.696,40.285 19.696,40.285 C19.696,40.285 20.147,43.201 19.1,45.229 Z M26.171,53.163 C24.848,55.717 21.829,54.046 23.099,51.581 C24.177,49.486 26.767,48.219 26.767,48.219 C26.767,48.219 27.218,51.135 26.171,53.163 Z M39.37,45.229 C38.047,47.783 35.028,46.112 36.298,43.647 C37.376,41.552 39.966,40.285 39.966,40.285 C39.966,40.285 40.416,43.201 39.37,45.229 Z"/>
      <path fill="#38C0E0" d="M30.873,43.853 C31.05,43.897 31.162,44.08 31.117,44.257 L31.1,44.321 C31.057,44.498 30.875,44.61 30.698,44.565 L28.393,44.003 L28.956,46.309 C29.002,46.487 28.89,46.667 28.709,46.712 L28.645,46.726 C28.468,46.771 28.286,46.66 28.243,46.482 L27.688,44.218 L26.037,45.86 C25.906,45.988 25.697,45.988 25.566,45.857 L25.518,45.81 C25.391,45.679 25.391,45.468 25.521,45.337 L27.168,43.703 L24.914,43.152 C24.736,43.11 24.622,42.93 24.669,42.749 L24.683,42.685 C24.728,42.505 24.911,42.397 25.088,42.44 L27.395,43.003 L26.829,40.697 C26.786,40.521 26.899,40.336 27.077,40.294 L27.141,40.278 C27.321,40.234 27.503,40.344 27.546,40.522 L28.096,42.782 L29.749,41.144 C29.879,41.015 30.091,41.015 30.219,41.147 L30.267,41.194 C30.398,41.324 30.395,41.534 30.267,41.664 L28.617,43.3 L30.873,43.853 Z M37.943,51.679 C38.12,51.722 38.233,51.906 38.187,52.083 L38.17,52.147 C38.127,52.324 37.945,52.436 37.768,52.391 L35.463,51.829 L36.026,54.135 C36.072,54.313 35.96,54.493 35.779,54.538 L35.715,54.552 C35.538,54.597 35.356,54.486 35.313,54.308 L34.758,52.044 L33.107,53.686 C32.976,53.814 32.767,53.814 32.636,53.683 L32.588,53.636 C32.461,53.505 32.461,53.294 32.591,53.163 L34.238,51.529 L31.984,50.978 C31.806,50.936 31.692,50.756 31.739,50.575 L31.753,50.511 C31.798,50.331 31.981,50.223 32.158,50.266 L34.465,50.829 L33.899,48.523 C33.856,48.347 33.969,48.162 34.147,48.12 L34.211,48.104 C34.391,48.06 34.573,48.17 34.616,48.348 L35.166,50.608 L36.819,48.97 C36.949,48.841 37.161,48.841 37.289,48.973 L37.337,49.02 C37.468,49.15 37.465,49.36 37.337,49.49 L35.687,51.126 L37.943,51.679 Z M17.674,51.679 C17.851,51.722 17.963,51.906 17.919,52.083 L17.902,52.147 C17.859,52.324 17.677,52.436 17.5,52.391 L15.195,51.829 L15.758,54.135 C15.804,54.313 15.692,54.493 15.511,54.538 L15.447,54.552 C15.27,54.597 15.088,54.486 15.045,54.308 L14.49,52.044 L12.839,53.686 C12.708,53.814 12.499,53.814 12.368,53.683 L12.32,53.636 C12.193,53.505 12.193,53.294 12.323,53.163 L13.97,51.529 L11.716,50.978 C11.538,50.936 11.424,50.756 11.471,50.575 L11.485,50.511 C11.53,50.331 11.713,50.223 11.89,50.266 L14.197,50.829 L13.631,48.523 C13.587,48.347 13.7,48.162 13.878,48.12 L13.942,48.104 C14.122,48.06 14.304,48.17 14.347,48.348 L14.897,50.608 L16.55,48.97 C16.68,48.841 16.892,48.841 17.02,48.973 L17.068,49.02 C17.199,49.15 17.196,49.36 17.068,49.49 L15.418,51.126 L17.674,51.679 Z"/>
    </g>
  </g>
</svg>
