<svg xmlns="http://www.w3.org/2000/svg" width="55" height="45" viewBox="0 0 55 45">
  <g fill="none" fill-rule="evenodd">
    <g transform="translate(0 -2)">
      <rect width="55" height="55"/>
      <path fill="#D5DCE2" d="M43.2134605,24.852 C45.5344605,25.921 47.0324605,28.257 47.0324605,30.805 C47.0324605,34.419 44.0964605,37.359 40.4874605,37.359 L20.4594605,37.359 C16.2824605,37.359 12.8824605,33.959 12.8824605,29.783 C12.8824605,26.707 14.8074605,23.878 17.6724605,22.743 L18.5224605,22.405 L18.7004605,21.511 C19.4654605,17.692 22.8454605,14.921 26.7334605,14.921 C29.0044605,14.921 31.1924605,15.874 32.7374605,17.536 L33.4344605,18.286 L34.4214605,18.01 C34.9844605,17.852 35.5554605,17.772 36.1194605,17.772 C39.3164605,17.772 42.0044605,20.266 42.2404605,23.449 L42.3134605,24.438 L43.2134605,24.852 Z M42.0944605,12.966 C47.0844605,13.943 50.8514605,18.335 50.8524605,23.61 C50.8524605,26.118 49.9934605,28.42 48.5644605,30.257 C48.3624605,27.316 46.5794605,24.671 43.8724605,23.424 L43.8134605,23.397 L43.8084605,23.333 C43.5594605,19.974 41.1274605,17.252 37.9794605,16.458 L37.9384605,16.066 C37.6564605,13.312 35.7264605,10.792 32.9004605,9.486 C31.6674605,8.918 30.3264605,8.618 29.0224605,8.618 C28.0404605,8.618 27.0884605,8.784 26.2164605,9.105 C24.9354605,8.047 23.4664605,7.299 21.9134605,6.896 C23.9494605,4.118 27.2254605,2.306 30.9344605,2.306 C36.9344605,2.306 41.8164605,7.034 42.0944605,12.966 Z M11.3114605,29.783 C11.3114605,30.76 11.4684605,31.7 11.7544605,32.584 C11.5014605,32.585 11.3354605,32.585 11.3234605,32.584 C7.00646053,31.991 3.73746053,28.073 4.20446053,23.504 C4.52646053,20.339 6.78646053,17.701 9.74246053,16.528 L10.2754605,16.317 C10.3124605,16.303 10.3384605,16.271 10.3464605,16.232 L10.4534605,15.696 C10.9994605,12.969 12.6214605,10.503 15.0694605,9.182 C18.6554605,7.246 22.7564605,8.1 25.5234605,10.58 C25.6624605,10.704 25.7864605,10.838 25.9134605,10.969 C27.6404605,9.992 30.0204605,9.888 32.2424605,10.913 C34.6394605,12.02 36.1604605,14.119 36.3754605,16.227 C36.2894605,16.223 36.2074605,16.202 36.1214605,16.202 C35.4144605,16.202 34.6994605,16.302 33.9984605,16.498 L33.9344605,16.516 L33.8884605,16.466 C32.0474605,14.486 29.4394605,13.351 26.7344605,13.351 C22.0974605,13.351 18.0714605,16.652 17.1604605,21.203 L17.1484605,21.261 L17.0934605,21.283 C13.6344605,22.653 11.3114605,26.069 11.3114605,29.783 Z"/>
    </g>
    <g transform="translate(0 -2)">
      <rect width="55" height="55"/>
      <path fill="#38C0E0" d="M25.639,43.745 C25.816,43.788 25.928,43.971 25.883,44.149 L25.866,44.213 C25.823,44.39 25.641,44.502 25.464,44.457 L23.159,43.895 L23.722,46.201 C23.768,46.379 23.656,46.559 23.475,46.604 L23.411,46.618 C23.234,46.663 23.052,46.552 23.009,46.374 L22.454,44.11 L20.803,45.752 C20.672,45.88 20.463,45.88 20.332,45.749 L20.284,45.702 C20.157,45.571 20.157,45.36 20.287,45.229 L21.934,43.595 L19.68,43.044 C19.502,43.002 19.388,42.822 19.435,42.641 L19.449,42.577 C19.494,42.397 19.677,42.289 19.854,42.332 L22.161,42.895 L21.595,40.589 C21.552,40.413 21.665,40.228 21.843,40.186 L21.907,40.17 C22.087,40.126 22.269,40.236 22.312,40.414 L22.862,42.674 L24.515,41.036 C24.645,40.907 24.857,40.907 24.985,41.039 L25.033,41.086 C25.164,41.216 25.161,41.426 25.033,41.556 L23.383,43.192 L25.639,43.745 Z M41.027,43.745 C41.203,43.788 41.316,43.971 41.272,44.149 L41.255,44.213 C41.212,44.39 41.03,44.502 40.853,44.457 L38.548,43.895 L39.111,46.201 C39.156,46.379 39.044,46.559 38.863,46.604 L38.799,46.618 C38.622,46.663 38.44,46.552 38.397,46.374 L37.842,44.11 L36.191,45.752 C36.06,45.88 35.851,45.88 35.72,45.749 L35.672,45.702 C35.545,45.571 35.545,45.36 35.675,45.229 L37.322,43.595 L35.068,43.044 C34.89,43.002 34.776,42.822 34.823,42.641 L34.837,42.577 C34.882,42.397 35.065,42.289 35.242,42.332 L37.549,42.895 L36.983,40.589 C36.94,40.413 37.053,40.228 37.231,40.186 L37.295,40.17 C37.475,40.126 37.657,40.236 37.7,40.414 L38.25,42.674 L39.903,41.036 C40.033,40.907 40.245,40.907 40.373,41.039 L40.421,41.086 C40.552,41.216 40.549,41.426 40.421,41.556 L38.771,43.192 L41.027,43.745 Z"/>
    </g>
  </g>
</svg>
