<svg xmlns="http://www.w3.org/2000/svg" width="55" height="53" viewBox="0 0 55 53">
  <g fill="none" fill-rule="evenodd">
    <g transform="translate(0 -2)">
      <rect width="55" height="55"/>
      <path fill="#D5DCE2" d="M43.2134605,24.852 C45.5344605,25.921 47.0324605,28.257 47.0324605,30.805 C47.0324605,34.419 44.0964605,37.359 40.4874605,37.359 L20.4594605,37.359 C16.2824605,37.359 12.8824605,33.959 12.8824605,29.783 C12.8824605,26.707 14.8074605,23.878 17.6724605,22.743 L18.5224605,22.405 L18.7004605,21.511 C19.4654605,17.692 22.8454605,14.921 26.7334605,14.921 C29.0044605,14.921 31.1924605,15.874 32.7374605,17.536 L33.4344605,18.286 L34.4214605,18.01 C34.9844605,17.852 35.5554605,17.772 36.1194605,17.772 C39.3164605,17.772 42.0044605,20.266 42.2404605,23.449 L42.3134605,24.438 L43.2134605,24.852 Z M42.0944605,12.966 C47.0844605,13.943 50.8514605,18.335 50.8524605,23.61 C50.8524605,26.118 49.9934605,28.42 48.5644605,30.257 C48.3624605,27.316 46.5794605,24.671 43.8724605,23.424 L43.8134605,23.397 L43.8084605,23.333 C43.5594605,19.974 41.1274605,17.252 37.9794605,16.458 L37.9384605,16.066 C37.6564605,13.312 35.7264605,10.792 32.9004605,9.486 C31.6674605,8.918 30.3264605,8.618 29.0224605,8.618 C28.0404605,8.618 27.0884605,8.784 26.2164605,9.105 C24.9354605,8.047 23.4664605,7.299 21.9134605,6.896 C23.9494605,4.118 27.2254605,2.306 30.9344605,2.306 C36.9344605,2.306 41.8164605,7.034 42.0944605,12.966 Z M11.3114605,29.783 C11.3114605,30.76 11.4684605,31.7 11.7544605,32.584 C11.5014605,32.585 11.3354605,32.585 11.3234605,32.584 C7.00646053,31.991 3.73746053,28.073 4.20446053,23.504 C4.52646053,20.339 6.78646053,17.701 9.74246053,16.528 L10.2754605,16.317 C10.3124605,16.303 10.3384605,16.271 10.3464605,16.232 L10.4534605,15.696 C10.9994605,12.969 12.6214605,10.503 15.0694605,9.182 C18.6554605,7.246 22.7564605,8.1 25.5234605,10.58 C25.6624605,10.704 25.7864605,10.838 25.9134605,10.969 C27.6404605,9.992 30.0204605,9.888 32.2424605,10.913 C34.6394605,12.02 36.1604605,14.119 36.3754605,16.227 C36.2894605,16.223 36.2074605,16.202 36.1214605,16.202 C35.4144605,16.202 34.6994605,16.302 33.9984605,16.498 L33.9344605,16.516 L33.8884605,16.466 C32.0474605,14.486 29.4394605,13.351 26.7344605,13.351 C22.0974605,13.351 18.0714605,16.652 17.1604605,21.203 L17.1484605,21.261 L17.0934605,21.283 C13.6344605,22.653 11.3114605,26.069 11.3114605,29.783 Z"/>
    </g>
    <g transform="translate(0 -2)">
      <rect width="55" height="55"/>
      <path fill="#38C0E0" d="M40.467,43.745 C40.644,43.788 40.757,43.971 40.711,44.149 L40.694,44.213 C40.651,44.39 40.469,44.502 40.292,44.457 L37.987,43.895 L38.55,46.201 C38.596,46.379 38.484,46.559 38.303,46.604 L38.239,46.618 C38.062,46.663 37.88,46.552 37.837,46.374 L37.282,44.11 L35.631,45.752 C35.5,45.88 35.291,45.88 35.16,45.749 L35.112,45.702 C34.985,45.571 34.985,45.36 35.115,45.229 L36.762,43.595 L34.508,43.044 C34.33,43.002 34.216,42.822 34.263,42.641 L34.277,42.577 C34.322,42.397 34.505,42.289 34.682,42.332 L36.989,42.895 L36.423,40.589 C36.38,40.413 36.493,40.228 36.671,40.186 L36.735,40.17 C36.915,40.126 37.097,40.236 37.14,40.414 L37.69,42.674 L39.343,41.036 C39.473,40.907 39.685,40.907 39.813,41.039 L39.861,41.086 C39.992,41.216 39.989,41.426 39.861,41.556 L38.211,43.192 L40.467,43.745 Z M21.513,43.745 C21.69,43.788 21.802,43.971 21.758,44.149 L21.741,44.213 C21.698,44.39 21.516,44.502 21.339,44.457 L19.034,43.895 L19.597,46.201 C19.642,46.379 19.53,46.559 19.349,46.604 L19.285,46.618 C19.108,46.663 18.926,46.552 18.883,46.374 L18.328,44.11 L16.677,45.752 C16.546,45.88 16.337,45.88 16.206,45.749 L16.158,45.702 C16.031,45.571 16.031,45.36 16.161,45.229 L17.808,43.595 L15.554,43.044 C15.376,43.002 15.262,42.822 15.309,42.641 L15.323,42.577 C15.368,42.397 15.551,42.289 15.728,42.332 L18.035,42.895 L17.469,40.589 C17.426,40.413 17.539,40.228 17.717,40.186 L17.781,40.17 C17.961,40.126 18.143,40.236 18.186,40.414 L18.736,42.674 L20.389,41.036 C20.519,40.907 20.731,40.907 20.859,41.039 L20.907,41.086 C21.038,41.216 21.035,41.426 20.907,41.556 L19.257,43.192 L21.513,43.745 Z"/>
      <polygon fill="#FF7800" points="31.037 43.465 28.222 43.422 30.53 39.385 26.967 39.415 23.944 45.438 26.576 45.438 22.88 54.567"/>
    </g>
  </g>
</svg>
