<svg xmlns="http://www.w3.org/2000/svg" width="55" height="47" viewBox="0 0 55 47">
  <g fill="none" fill-rule="evenodd">
    <rect width="55" height="55"/>
    <path fill="#D5DCE2" d="M40.03,24.704 L39.13,24.29 L39.057,23.301 C38.821,20.118 36.133,17.624 32.936,17.624 C32.372,17.624 31.801,17.704 31.238,17.862 L30.251,18.138 L29.554,17.388 C28.009,15.726 25.821,14.773 23.55,14.773 C19.662,14.773 16.282,17.544 15.517,21.363 L15.338,22.257 L14.489,22.595 C11.624,23.73 9.699,26.559 9.699,29.635 C9.699,33.811 13.099,37.211 17.276,37.211 L37.304,37.211 C40.913,37.211 43.849,34.271 43.849,30.657 C43.849,28.108 42.351,25.772 40.03,24.704"/>
    <path fill="#FFCE00" d="M14.749,18.759 C14.514,19.249 14.316,19.761 14.164,20.294 L8.52,17.621 L15.22,15.552 C14.956,16.485 14.787,17.454 14.746,18.451 C14.742,18.555 14.75,18.656 14.749,18.759 Z M40.092,20.986 C40.173,20.498 40.225,20.005 40.246,19.503 C40.278,18.77 40.236,18.046 40.144,17.332 L46.479,20.331 L40.455,22.196 C40.367,21.778 40.245,21.376 40.092,20.986 Z M16.922,11.896 C16.458,12.584 16.058,13.313 15.734,14.08 L11.745,8.309 L18.592,9.873 C18.296,10.164 18.018,10.473 17.751,10.79 C17.729,10.816 17.709,10.844 17.687,10.87 C17.446,11.162 17.218,11.464 17.003,11.776 C16.976,11.815 16.95,11.855 16.922,11.896 Z M20.637,8.25 C20.405,8.401 20.177,8.557 19.955,8.721 C19.893,8.768 19.823,8.809 19.759,8.857 L19.184,1.863 L24.325,6.628 C23.101,6.945 21.95,7.44 20.898,8.084 C20.81,8.137 20.723,8.194 20.637,8.25 Z M28.026,6.231 C27.298,6.201 26.572,6.253 25.852,6.346 L28.859,0 L30.928,6.697 C29.99,6.438 29.021,6.272 28.026,6.231 Z M32.405,7.207 L38.171,3.221 L36.605,10.057 C35.391,8.816 33.967,7.857 32.405,7.207 Z M37.637,11.233 L44.617,10.658 L39.859,15.786 C39.439,14.144 38.686,12.601 37.637,11.233 Z M23.551,13.202 C20.946,13.202 18.535,14.244 16.76,15.964 C17.902,11.961 21.253,8.781 25.463,8.002 C26.278,7.85 27.12,7.79 27.962,7.825 C30.942,7.947 33.696,9.222 35.717,11.417 C37.555,13.414 38.573,15.955 38.648,18.643 C37.227,17.065 35.196,16.053 32.938,16.053 C32.231,16.053 31.516,16.152 30.815,16.35 L30.751,16.367 L30.705,16.319 C28.864,14.337 26.256,13.202 23.551,13.202 Z"/>
    <g transform="translate(-3)">
      <rect width="55" height="55"/>
      <path fill="#38C0E0" d="M25.639,43.745 C25.816,43.788 25.928,43.971 25.883,44.149 L25.866,44.213 C25.823,44.39 25.641,44.502 25.464,44.457 L23.159,43.895 L23.722,46.201 C23.768,46.379 23.656,46.559 23.475,46.604 L23.411,46.618 C23.234,46.663 23.052,46.552 23.009,46.374 L22.454,44.11 L20.803,45.752 C20.672,45.88 20.463,45.88 20.332,45.749 L20.284,45.702 C20.157,45.571 20.157,45.36 20.287,45.229 L21.934,43.595 L19.68,43.044 C19.502,43.002 19.388,42.822 19.435,42.641 L19.449,42.577 C19.494,42.397 19.677,42.289 19.854,42.332 L22.161,42.895 L21.595,40.589 C21.552,40.413 21.665,40.228 21.843,40.186 L21.907,40.17 C22.087,40.126 22.269,40.236 22.312,40.414 L22.862,42.674 L24.515,41.036 C24.645,40.907 24.857,40.907 24.985,41.039 L25.033,41.086 C25.164,41.216 25.161,41.426 25.033,41.556 L23.383,43.192 L25.639,43.745 Z M41.027,43.745 C41.203,43.788 41.316,43.971 41.272,44.149 L41.255,44.213 C41.212,44.39 41.03,44.502 40.853,44.457 L38.548,43.895 L39.111,46.201 C39.156,46.379 39.044,46.559 38.863,46.604 L38.799,46.618 C38.622,46.663 38.44,46.552 38.397,46.374 L37.842,44.11 L36.191,45.752 C36.06,45.88 35.851,45.88 35.72,45.749 L35.672,45.702 C35.545,45.571 35.545,45.36 35.675,45.229 L37.322,43.595 L35.068,43.044 C34.89,43.002 34.776,42.822 34.823,42.641 L34.837,42.577 C34.882,42.397 35.065,42.289 35.242,42.332 L37.549,42.895 L36.983,40.589 C36.94,40.413 37.053,40.228 37.231,40.186 L37.295,40.17 C37.475,40.126 37.657,40.236 37.7,40.414 L38.25,42.674 L39.903,41.036 C40.033,40.907 40.245,40.907 40.373,41.039 L40.421,41.086 C40.552,41.216 40.549,41.426 40.421,41.556 L38.771,43.192 L41.027,43.745 Z"/>
    </g>
  </g>
</svg>
