<svg xmlns="http://www.w3.org/2000/svg" width="55" height="55" viewBox="0 0 55 55">
  <g fill="none" fill-rule="evenodd">
    <rect width="55" height="55"/>
    <path fill="#D5DCE2" d="M40.03,24.704 L39.13,24.29 L39.057,23.301 C38.821,20.118 36.133,17.624 32.936,17.624 C32.372,17.624 31.801,17.704 31.238,17.862 L30.251,18.138 L29.554,17.388 C28.009,15.726 25.821,14.773 23.55,14.773 C19.662,14.773 16.282,17.544 15.517,21.363 L15.338,22.257 L14.489,22.595 C11.624,23.73 9.699,26.559 9.699,29.635 C9.699,33.811 13.099,37.211 17.276,37.211 L37.304,37.211 C40.913,37.211 43.849,34.271 43.849,30.657 C43.849,28.108 42.351,25.772 40.03,24.704"/>
    <path fill="#FFCE00" d="M14.749,18.759 C14.514,19.249 14.316,19.761 14.164,20.294 L8.52,17.621 L15.22,15.552 C14.956,16.485 14.787,17.454 14.746,18.451 C14.742,18.555 14.75,18.656 14.749,18.759 Z M40.092,20.986 C40.173,20.498 40.225,20.005 40.246,19.503 C40.278,18.77 40.236,18.046 40.144,17.332 L46.479,20.331 L40.455,22.196 C40.367,21.778 40.245,21.376 40.092,20.986 Z M16.922,11.896 C16.458,12.584 16.058,13.313 15.734,14.08 L11.745,8.309 L18.592,9.873 C18.296,10.164 18.018,10.473 17.751,10.79 C17.729,10.816 17.709,10.844 17.687,10.87 C17.446,11.162 17.218,11.464 17.003,11.776 C16.976,11.815 16.95,11.855 16.922,11.896 Z M20.637,8.25 C20.405,8.401 20.177,8.557 19.955,8.721 C19.893,8.768 19.823,8.809 19.759,8.857 L19.184,1.863 L24.325,6.628 C23.101,6.945 21.95,7.44 20.898,8.084 C20.81,8.137 20.723,8.194 20.637,8.25 Z M28.026,6.231 C27.298,6.201 26.572,6.253 25.852,6.346 L28.859,0 L30.928,6.697 C29.99,6.438 29.021,6.272 28.026,6.231 Z M32.405,7.207 L38.171,3.221 L36.605,10.057 C35.391,8.816 33.967,7.857 32.405,7.207 Z M37.637,11.233 L44.617,10.658 L39.859,15.786 C39.439,14.144 38.686,12.601 37.637,11.233 Z M23.551,13.202 C20.946,13.202 18.535,14.244 16.76,15.964 C17.902,11.961 21.253,8.781 25.463,8.002 C26.278,7.85 27.12,7.79 27.962,7.825 C30.942,7.947 33.696,9.222 35.717,11.417 C37.555,13.414 38.573,15.955 38.648,18.643 C37.227,17.065 35.196,16.053 32.938,16.053 C32.231,16.053 31.516,16.152 30.815,16.35 L30.751,16.367 L30.705,16.319 C28.864,14.337 26.256,13.202 23.551,13.202 Z"/>
    <g transform="translate(-3)">
      <rect width="55" height="55"/>
      <polygon fill="#FF7800" points="32.873 43.465 30.058 43.422 32.366 39.385 28.803 39.415 25.78 45.438 28.412 45.438 24.716 54.567"/>
      <path fill="#38C0E0" d="M37.845,51.602 C38.022,51.645 38.135,51.828 38.089,52.007 L38.072,52.071 C38.029,52.248 37.847,52.36 37.67,52.315 L35.365,51.753 L35.928,54.059 C35.974,54.237 35.862,54.417 35.681,54.462 L35.617,54.476 C35.44,54.521 35.258,54.41 35.215,54.232 L34.66,51.968 L33.009,53.61 C32.878,53.738 32.669,53.738 32.538,53.607 L32.49,53.56 C32.363,53.429 32.363,53.218 32.493,53.087 L34.14,51.453 L31.886,50.902 C31.708,50.86 31.594,50.68 31.641,50.499 L31.655,50.435 C31.7,50.255 31.883,50.147 32.06,50.19 L34.367,50.752 L33.801,48.446 C33.758,48.27 33.871,48.085 34.049,48.043 L34.113,48.027 C34.293,47.983 34.475,48.093 34.518,48.271 L35.068,50.531 L36.721,48.893 C36.851,48.764 37.063,48.764 37.191,48.896 L37.239,48.943 C37.37,49.073 37.367,49.283 37.239,49.413 L35.589,51.049 L37.845,51.602 Z M43.006,43.745 C43.183,43.788 43.295,43.971 43.251,44.149 L43.234,44.213 C43.191,44.39 43.009,44.502 42.832,44.457 L40.527,43.895 L41.09,46.201 C41.135,46.379 41.023,46.559 40.842,46.604 L40.778,46.618 C40.601,46.663 40.419,46.552 40.376,46.374 L39.821,44.11 L38.17,45.752 C38.039,45.88 37.83,45.88 37.699,45.749 L37.651,45.702 C37.524,45.571 37.524,45.36 37.654,45.229 L39.301,43.595 L37.047,43.044 C36.869,43.002 36.755,42.822 36.802,42.641 L36.816,42.577 C36.861,42.397 37.044,42.289 37.221,42.332 L39.528,42.895 L38.962,40.589 C38.919,40.413 39.032,40.228 39.21,40.186 L39.274,40.17 C39.454,40.126 39.636,40.236 39.679,40.414 L40.229,42.674 L41.882,41.036 C42.012,40.907 42.224,40.907 42.352,41.039 L42.4,41.086 C42.531,41.216 42.528,41.426 42.4,41.556 L40.75,43.192 L43.006,43.745 Z M22.007,51.602 C22.184,51.645 22.296,51.828 22.252,52.006 L22.235,52.07 C22.192,52.247 22.01,52.359 21.833,52.314 L19.528,51.752 L20.091,54.058 C20.137,54.236 20.025,54.416 19.844,54.461 L19.78,54.475 C19.603,54.52 19.421,54.409 19.378,54.231 L18.823,51.967 L17.172,53.609 C17.041,53.737 16.832,53.737 16.701,53.606 L16.653,53.559 C16.526,53.428 16.526,53.217 16.656,53.086 L18.303,51.452 L16.049,50.901 C15.871,50.859 15.757,50.679 15.804,50.498 L15.818,50.434 C15.863,50.254 16.046,50.146 16.223,50.189 L18.53,50.752 L17.964,48.446 C17.92,48.27 18.033,48.085 18.211,48.043 L18.275,48.027 C18.455,47.983 18.637,48.093 18.68,48.271 L19.23,50.531 L20.883,48.893 C21.013,48.764 21.225,48.764 21.353,48.896 L21.401,48.943 C21.532,49.073 21.529,49.283 21.401,49.413 L19.751,51.049 L22.007,51.602 Z M22.15,43.745 C22.326,43.788 22.439,43.971 22.395,44.149 L22.378,44.213 C22.335,44.39 22.153,44.502 21.976,44.457 L19.671,43.895 L20.234,46.201 C20.28,46.379 20.168,46.559 19.987,46.604 L19.923,46.618 C19.746,46.663 19.564,46.552 19.521,46.374 L18.966,44.11 L17.315,45.752 C17.184,45.88 16.975,45.88 16.844,45.749 L16.796,45.702 C16.669,45.571 16.669,45.36 16.799,45.229 L18.446,43.595 L16.192,43.044 C16.014,43.002 15.9,42.822 15.947,42.641 L15.961,42.577 C16.006,42.397 16.189,42.289 16.366,42.332 L18.673,42.895 L18.107,40.589 C18.063,40.413 18.176,40.228 18.354,40.186 L18.418,40.17 C18.598,40.126 18.78,40.236 18.823,40.414 L19.373,42.674 L21.026,41.036 C21.156,40.907 21.368,40.907 21.496,41.039 L21.544,41.086 C21.675,41.216 21.672,41.426 21.544,41.556 L19.894,43.192 L22.15,43.745 Z"/>
    </g>
  </g>
</svg>
