<svg xmlns="http://www.w3.org/2000/svg" width="55" height="55" viewBox="0 0 55 55">
  <g fill="none" fill-rule="evenodd">
    <rect width="55" height="55"/>
    <path fill="#D5DCE2" d="M40.03,24.704 L39.13,24.29 L39.057,23.301 C38.821,20.118 36.133,17.624 32.936,17.624 C32.372,17.624 31.801,17.704 31.238,17.862 L30.251,18.138 L29.554,17.388 C28.009,15.726 25.821,14.773 23.55,14.773 C19.662,14.773 16.282,17.544 15.517,21.363 L15.338,22.257 L14.489,22.595 C11.624,23.73 9.699,26.559 9.699,29.635 C9.699,33.811 13.099,37.211 17.276,37.211 L37.304,37.211 C40.913,37.211 43.849,34.271 43.849,30.657 C43.849,28.108 42.351,25.772 40.03,24.704"/>
    <path fill="#FFCE00" d="M14.749,18.759 C14.514,19.249 14.316,19.761 14.164,20.294 L8.52,17.621 L15.22,15.552 C14.956,16.485 14.787,17.454 14.746,18.451 C14.742,18.555 14.75,18.656 14.749,18.759 Z M40.092,20.986 C40.173,20.498 40.225,20.005 40.246,19.503 C40.278,18.77 40.236,18.046 40.144,17.332 L46.479,20.331 L40.455,22.196 C40.367,21.778 40.245,21.376 40.092,20.986 Z M16.922,11.896 C16.458,12.584 16.058,13.313 15.734,14.08 L11.745,8.309 L18.592,9.873 C18.296,10.164 18.018,10.473 17.751,10.79 C17.729,10.816 17.709,10.844 17.687,10.87 C17.446,11.162 17.218,11.464 17.003,11.776 C16.976,11.815 16.95,11.855 16.922,11.896 Z M20.637,8.25 C20.405,8.401 20.177,8.557 19.955,8.721 C19.893,8.768 19.823,8.809 19.759,8.857 L19.184,1.863 L24.325,6.628 C23.101,6.945 21.95,7.44 20.898,8.084 C20.81,8.137 20.723,8.194 20.637,8.25 Z M28.026,6.231 C27.298,6.201 26.572,6.253 25.852,6.346 L28.859,0 L30.928,6.697 C29.99,6.438 29.021,6.272 28.026,6.231 Z M32.405,7.207 L38.171,3.221 L36.605,10.057 C35.391,8.816 33.967,7.857 32.405,7.207 Z M37.637,11.233 L44.617,10.658 L39.859,15.786 C39.439,14.144 38.686,12.601 37.637,11.233 Z M23.551,13.202 C20.946,13.202 18.535,14.244 16.76,15.964 C17.902,11.961 21.253,8.781 25.463,8.002 C26.278,7.85 27.12,7.79 27.962,7.825 C30.942,7.947 33.696,9.222 35.717,11.417 C37.555,13.414 38.573,15.955 38.648,18.643 C37.227,17.065 35.196,16.053 32.938,16.053 C32.231,16.053 31.516,16.152 30.815,16.35 L30.751,16.367 L30.705,16.319 C28.864,14.337 26.256,13.202 23.551,13.202 Z"/>
    <g transform="translate(-2)">
      <rect width="55" height="55"/>
      <polygon fill="#FF7800" points="32.037 43.465 29.222 43.422 31.53 39.385 27.967 39.415 24.944 45.438 27.576 45.438 23.88 54.567"/>
      <path fill="#009EFF" d="M20.461,45.229 C19.138,47.783 16.119,46.112 17.389,43.647 C18.467,41.552 21.057,40.285 21.057,40.285 C21.057,40.285 21.507,43.201 20.461,45.229 Z M36.931,53.086 C35.608,55.64 32.589,53.969 33.859,51.504 C34.937,49.409 37.527,48.142 37.527,48.142 C37.527,48.142 37.977,51.058 36.931,53.086 Z"/>
      <path fill="#38C0E0" d="M21.076,51.602 C21.253,51.645 21.366,51.828 21.321,52.006 L21.304,52.07 C21.261,52.247 21.079,52.359 20.902,52.314 L18.597,51.752 L19.16,54.058 C19.206,54.236 19.094,54.416 18.913,54.461 L18.849,54.475 C18.672,54.52 18.49,54.409 18.447,54.231 L17.892,51.967 L16.241,53.609 C16.11,53.737 15.901,53.737 15.77,53.606 L15.722,53.559 C15.595,53.428 15.595,53.217 15.725,53.086 L17.372,51.452 L15.118,50.901 C14.94,50.859 14.826,50.679 14.873,50.498 L14.887,50.434 C14.932,50.254 15.115,50.146 15.292,50.189 L17.599,50.752 L17.033,48.446 C16.989,48.27 17.102,48.085 17.28,48.043 L17.344,48.027 C17.524,47.983 17.706,48.093 17.749,48.271 L18.299,50.531 L19.952,48.893 C20.082,48.764 20.294,48.764 20.422,48.896 L20.47,48.943 C20.601,49.073 20.598,49.283 20.47,49.413 L18.82,51.049 L21.076,51.602 Z M41.31,43.745 C41.487,43.788 41.599,43.971 41.555,44.149 L41.538,44.213 C41.495,44.39 41.313,44.502 41.136,44.457 L38.831,43.895 L39.394,46.201 C39.439,46.379 39.327,46.559 39.146,46.604 L39.082,46.618 C38.905,46.663 38.723,46.552 38.68,46.374 L38.125,44.11 L36.474,45.752 C36.343,45.88 36.134,45.88 36.003,45.749 L35.955,45.702 C35.828,45.571 35.828,45.36 35.958,45.229 L37.605,43.595 L35.351,43.044 C35.173,43.002 35.059,42.822 35.106,42.641 L35.12,42.577 C35.165,42.397 35.348,42.289 35.525,42.332 L37.832,42.895 L37.266,40.589 C37.223,40.413 37.336,40.228 37.514,40.186 L37.578,40.17 C37.758,40.126 37.94,40.236 37.983,40.414 L38.533,42.674 L40.186,41.036 C40.316,40.907 40.528,40.907 40.656,41.039 L40.704,41.086 C40.835,41.216 40.832,41.426 40.704,41.556 L39.054,43.192 L41.31,43.745 Z"/>
    </g>
  </g>
</svg>
