<svg xmlns="http://www.w3.org/2000/svg" width="55" height="55" viewBox="0 0 55 55">
  <g fill="none" fill-rule="evenodd">
    <rect width="55" height="55"/>
    <path fill="#D5DCE2" d="M40.03,24.704 L39.13,24.29 L39.057,23.301 C38.821,20.118 36.133,17.624 32.936,17.624 C32.372,17.624 31.801,17.704 31.238,17.862 L30.251,18.138 L29.554,17.388 C28.009,15.726 25.821,14.773 23.55,14.773 C19.662,14.773 16.282,17.544 15.517,21.363 L15.338,22.257 L14.489,22.595 C11.624,23.73 9.699,26.559 9.699,29.635 C9.699,33.811 13.099,37.211 17.276,37.211 L37.304,37.211 C40.913,37.211 43.849,34.271 43.849,30.657 C43.849,28.108 42.351,25.772 40.03,24.704"/>
    <path fill="#FFCE00" d="M14.749,18.759 C14.514,19.249 14.316,19.761 14.164,20.294 L8.52,17.621 L15.22,15.552 C14.956,16.485 14.787,17.454 14.746,18.451 C14.742,18.555 14.75,18.656 14.749,18.759 Z M40.092,20.986 C40.173,20.498 40.225,20.005 40.246,19.503 C40.278,18.77 40.236,18.046 40.144,17.332 L46.479,20.331 L40.455,22.196 C40.367,21.778 40.245,21.376 40.092,20.986 Z M16.922,11.896 C16.458,12.584 16.058,13.313 15.734,14.08 L11.745,8.309 L18.592,9.873 C18.296,10.164 18.018,10.473 17.751,10.79 C17.729,10.816 17.709,10.844 17.687,10.87 C17.446,11.162 17.218,11.464 17.003,11.776 C16.976,11.815 16.95,11.855 16.922,11.896 Z M20.637,8.25 C20.405,8.401 20.177,8.557 19.955,8.721 C19.893,8.768 19.823,8.809 19.759,8.857 L19.184,1.863 L24.325,6.628 C23.101,6.945 21.95,7.44 20.898,8.084 C20.81,8.137 20.723,8.194 20.637,8.25 Z M28.026,6.231 C27.298,6.201 26.572,6.253 25.852,6.346 L28.859,0 L30.928,6.697 C29.99,6.438 29.021,6.272 28.026,6.231 Z M32.405,7.207 L38.171,3.221 L36.605,10.057 C35.391,8.816 33.967,7.857 32.405,7.207 Z M37.637,11.233 L44.617,10.658 L39.859,15.786 C39.439,14.144 38.686,12.601 37.637,11.233 Z M23.551,13.202 C20.946,13.202 18.535,14.244 16.76,15.964 C17.902,11.961 21.253,8.781 25.463,8.002 C26.278,7.85 27.12,7.79 27.962,7.825 C30.942,7.947 33.696,9.222 35.717,11.417 C37.555,13.414 38.573,15.955 38.648,18.643 C37.227,17.065 35.196,16.053 32.938,16.053 C32.231,16.053 31.516,16.152 30.815,16.35 L30.751,16.367 L30.705,16.319 C28.864,14.337 26.256,13.202 23.551,13.202 Z"/>
    <g>
      <rect width="55" height="55"/>
      <path fill="#38C0E0" d="M22.33,43.745 C22.506,43.788 22.619,43.971 22.575,44.149 L22.558,44.213 C22.515,44.39 22.333,44.502 22.156,44.457 L19.851,43.895 L20.414,46.201 C20.46,46.379 20.348,46.559 20.167,46.604 L20.103,46.618 C19.926,46.663 19.744,46.552 19.701,46.374 L19.146,44.11 L17.495,45.752 C17.364,45.88 17.155,45.88 17.024,45.749 L16.976,45.702 C16.849,45.571 16.849,45.36 16.979,45.229 L18.626,43.595 L16.372,43.044 C16.194,43.002 16.08,42.822 16.127,42.641 L16.141,42.577 C16.186,42.397 16.369,42.289 16.546,42.332 L18.853,42.895 L18.287,40.589 C18.243,40.413 18.356,40.228 18.534,40.186 L18.598,40.17 C18.778,40.126 18.96,40.236 19.003,40.414 L19.553,42.674 L21.206,41.036 C21.336,40.907 21.548,40.907 21.676,41.039 L21.724,41.086 C21.855,41.216 21.852,41.426 21.724,41.556 L20.074,43.192 L22.33,43.745 Z M16.531,51.602 C16.708,51.645 16.82,51.828 16.776,52.006 L16.759,52.07 C16.716,52.247 16.534,52.359 16.357,52.314 L14.052,51.752 L14.615,54.058 C14.66,54.236 14.548,54.416 14.367,54.461 L14.303,54.475 C14.126,54.52 13.944,54.409 13.901,54.231 L13.346,51.967 L11.695,53.609 C11.564,53.737 11.355,53.737 11.224,53.606 L11.176,53.559 C11.049,53.428 11.049,53.217 11.179,53.086 L12.826,51.452 L10.572,50.901 C10.394,50.859 10.28,50.679 10.327,50.498 L10.341,50.434 C10.386,50.254 10.569,50.146 10.746,50.189 L13.053,50.752 L12.487,48.446 C12.444,48.27 12.557,48.085 12.735,48.043 L12.799,48.027 C12.979,47.983 13.161,48.093 13.204,48.271 L13.754,50.531 L15.407,48.893 C15.537,48.764 15.749,48.764 15.877,48.896 L15.925,48.943 C16.056,49.073 16.053,49.283 15.925,49.413 L14.275,51.049 L16.531,51.602 Z M31.79,51.602 C31.967,51.645 32.079,51.828 32.034,52.006 L32.017,52.07 C31.974,52.247 31.792,52.359 31.615,52.314 L29.31,51.752 L29.873,54.058 C29.919,54.236 29.807,54.416 29.626,54.461 L29.562,54.475 C29.385,54.52 29.203,54.409 29.16,54.231 L28.605,51.967 L26.954,53.609 C26.823,53.737 26.614,53.737 26.483,53.606 L26.435,53.559 C26.308,53.428 26.308,53.217 26.438,53.086 L28.085,51.452 L25.831,50.901 C25.653,50.859 25.539,50.679 25.586,50.498 L25.6,50.434 C25.645,50.254 25.828,50.146 26.005,50.189 L28.312,50.752 L27.746,48.446 C27.703,48.27 27.816,48.085 27.994,48.043 L28.058,48.027 C28.238,47.983 28.42,48.093 28.463,48.271 L29.013,50.531 L30.666,48.893 C30.796,48.764 31.008,48.764 31.136,48.896 L31.184,48.943 C31.315,49.073 31.312,49.283 31.184,49.413 L29.534,51.049 L31.79,51.602 Z M37.717,43.745 C37.893,43.788 38.006,43.971 37.961,44.149 L37.944,44.213 C37.901,44.39 37.719,44.502 37.542,44.457 L35.237,43.895 L35.8,46.201 C35.846,46.379 35.734,46.559 35.553,46.604 L35.489,46.618 C35.312,46.663 35.13,46.552 35.087,46.374 L34.532,44.11 L32.881,45.752 C32.75,45.88 32.541,45.88 32.41,45.749 L32.362,45.702 C32.235,45.571 32.235,45.36 32.365,45.229 L34.012,43.595 L31.758,43.044 C31.58,43.002 31.466,42.822 31.513,42.641 L31.527,42.577 C31.572,42.397 31.755,42.289 31.932,42.332 L34.239,42.895 L33.673,40.589 C33.63,40.413 33.743,40.228 33.921,40.186 L33.985,40.17 C34.165,40.126 34.347,40.236 34.39,40.414 L34.94,42.674 L36.593,41.036 C36.723,40.907 36.935,40.907 37.063,41.039 L37.111,41.086 C37.242,41.216 37.239,41.426 37.111,41.556 L35.461,43.192 L37.717,43.745 Z"/>
    </g>
  </g>
</svg>
