<svg xmlns="http://www.w3.org/2000/svg" width="55" height="55" viewBox="0 0 55 55">
  <g fill="none" fill-rule="evenodd">
    <rect width="55" height="55"/>
    <path fill="#D5DCE2" d="M40.03,24.704 L39.13,24.29 L39.057,23.301 C38.821,20.118 36.133,17.624 32.936,17.624 C32.372,17.624 31.801,17.704 31.238,17.862 L30.251,18.138 L29.554,17.388 C28.009,15.726 25.821,14.773 23.55,14.773 C19.662,14.773 16.282,17.544 15.517,21.363 L15.338,22.257 L14.489,22.595 C11.624,23.73 9.699,26.559 9.699,29.635 C9.699,33.811 13.099,37.211 17.276,37.211 L37.304,37.211 C40.913,37.211 43.849,34.271 43.849,30.657 C43.849,28.108 42.351,25.772 40.03,24.704"/>
    <path fill="#FFCE00" d="M14.749,18.759 C14.514,19.249 14.316,19.761 14.164,20.294 L8.52,17.621 L15.22,15.552 C14.956,16.485 14.787,17.454 14.746,18.451 C14.742,18.555 14.75,18.656 14.749,18.759 Z M40.092,20.986 C40.173,20.498 40.225,20.005 40.246,19.503 C40.278,18.77 40.236,18.046 40.144,17.332 L46.479,20.331 L40.455,22.196 C40.367,21.778 40.245,21.376 40.092,20.986 Z M16.922,11.896 C16.458,12.584 16.058,13.313 15.734,14.08 L11.745,8.309 L18.592,9.873 C18.296,10.164 18.018,10.473 17.751,10.79 C17.729,10.816 17.709,10.844 17.687,10.87 C17.446,11.162 17.218,11.464 17.003,11.776 C16.976,11.815 16.95,11.855 16.922,11.896 Z M20.637,8.25 C20.405,8.401 20.177,8.557 19.955,8.721 C19.893,8.768 19.823,8.809 19.759,8.857 L19.184,1.863 L24.325,6.628 C23.101,6.945 21.95,7.44 20.898,8.084 C20.81,8.137 20.723,8.194 20.637,8.25 Z M28.026,6.231 C27.298,6.201 26.572,6.253 25.852,6.346 L28.859,0 L30.928,6.697 C29.99,6.438 29.021,6.272 28.026,6.231 Z M32.405,7.207 L38.171,3.221 L36.605,10.057 C35.391,8.816 33.967,7.857 32.405,7.207 Z M37.637,11.233 L44.617,10.658 L39.859,15.786 C39.439,14.144 38.686,12.601 37.637,11.233 Z M23.551,13.202 C20.946,13.202 18.535,14.244 16.76,15.964 C17.902,11.961 21.253,8.781 25.463,8.002 C26.278,7.85 27.12,7.79 27.962,7.825 C30.942,7.947 33.696,9.222 35.717,11.417 C37.555,13.414 38.573,15.955 38.648,18.643 C37.227,17.065 35.196,16.053 32.938,16.053 C32.231,16.053 31.516,16.152 30.815,16.35 L30.751,16.367 L30.705,16.319 C28.864,14.337 26.256,13.202 23.551,13.202 Z"/>
    <g>
      <rect width="55" height="55"/>
      <path fill="#009EFF" d="M19.1,45.229 C17.777,47.783 14.758,46.112 16.028,43.647 C17.106,41.552 19.696,40.285 19.696,40.285 C19.696,40.285 20.147,43.201 19.1,45.229 Z M26.171,53.163 C24.848,55.717 21.829,54.046 23.099,51.581 C24.177,49.486 26.767,48.219 26.767,48.219 C26.767,48.219 27.218,51.135 26.171,53.163 Z M39.37,45.229 C38.047,47.783 35.028,46.112 36.298,43.647 C37.376,41.552 39.966,40.285 39.966,40.285 C39.966,40.285 40.416,43.201 39.37,45.229 Z"/>
      <path fill="#38C0E0" d="M30.873,43.853 C31.05,43.897 31.162,44.08 31.117,44.257 L31.1,44.321 C31.057,44.498 30.875,44.61 30.698,44.565 L28.393,44.003 L28.956,46.309 C29.002,46.487 28.89,46.667 28.709,46.712 L28.645,46.726 C28.468,46.771 28.286,46.66 28.243,46.482 L27.688,44.218 L26.037,45.86 C25.906,45.988 25.697,45.988 25.566,45.857 L25.518,45.81 C25.391,45.679 25.391,45.468 25.521,45.337 L27.168,43.703 L24.914,43.152 C24.736,43.11 24.622,42.93 24.669,42.749 L24.683,42.685 C24.728,42.505 24.911,42.397 25.088,42.44 L27.395,43.003 L26.829,40.697 C26.786,40.521 26.899,40.336 27.077,40.294 L27.141,40.278 C27.321,40.234 27.503,40.344 27.546,40.522 L28.096,42.782 L29.749,41.144 C29.879,41.015 30.091,41.015 30.219,41.147 L30.267,41.194 C30.398,41.324 30.395,41.534 30.267,41.664 L28.617,43.3 L30.873,43.853 Z M37.943,51.679 C38.12,51.722 38.233,51.906 38.187,52.083 L38.17,52.147 C38.127,52.324 37.945,52.436 37.768,52.391 L35.463,51.829 L36.026,54.135 C36.072,54.313 35.96,54.493 35.779,54.538 L35.715,54.552 C35.538,54.597 35.356,54.486 35.313,54.308 L34.758,52.044 L33.107,53.686 C32.976,53.814 32.767,53.814 32.636,53.683 L32.588,53.636 C32.461,53.505 32.461,53.294 32.591,53.163 L34.238,51.529 L31.984,50.978 C31.806,50.936 31.692,50.756 31.739,50.575 L31.753,50.511 C31.798,50.331 31.981,50.223 32.158,50.266 L34.465,50.829 L33.899,48.523 C33.856,48.347 33.969,48.162 34.147,48.12 L34.211,48.104 C34.391,48.06 34.573,48.17 34.616,48.348 L35.166,50.608 L36.819,48.97 C36.949,48.841 37.161,48.841 37.289,48.973 L37.337,49.02 C37.468,49.15 37.465,49.36 37.337,49.49 L35.687,51.126 L37.943,51.679 Z M17.674,51.679 C17.851,51.722 17.963,51.906 17.919,52.083 L17.902,52.147 C17.859,52.324 17.677,52.436 17.5,52.391 L15.195,51.829 L15.758,54.135 C15.804,54.313 15.692,54.493 15.511,54.538 L15.447,54.552 C15.27,54.597 15.088,54.486 15.045,54.308 L14.49,52.044 L12.839,53.686 C12.708,53.814 12.499,53.814 12.368,53.683 L12.32,53.636 C12.193,53.505 12.193,53.294 12.323,53.163 L13.97,51.529 L11.716,50.978 C11.538,50.936 11.424,50.756 11.471,50.575 L11.485,50.511 C11.53,50.331 11.713,50.223 11.89,50.266 L14.197,50.829 L13.631,48.523 C13.587,48.347 13.7,48.162 13.878,48.12 L13.942,48.104 C14.122,48.06 14.304,48.17 14.347,48.348 L14.897,50.608 L16.55,48.97 C16.68,48.841 16.892,48.841 17.02,48.973 L17.068,49.02 C17.199,49.15 17.196,49.36 17.068,49.49 L15.418,51.126 L17.674,51.679 Z"/>
    </g>
  </g>
</svg>
