<svg xmlns="http://www.w3.org/2000/svg" width="55" height="55" viewBox="0 0 55 55">
  <g fill="none" fill-rule="evenodd">
    <rect width="55" height="55"/>
    <path fill="#FFCE00" d="M27.841,9.173 C27.818,9.149 27.792,9.129 27.77,9.104 C27.859,9.058 27.954,9.01 28.038,8.965 C28.896,8.592 29.807,8.319 30.759,8.17 C31.599,8.037 32.462,7.998 33.322,8.057 C36.367,8.262 39.151,9.644 41.159,11.946 C43.164,14.247 44.155,17.189 43.943,20.235 C43.917,20.64 43.86,21.037 43.791,21.431 C43.786,21.416 43.778,21.403 43.774,21.39 C43.146,19.472 41.803,17.883 40.052,16.955 C40.039,16.947 40.027,16.938 40.013,16.93 C39.822,16.83 39.616,16.757 39.416,16.673 C39.221,16.59 39.031,16.5 38.829,16.433 C38.654,16.377 38.47,16.343 38.291,16.298 C38.052,16.239 37.814,16.177 37.567,16.142 C37.517,16.135 37.473,16.118 37.423,16.111 C37.469,15.099 37.073,14.029 37.068,14.016 C36.384,12.197 35.083,10.722 33.303,9.75 C32.24,9.17 31.097,8.877 29.905,8.877 C29.216,8.877 28.519,8.981 27.849,9.181 L27.841,9.173 Z M26.484,7.936 C25.943,7.507 25.374,7.141 24.784,6.829 L24.501,1.715 L29.632,6.733 C28.518,6.989 27.47,7.412 26.484,7.936 Z M33.432,6.428 C32.688,6.377 31.943,6.411 31.203,6.486 L34.455,0.075 L36.389,6.985 C35.437,6.694 34.449,6.496 33.432,6.428 Z M37.887,7.547 L43.898,3.625 L42.108,10.579 C40.899,9.276 39.468,8.254 37.887,7.547 Z M43.131,11.811 L50.29,11.414 L45.281,16.532 C44.895,14.84 44.167,13.24 43.131,11.811 Z M45.528,18.122 L51.931,21.366 L45.01,23.307 C45.307,22.357 45.505,21.368 45.574,20.347 C45.625,19.598 45.601,18.855 45.528,18.122 Z"/>
    <path fill="#D5DCE2" d="M11.659,29.635 C11.659,30.611 11.816,31.552 12.102,32.435 C10.891,32.218 9.915,31.95 9.915,31.95 C6.36,30.707 3.866,27.187 4.216,23.141 C4.5,19.853 6.787,17.073 9.855,15.855 L10.537,15.584 L10.74,14.576 C11.773,9.413 17.052,5.948 22.473,7.543 C24.099,8.021 25.536,9.002 26.691,10.243 L27.342,10.944 C27.342,10.944 27.387,10.97 27.456,11.013 C29.028,10.26 30.888,10.223 32.551,11.131 C34.101,11.978 35.087,13.213 35.598,14.57 C35.653,14.717 35.889,15.564 35.848,16.097 C35.345,16.138 34.841,16.211 34.345,16.35 L34.281,16.368 L34.235,16.318 C32.394,14.338 29.786,13.203 27.081,13.203 C22.444,13.203 18.418,16.504 17.507,21.055 L17.497,21.113 L17.441,21.135 C13.982,22.505 11.659,25.921 11.659,29.635 Z M43.561,24.704 C45.881,25.772 47.379,28.108 47.38,30.658 C47.38,34.272 44.444,37.212 40.835,37.212 L20.807,37.212 C16.63,37.212 13.23,33.812 13.23,29.636 C13.23,26.56 15.155,23.731 18.02,22.596 L18.87,22.258 L19.048,21.364 C19.813,17.545 23.193,14.774 27.081,14.774 C29.352,14.774 31.54,15.727 33.085,17.389 L33.782,18.139 L34.769,17.863 C35.332,17.706 35.903,17.625 36.467,17.625 C39.664,17.625 42.352,20.118 42.588,23.303 L42.661,24.29 L43.561,24.704 Z"/>
    <g>
      <rect width="55" height="55"/>
      <polygon fill="#FF7800" points="31.037 43.465 28.222 43.422 30.53 39.385 26.967 39.415 23.944 45.438 26.576 45.438 22.88 54.567"/>
      <path fill="#009EFF" d="M38.659,45.229 C37.336,47.783 34.317,46.112 35.587,43.647 C36.665,41.552 39.255,40.285 39.255,40.285 C39.255,40.285 39.705,43.201 38.659,45.229"/>
      <path fill="#38C0E0" d="M21.395,43.745 L19.139,43.192 L20.789,41.556 C20.917,41.426 20.92,41.216 20.789,41.086 L20.741,41.039 C20.613,40.907 20.401,40.907 20.271,41.036 L18.618,42.674 L18.068,40.414 C18.025,40.236 17.843,40.126 17.663,40.17 L17.599,40.186 C17.421,40.228 17.308,40.413 17.352,40.589 L17.918,42.895 L15.611,42.332 C15.434,42.289 15.251,42.397 15.206,42.577 L15.192,42.641 C15.145,42.822 15.259,43.002 15.437,43.044 L17.691,43.595 L16.044,45.229 C15.914,45.36 15.914,45.571 16.041,45.702 L16.089,45.749 C16.22,45.88 16.429,45.88 16.56,45.752 L18.211,44.11 L18.766,46.374 C18.809,46.552 18.991,46.663 19.168,46.618 L19.232,46.604 C19.413,46.559 19.525,46.379 19.479,46.201 L18.916,43.895 L21.221,44.457 C21.398,44.502 21.58,44.39 21.623,44.213 L21.64,44.149 C21.685,43.971 21.572,43.788 21.395,43.745"/>
    </g>
  </g>
</svg>
