<svg xmlns="http://www.w3.org/2000/svg" width="55" height="55" viewBox="0 0 55 55">
  <g fill="none" fill-rule="evenodd">
    <rect width="55" height="55"/>
    <path fill="#FFCE00" d="M27.841,9.173 C27.818,9.149 27.792,9.129 27.77,9.104 C27.859,9.058 27.954,9.01 28.038,8.965 C28.896,8.592 29.807,8.319 30.759,8.17 C31.599,8.037 32.462,7.998 33.322,8.057 C36.367,8.262 39.151,9.644 41.159,11.946 C43.164,14.247 44.155,17.189 43.943,20.235 C43.917,20.64 43.86,21.037 43.791,21.431 C43.786,21.416 43.778,21.403 43.774,21.39 C43.146,19.472 41.803,17.883 40.052,16.955 C40.039,16.947 40.027,16.938 40.013,16.93 C39.822,16.83 39.616,16.757 39.416,16.673 C39.221,16.59 39.031,16.5 38.829,16.433 C38.654,16.377 38.47,16.343 38.291,16.298 C38.052,16.239 37.814,16.177 37.567,16.142 C37.517,16.135 37.473,16.118 37.423,16.111 C37.469,15.099 37.073,14.029 37.068,14.016 C36.384,12.197 35.083,10.722 33.303,9.75 C32.24,9.17 31.097,8.877 29.905,8.877 C29.216,8.877 28.519,8.981 27.849,9.181 L27.841,9.173 Z M26.484,7.936 C25.943,7.507 25.374,7.141 24.784,6.829 L24.501,1.715 L29.632,6.733 C28.518,6.989 27.47,7.412 26.484,7.936 Z M33.432,6.428 C32.688,6.377 31.943,6.411 31.203,6.486 L34.455,0.075 L36.389,6.985 C35.437,6.694 34.449,6.496 33.432,6.428 Z M37.887,7.547 L43.898,3.625 L42.108,10.579 C40.899,9.276 39.468,8.254 37.887,7.547 Z M43.131,11.811 L50.29,11.414 L45.281,16.532 C44.895,14.84 44.167,13.24 43.131,11.811 Z M45.528,18.122 L51.931,21.366 L45.01,23.307 C45.307,22.357 45.505,21.368 45.574,20.347 C45.625,19.598 45.601,18.855 45.528,18.122 Z"/>
    <path fill="#D5DCE2" d="M11.659,29.635 C11.659,30.611 11.816,31.552 12.102,32.435 C10.891,32.218 9.915,31.95 9.915,31.95 C6.36,30.707 3.866,27.187 4.216,23.141 C4.5,19.853 6.787,17.073 9.855,15.855 L10.537,15.584 L10.74,14.576 C11.773,9.413 17.052,5.948 22.473,7.543 C24.099,8.021 25.536,9.002 26.691,10.243 L27.342,10.944 C27.342,10.944 27.387,10.97 27.456,11.013 C29.028,10.26 30.888,10.223 32.551,11.131 C34.101,11.978 35.087,13.213 35.598,14.57 C35.653,14.717 35.889,15.564 35.848,16.097 C35.345,16.138 34.841,16.211 34.345,16.35 L34.281,16.368 L34.235,16.318 C32.394,14.338 29.786,13.203 27.081,13.203 C22.444,13.203 18.418,16.504 17.507,21.055 L17.497,21.113 L17.441,21.135 C13.982,22.505 11.659,25.921 11.659,29.635 Z M43.561,24.704 C45.881,25.772 47.379,28.108 47.38,30.658 C47.38,34.272 44.444,37.212 40.835,37.212 L20.807,37.212 C16.63,37.212 13.23,33.812 13.23,29.636 C13.23,26.56 15.155,23.731 18.02,22.596 L18.87,22.258 L19.048,21.364 C19.813,17.545 23.193,14.774 27.081,14.774 C29.352,14.774 31.54,15.727 33.085,17.389 L33.782,18.139 L34.769,17.863 C35.332,17.706 35.903,17.625 36.467,17.625 C39.664,17.625 42.352,20.118 42.588,23.303 L42.661,24.29 L43.561,24.704 Z"/>
    <g>
      <rect width="55" height="55"/>
      <polygon fill="#FF7800" points="32.873 43.465 30.058 43.422 32.366 39.385 28.803 39.415 25.78 45.438 28.412 45.438 24.716 54.567"/>
      <path fill="#38C0E0" d="M37.845,51.602 C38.022,51.645 38.135,51.828 38.089,52.007 L38.072,52.071 C38.029,52.248 37.847,52.36 37.67,52.315 L35.365,51.753 L35.928,54.059 C35.974,54.237 35.862,54.417 35.681,54.462 L35.617,54.476 C35.44,54.521 35.258,54.41 35.215,54.232 L34.66,51.968 L33.009,53.61 C32.878,53.738 32.669,53.738 32.538,53.607 L32.49,53.56 C32.363,53.429 32.363,53.218 32.493,53.087 L34.14,51.453 L31.886,50.902 C31.708,50.86 31.594,50.68 31.641,50.499 L31.655,50.435 C31.7,50.255 31.883,50.147 32.06,50.19 L34.367,50.752 L33.801,48.446 C33.758,48.27 33.871,48.085 34.049,48.043 L34.113,48.027 C34.293,47.983 34.475,48.093 34.518,48.271 L35.068,50.531 L36.721,48.893 C36.851,48.764 37.063,48.764 37.191,48.896 L37.239,48.943 C37.37,49.073 37.367,49.283 37.239,49.413 L35.589,51.049 L37.845,51.602 Z M43.006,43.745 C43.183,43.788 43.295,43.971 43.251,44.149 L43.234,44.213 C43.191,44.39 43.009,44.502 42.832,44.457 L40.527,43.895 L41.09,46.201 C41.135,46.379 41.023,46.559 40.842,46.604 L40.778,46.618 C40.601,46.663 40.419,46.552 40.376,46.374 L39.821,44.11 L38.17,45.752 C38.039,45.88 37.83,45.88 37.699,45.749 L37.651,45.702 C37.524,45.571 37.524,45.36 37.654,45.229 L39.301,43.595 L37.047,43.044 C36.869,43.002 36.755,42.822 36.802,42.641 L36.816,42.577 C36.861,42.397 37.044,42.289 37.221,42.332 L39.528,42.895 L38.962,40.589 C38.919,40.413 39.032,40.228 39.21,40.186 L39.274,40.17 C39.454,40.126 39.636,40.236 39.679,40.414 L40.229,42.674 L41.882,41.036 C42.012,40.907 42.224,40.907 42.352,41.039 L42.4,41.086 C42.531,41.216 42.528,41.426 42.4,41.556 L40.75,43.192 L43.006,43.745 Z M22.007,51.602 C22.184,51.645 22.296,51.828 22.252,52.006 L22.235,52.07 C22.192,52.247 22.01,52.359 21.833,52.314 L19.528,51.752 L20.091,54.058 C20.137,54.236 20.025,54.416 19.844,54.461 L19.78,54.475 C19.603,54.52 19.421,54.409 19.378,54.231 L18.823,51.967 L17.172,53.609 C17.041,53.737 16.832,53.737 16.701,53.606 L16.653,53.559 C16.526,53.428 16.526,53.217 16.656,53.086 L18.303,51.452 L16.049,50.901 C15.871,50.859 15.757,50.679 15.804,50.498 L15.818,50.434 C15.863,50.254 16.046,50.146 16.223,50.189 L18.53,50.752 L17.964,48.446 C17.92,48.27 18.033,48.085 18.211,48.043 L18.275,48.027 C18.455,47.983 18.637,48.093 18.68,48.271 L19.23,50.531 L20.883,48.893 C21.013,48.764 21.225,48.764 21.353,48.896 L21.401,48.943 C21.532,49.073 21.529,49.283 21.401,49.413 L19.751,51.049 L22.007,51.602 Z M22.15,43.745 C22.326,43.788 22.439,43.971 22.395,44.149 L22.378,44.213 C22.335,44.39 22.153,44.502 21.976,44.457 L19.671,43.895 L20.234,46.201 C20.28,46.379 20.168,46.559 19.987,46.604 L19.923,46.618 C19.746,46.663 19.564,46.552 19.521,46.374 L18.966,44.11 L17.315,45.752 C17.184,45.88 16.975,45.88 16.844,45.749 L16.796,45.702 C16.669,45.571 16.669,45.36 16.799,45.229 L18.446,43.595 L16.192,43.044 C16.014,43.002 15.9,42.822 15.947,42.641 L15.961,42.577 C16.006,42.397 16.189,42.289 16.366,42.332 L18.673,42.895 L18.107,40.589 C18.063,40.413 18.176,40.228 18.354,40.186 L18.418,40.17 C18.598,40.126 18.78,40.236 18.823,40.414 L19.373,42.674 L21.026,41.036 C21.156,40.907 21.368,40.907 21.496,41.039 L21.544,41.086 C21.675,41.216 21.672,41.426 21.544,41.556 L19.894,43.192 L22.15,43.745 Z"/>
    </g>
  </g>
</svg>
