<svg xmlns="http://www.w3.org/2000/svg" width="55" height="55" viewBox="0 0 55 55">
  <g fill="none" fill-rule="evenodd">
    <path fill="#FF7700" d="M31.53,39.385 L27.967,39.415 L31.53,39.385 Z"/>
    <rect width="55" height="55"/>
    <path fill="#FFCE00" d="M27.841,9.173 C27.818,9.149 27.792,9.129 27.77,9.104 C27.859,9.058 27.954,9.01 28.038,8.965 C28.896,8.592 29.807,8.319 30.759,8.17 C31.599,8.037 32.462,7.998 33.322,8.057 C36.367,8.262 39.151,9.644 41.159,11.946 C43.164,14.247 44.155,17.189 43.943,20.235 C43.917,20.64 43.86,21.037 43.791,21.431 C43.786,21.416 43.778,21.403 43.774,21.39 C43.146,19.472 41.803,17.883 40.052,16.955 C40.039,16.947 40.027,16.938 40.013,16.93 C39.822,16.83 39.616,16.757 39.416,16.673 C39.221,16.59 39.031,16.5 38.829,16.433 C38.654,16.377 38.47,16.343 38.291,16.298 C38.052,16.239 37.814,16.177 37.567,16.142 C37.517,16.135 37.473,16.118 37.423,16.111 C37.469,15.099 37.073,14.029 37.068,14.016 C36.384,12.197 35.083,10.722 33.303,9.75 C32.24,9.17 31.097,8.877 29.905,8.877 C29.216,8.877 28.519,8.981 27.849,9.181 L27.841,9.173 Z M26.484,7.936 C25.943,7.507 25.374,7.141 24.784,6.829 L24.501,1.715 L29.632,6.733 C28.518,6.989 27.47,7.412 26.484,7.936 Z M33.432,6.428 C32.688,6.377 31.943,6.411 31.203,6.486 L34.455,0.075 L36.389,6.985 C35.437,6.694 34.449,6.496 33.432,6.428 Z M37.887,7.547 L43.898,3.625 L42.108,10.579 C40.899,9.276 39.468,8.254 37.887,7.547 Z M43.131,11.811 L50.29,11.414 L45.281,16.532 C44.895,14.84 44.167,13.24 43.131,11.811 Z M45.528,18.122 L51.931,21.366 L45.01,23.307 C45.307,22.357 45.505,21.368 45.574,20.347 C45.625,19.598 45.601,18.855 45.528,18.122 Z"/>
    <path fill="#D5DCE2" d="M11.659,29.635 C11.659,30.611 11.816,31.552 12.102,32.435 C10.891,32.218 9.915,31.95 9.915,31.95 C6.36,30.707 3.866,27.187 4.216,23.141 C4.5,19.853 6.787,17.073 9.855,15.855 L10.537,15.584 L10.74,14.576 C11.773,9.413 17.052,5.948 22.473,7.543 C24.099,8.021 25.536,9.002 26.691,10.243 L27.342,10.944 C27.342,10.944 27.387,10.97 27.456,11.013 C29.028,10.26 30.888,10.223 32.551,11.131 C34.101,11.978 35.087,13.213 35.598,14.57 C35.653,14.717 35.889,15.564 35.848,16.097 C35.345,16.138 34.841,16.211 34.345,16.35 L34.281,16.368 L34.235,16.318 C32.394,14.338 29.786,13.203 27.081,13.203 C22.444,13.203 18.418,16.504 17.507,21.055 L17.497,21.113 L17.441,21.135 C13.982,22.505 11.659,25.921 11.659,29.635 Z M43.561,24.704 C45.881,25.772 47.379,28.108 47.38,30.658 C47.38,34.272 44.444,37.212 40.835,37.212 L20.807,37.212 C16.63,37.212 13.23,33.812 13.23,29.636 C13.23,26.56 15.155,23.731 18.02,22.596 L18.87,22.258 L19.048,21.364 C19.813,17.545 23.193,14.774 27.081,14.774 C29.352,14.774 31.54,15.727 33.085,17.389 L33.782,18.139 L34.769,17.863 C35.332,17.706 35.903,17.625 36.467,17.625 C39.664,17.625 42.352,20.118 42.588,23.303 L42.661,24.29 L43.561,24.704 Z"/>
    <g>
      <rect width="55" height="55"/>
      <polygon fill="#FF7800" points="32.037 43.465 29.222 43.422 31.53 39.385 27.967 39.415 24.944 45.438 27.576 45.438 23.88 54.567"/>
      <path fill="#009EFF" d="M20.461,45.229 C19.138,47.783 16.119,46.112 17.389,43.647 C18.467,41.552 21.057,40.285 21.057,40.285 C21.057,40.285 21.507,43.201 20.461,45.229 Z M36.931,53.086 C35.608,55.64 32.589,53.969 33.859,51.504 C34.937,49.409 37.527,48.142 37.527,48.142 C37.527,48.142 37.977,51.058 36.931,53.086 Z"/>
      <path fill="#38C0E0" d="M21.076,51.602 C21.253,51.645 21.366,51.828 21.321,52.006 L21.304,52.07 C21.261,52.247 21.079,52.359 20.902,52.314 L18.597,51.752 L19.16,54.058 C19.206,54.236 19.094,54.416 18.913,54.461 L18.849,54.475 C18.672,54.52 18.49,54.409 18.447,54.231 L17.892,51.967 L16.241,53.609 C16.11,53.737 15.901,53.737 15.77,53.606 L15.722,53.559 C15.595,53.428 15.595,53.217 15.725,53.086 L17.372,51.452 L15.118,50.901 C14.94,50.859 14.826,50.679 14.873,50.498 L14.887,50.434 C14.932,50.254 15.115,50.146 15.292,50.189 L17.599,50.752 L17.033,48.446 C16.989,48.27 17.102,48.085 17.28,48.043 L17.344,48.027 C17.524,47.983 17.706,48.093 17.749,48.271 L18.299,50.531 L19.952,48.893 C20.082,48.764 20.294,48.764 20.422,48.896 L20.47,48.943 C20.601,49.073 20.598,49.283 20.47,49.413 L18.82,51.049 L21.076,51.602 Z M41.31,43.745 C41.487,43.788 41.599,43.971 41.555,44.149 L41.538,44.213 C41.495,44.39 41.313,44.502 41.136,44.457 L38.831,43.895 L39.394,46.201 C39.439,46.379 39.327,46.559 39.146,46.604 L39.082,46.618 C38.905,46.663 38.723,46.552 38.68,46.374 L38.125,44.11 L36.474,45.752 C36.343,45.88 36.134,45.88 36.003,45.749 L35.955,45.702 C35.828,45.571 35.828,45.36 35.958,45.229 L37.605,43.595 L35.351,43.044 C35.173,43.002 35.059,42.822 35.106,42.641 L35.12,42.577 C35.165,42.397 35.348,42.289 35.525,42.332 L37.832,42.895 L37.266,40.589 C37.223,40.413 37.336,40.228 37.514,40.186 L37.578,40.17 C37.758,40.126 37.94,40.236 37.983,40.414 L38.533,42.674 L40.186,41.036 C40.316,40.907 40.528,40.907 40.656,41.039 L40.704,41.086 C40.835,41.216 40.832,41.426 40.704,41.556 L39.054,43.192 L41.31,43.745 Z"/>
    </g>
  </g>
</svg>
