<svg xmlns="http://www.w3.org/2000/svg" width="55" height="55" viewBox="0 0 55 55">
  <g fill="none" fill-rule="evenodd">
    <rect width="55" height="55"/>
    <path fill="#FFCE00" d="M27.841,9.173 C27.818,9.149 27.792,9.129 27.77,9.104 C27.859,9.058 27.954,9.01 28.038,8.965 C28.896,8.592 29.807,8.319 30.759,8.17 C31.599,8.037 32.462,7.998 33.322,8.057 C36.367,8.262 39.151,9.644 41.159,11.946 C43.164,14.247 44.155,17.189 43.943,20.235 C43.917,20.64 43.86,21.037 43.791,21.431 C43.786,21.416 43.778,21.403 43.774,21.39 C43.146,19.472 41.803,17.883 40.052,16.955 C40.039,16.947 40.027,16.938 40.013,16.93 C39.822,16.83 39.616,16.757 39.416,16.673 C39.221,16.59 39.031,16.5 38.829,16.433 C38.654,16.377 38.47,16.343 38.291,16.298 C38.052,16.239 37.814,16.177 37.567,16.142 C37.517,16.135 37.473,16.118 37.423,16.111 C37.469,15.099 37.073,14.029 37.068,14.016 C36.384,12.197 35.083,10.722 33.303,9.75 C32.24,9.17 31.097,8.877 29.905,8.877 C29.216,8.877 28.519,8.981 27.849,9.181 L27.841,9.173 Z M26.484,7.936 C25.943,7.507 25.374,7.141 24.784,6.829 L24.501,1.715 L29.632,6.733 C28.518,6.989 27.47,7.412 26.484,7.936 Z M33.432,6.428 C32.688,6.377 31.943,6.411 31.203,6.486 L34.455,0.075 L36.389,6.985 C35.437,6.694 34.449,6.496 33.432,6.428 Z M37.887,7.547 L43.898,3.625 L42.108,10.579 C40.899,9.276 39.468,8.254 37.887,7.547 Z M43.131,11.811 L50.29,11.414 L45.281,16.532 C44.895,14.84 44.167,13.24 43.131,11.811 Z M45.528,18.122 L51.931,21.366 L45.01,23.307 C45.307,22.357 45.505,21.368 45.574,20.347 C45.625,19.598 45.601,18.855 45.528,18.122 Z"/>
    <path fill="#D5DCE2" d="M11.659,29.635 C11.659,30.611 11.816,31.552 12.102,32.435 C10.891,32.218 9.915,31.95 9.915,31.95 C6.36,30.707 3.866,27.187 4.216,23.141 C4.5,19.853 6.787,17.073 9.855,15.855 L10.537,15.584 L10.74,14.576 C11.773,9.413 17.052,5.948 22.473,7.543 C24.099,8.021 25.536,9.002 26.691,10.243 L27.342,10.944 C27.342,10.944 27.387,10.97 27.456,11.013 C29.028,10.26 30.888,10.223 32.551,11.131 C34.101,11.978 35.087,13.213 35.598,14.57 C35.653,14.717 35.889,15.564 35.848,16.097 C35.345,16.138 34.841,16.211 34.345,16.35 L34.281,16.368 L34.235,16.318 C32.394,14.338 29.786,13.203 27.081,13.203 C22.444,13.203 18.418,16.504 17.507,21.055 L17.497,21.113 L17.441,21.135 C13.982,22.505 11.659,25.921 11.659,29.635 Z M43.561,24.704 C45.881,25.772 47.379,28.108 47.38,30.658 C47.38,34.272 44.444,37.212 40.835,37.212 L20.807,37.212 C16.63,37.212 13.23,33.812 13.23,29.636 C13.23,26.56 15.155,23.731 18.02,22.596 L18.87,22.258 L19.048,21.364 C19.813,17.545 23.193,14.774 27.081,14.774 C29.352,14.774 31.54,15.727 33.085,17.389 L33.782,18.139 L34.769,17.863 C35.332,17.706 35.903,17.625 36.467,17.625 C39.664,17.625 42.352,20.118 42.588,23.303 L42.661,24.29 L43.561,24.704 Z"/>
    <g>
      <rect width="55" height="55"/>
      <path fill="#009EFF" d="M19.1,45.229 C17.777,47.783 14.758,46.112 16.028,43.647 C17.106,41.552 19.696,40.285 19.696,40.285 C19.696,40.285 20.147,43.201 19.1,45.229 Z M26.171,53.163 C24.848,55.717 21.829,54.046 23.099,51.581 C24.177,49.486 26.767,48.219 26.767,48.219 C26.767,48.219 27.218,51.135 26.171,53.163 Z M39.37,45.229 C38.047,47.783 35.028,46.112 36.298,43.647 C37.376,41.552 39.966,40.285 39.966,40.285 C39.966,40.285 40.416,43.201 39.37,45.229 Z"/>
      <path fill="#38C0E0" d="M30.873,43.853 C31.05,43.897 31.162,44.08 31.117,44.257 L31.1,44.321 C31.057,44.498 30.875,44.61 30.698,44.565 L28.393,44.003 L28.956,46.309 C29.002,46.487 28.89,46.667 28.709,46.712 L28.645,46.726 C28.468,46.771 28.286,46.66 28.243,46.482 L27.688,44.218 L26.037,45.86 C25.906,45.988 25.697,45.988 25.566,45.857 L25.518,45.81 C25.391,45.679 25.391,45.468 25.521,45.337 L27.168,43.703 L24.914,43.152 C24.736,43.11 24.622,42.93 24.669,42.749 L24.683,42.685 C24.728,42.505 24.911,42.397 25.088,42.44 L27.395,43.003 L26.829,40.697 C26.786,40.521 26.899,40.336 27.077,40.294 L27.141,40.278 C27.321,40.234 27.503,40.344 27.546,40.522 L28.096,42.782 L29.749,41.144 C29.879,41.015 30.091,41.015 30.219,41.147 L30.267,41.194 C30.398,41.324 30.395,41.534 30.267,41.664 L28.617,43.3 L30.873,43.853 Z M37.943,51.679 C38.12,51.722 38.233,51.906 38.187,52.083 L38.17,52.147 C38.127,52.324 37.945,52.436 37.768,52.391 L35.463,51.829 L36.026,54.135 C36.072,54.313 35.96,54.493 35.779,54.538 L35.715,54.552 C35.538,54.597 35.356,54.486 35.313,54.308 L34.758,52.044 L33.107,53.686 C32.976,53.814 32.767,53.814 32.636,53.683 L32.588,53.636 C32.461,53.505 32.461,53.294 32.591,53.163 L34.238,51.529 L31.984,50.978 C31.806,50.936 31.692,50.756 31.739,50.575 L31.753,50.511 C31.798,50.331 31.981,50.223 32.158,50.266 L34.465,50.829 L33.899,48.523 C33.856,48.347 33.969,48.162 34.147,48.12 L34.211,48.104 C34.391,48.06 34.573,48.17 34.616,48.348 L35.166,50.608 L36.819,48.97 C36.949,48.841 37.161,48.841 37.289,48.973 L37.337,49.02 C37.468,49.15 37.465,49.36 37.337,49.49 L35.687,51.126 L37.943,51.679 Z M17.674,51.679 C17.851,51.722 17.963,51.906 17.919,52.083 L17.902,52.147 C17.859,52.324 17.677,52.436 17.5,52.391 L15.195,51.829 L15.758,54.135 C15.804,54.313 15.692,54.493 15.511,54.538 L15.447,54.552 C15.27,54.597 15.088,54.486 15.045,54.308 L14.49,52.044 L12.839,53.686 C12.708,53.814 12.499,53.814 12.368,53.683 L12.32,53.636 C12.193,53.505 12.193,53.294 12.323,53.163 L13.97,51.529 L11.716,50.978 C11.538,50.936 11.424,50.756 11.471,50.575 L11.485,50.511 C11.53,50.331 11.713,50.223 11.89,50.266 L14.197,50.829 L13.631,48.523 C13.587,48.347 13.7,48.162 13.878,48.12 L13.942,48.104 C14.122,48.06 14.304,48.17 14.347,48.348 L14.897,50.608 L16.55,48.97 C16.68,48.841 16.892,48.841 17.02,48.973 L17.068,49.02 C17.199,49.15 17.196,49.36 17.068,49.49 L15.418,51.126 L17.674,51.679 Z"/>
    </g>
  </g>
</svg>
