<svg xmlns="http://www.w3.org/2000/svg" width="55" height="55" viewBox="0 0 55 55">
  <g fill="none" fill-rule="evenodd">
    <rect width="55" height="55"/>
    <path fill="#FFCE00" d="M27.841,9.173 C27.818,9.149 27.792,9.129 27.77,9.104 C27.859,9.058 27.954,9.01 28.038,8.965 C28.896,8.592 29.807,8.319 30.759,8.17 C31.599,8.037 32.462,7.998 33.322,8.057 C36.367,8.262 39.151,9.644 41.159,11.946 C43.164,14.247 44.155,17.189 43.943,20.235 C43.917,20.64 43.86,21.037 43.791,21.431 C43.786,21.416 43.778,21.403 43.774,21.39 C43.146,19.472 41.803,17.883 40.052,16.955 C40.039,16.947 40.027,16.938 40.013,16.93 C39.822,16.83 39.616,16.757 39.416,16.673 C39.221,16.59 39.031,16.5 38.829,16.433 C38.654,16.377 38.47,16.343 38.291,16.298 C38.052,16.239 37.814,16.177 37.567,16.142 C37.517,16.135 37.473,16.118 37.423,16.111 C37.469,15.099 37.073,14.029 37.068,14.016 C36.384,12.197 35.083,10.722 33.303,9.75 C32.24,9.17 31.097,8.877 29.905,8.877 C29.216,8.877 28.519,8.981 27.849,9.181 L27.841,9.173 Z M26.484,7.936 C25.943,7.507 25.374,7.141 24.784,6.829 L24.501,1.715 L29.632,6.733 C28.518,6.989 27.47,7.412 26.484,7.936 Z M33.432,6.428 C32.688,6.377 31.943,6.411 31.203,6.486 L34.455,0.075 L36.389,6.985 C35.437,6.694 34.449,6.496 33.432,6.428 Z M37.887,7.547 L43.898,3.625 L42.108,10.579 C40.899,9.276 39.468,8.254 37.887,7.547 Z M43.131,11.811 L50.29,11.414 L45.281,16.532 C44.895,14.84 44.167,13.24 43.131,11.811 Z M45.528,18.122 L51.931,21.366 L45.01,23.307 C45.307,22.357 45.505,21.368 45.574,20.347 C45.625,19.598 45.601,18.855 45.528,18.122 Z"/>
    <path fill="#D5DCE2" d="M11.659,29.635 C11.659,30.611 11.816,31.552 12.102,32.435 C10.891,32.218 9.915,31.95 9.915,31.95 C6.36,30.707 3.866,27.187 4.216,23.141 C4.5,19.853 6.787,17.073 9.855,15.855 L10.537,15.584 L10.74,14.576 C11.773,9.413 17.052,5.948 22.473,7.543 C24.099,8.021 25.536,9.002 26.691,10.243 L27.342,10.944 C27.342,10.944 27.387,10.97 27.456,11.013 C29.028,10.26 30.888,10.223 32.551,11.131 C34.101,11.978 35.087,13.213 35.598,14.57 C35.653,14.717 35.889,15.564 35.848,16.097 C35.345,16.138 34.841,16.211 34.345,16.35 L34.281,16.368 L34.235,16.318 C32.394,14.338 29.786,13.203 27.081,13.203 C22.444,13.203 18.418,16.504 17.507,21.055 L17.497,21.113 L17.441,21.135 C13.982,22.505 11.659,25.921 11.659,29.635 Z M43.561,24.704 C45.881,25.772 47.379,28.108 47.38,30.658 C47.38,34.272 44.444,37.212 40.835,37.212 L20.807,37.212 C16.63,37.212 13.23,33.812 13.23,29.636 C13.23,26.56 15.155,23.731 18.02,22.596 L18.87,22.258 L19.048,21.364 C19.813,17.545 23.193,14.774 27.081,14.774 C29.352,14.774 31.54,15.727 33.085,17.389 L33.782,18.139 L34.769,17.863 C35.332,17.706 35.903,17.625 36.467,17.625 C39.664,17.625 42.352,20.118 42.588,23.303 L42.661,24.29 L43.561,24.704 Z"/>
    <g>
      <rect width="55" height="55"/>
      <path fill="#009EFF" d="M18.105,45.229 C16.782,47.783 13.763,46.112 15.033,43.647 C16.111,41.552 18.701,40.285 18.701,40.285 C18.701,40.285 19.151,43.201 18.105,45.229 Z M20.139,53.04 C18.816,55.594 15.797,53.923 17.067,51.458 C18.145,49.363 20.735,48.096 20.735,48.096 C20.735,48.096 21.185,51.011 20.139,53.04 Z M41.131,45.229 C39.808,47.783 36.789,46.112 38.059,43.647 C39.137,41.552 41.727,40.285 41.727,40.285 C41.727,40.285 42.177,43.201 41.131,45.229 Z"/>
      <polygon fill="#FF7800" points="32.037 43.465 29.222 43.422 31.53 39.385 27.967 39.415 24.944 45.438 27.576 45.438 23.88 54.567"/>
      <path fill="#38C0E0" d="M13.247,51.555 C13.424,51.598 13.537,51.782 13.492,51.959 L13.475,52.023 C13.432,52.2 13.25,52.312 13.073,52.267 L10.768,51.705 L11.331,54.011 C11.376,54.189 11.264,54.369 11.083,54.414 L11.019,54.428 C10.842,54.473 10.66,54.362 10.617,54.184 L10.062,51.92 L8.411,53.562 C8.28,53.69 8.071,53.69 7.94,53.559 L7.892,53.512 C7.765,53.381 7.765,53.17 7.895,53.039 L9.542,51.405 L7.288,50.854 C7.11,50.812 6.996,50.632 7.043,50.451 L7.057,50.387 C7.102,50.207 7.285,50.099 7.462,50.142 L9.769,50.705 L9.203,48.399 C9.16,48.223 9.273,48.038 9.451,47.996 L9.515,47.98 C9.695,47.936 9.877,48.046 9.92,48.224 L10.47,50.484 L12.123,48.846 C12.253,48.717 12.465,48.717 12.593,48.849 L12.641,48.896 C12.772,49.026 12.769,49.236 12.641,49.366 L10.991,51.002 L13.247,51.555 Z M37.049,51.555 C37.226,51.598 37.338,51.782 37.293,51.959 L37.276,52.023 C37.233,52.2 37.051,52.312 36.874,52.267 L34.569,51.705 L35.132,54.011 C35.178,54.189 35.066,54.369 34.885,54.414 L34.821,54.428 C34.644,54.473 34.462,54.362 34.419,54.184 L33.864,51.92 L32.213,53.562 C32.082,53.69 31.873,53.69 31.742,53.559 L31.694,53.512 C31.567,53.381 31.567,53.17 31.697,53.039 L33.344,51.405 L31.09,50.854 C30.912,50.812 30.798,50.632 30.845,50.451 L30.859,50.387 C30.904,50.207 31.087,50.099 31.264,50.142 L33.571,50.705 L33.005,48.399 C32.962,48.223 33.075,48.038 33.253,47.996 L33.317,47.98 C33.497,47.936 33.679,48.046 33.722,48.224 L34.272,50.484 L35.925,48.846 C36.055,48.717 36.267,48.717 36.395,48.849 L36.443,48.896 C36.574,49.026 36.571,49.236 36.443,49.366 L34.793,51.002 L37.049,51.555 Z M45.553,51.555 C45.73,51.598 45.843,51.782 45.796,51.962 L45.779,52.026 C45.736,52.203 45.554,52.315 45.377,52.27 L43.072,51.708 L43.635,54.014 C43.681,54.192 43.569,54.372 43.388,54.417 L43.324,54.431 C43.147,54.476 42.965,54.365 42.922,54.187 L42.367,51.923 L40.716,53.565 C40.585,53.693 40.376,53.693 40.245,53.562 L40.197,53.515 C40.07,53.384 40.07,53.173 40.2,53.042 L41.848,51.405 L39.594,50.854 C39.416,50.812 39.302,50.632 39.349,50.451 L39.363,50.387 C39.408,50.207 39.591,50.099 39.768,50.142 L42.075,50.705 L41.509,48.399 C41.466,48.223 41.579,48.038 41.757,47.996 L41.821,47.98 C42.001,47.936 42.183,48.046 42.226,48.224 L42.776,50.484 L44.429,48.846 C44.559,48.717 44.771,48.717 44.899,48.849 L44.947,48.896 C45.078,49.026 45.075,49.236 44.947,49.366 L43.297,51.002 L45.553,51.555 Z"/>
    </g>
  </g>
</svg>
