<svg xmlns="http://www.w3.org/2000/svg" width="55" height="55" viewBox="0 0 55 55">
  <g fill="none" fill-rule="evenodd">
    <rect width="55" height="55"/>
    <path fill="#FFCE00" d="M27.841,9.173 C27.818,9.149 27.792,9.129 27.77,9.104 C27.859,9.058 27.954,9.01 28.038,8.965 C28.896,8.592 29.807,8.319 30.759,8.17 C31.599,8.037 32.462,7.998 33.322,8.057 C36.367,8.262 39.151,9.644 41.159,11.946 C43.164,14.247 44.155,17.189 43.943,20.235 C43.917,20.64 43.86,21.037 43.791,21.431 C43.786,21.416 43.778,21.403 43.774,21.39 C43.146,19.472 41.803,17.883 40.052,16.955 C40.039,16.947 40.027,16.938 40.013,16.93 C39.822,16.83 39.616,16.757 39.416,16.673 C39.221,16.59 39.031,16.5 38.829,16.433 C38.654,16.377 38.47,16.343 38.291,16.298 C38.052,16.239 37.814,16.177 37.567,16.142 C37.517,16.135 37.473,16.118 37.423,16.111 C37.469,15.099 37.073,14.029 37.068,14.016 C36.384,12.197 35.083,10.722 33.303,9.75 C32.24,9.17 31.097,8.877 29.905,8.877 C29.216,8.877 28.519,8.981 27.849,9.181 L27.841,9.173 Z M26.484,7.936 C25.943,7.507 25.374,7.141 24.784,6.829 L24.501,1.715 L29.632,6.733 C28.518,6.989 27.47,7.412 26.484,7.936 Z M33.432,6.428 C32.688,6.377 31.943,6.411 31.203,6.486 L34.455,0.075 L36.389,6.985 C35.437,6.694 34.449,6.496 33.432,6.428 Z M37.887,7.547 L43.898,3.625 L42.108,10.579 C40.899,9.276 39.468,8.254 37.887,7.547 Z M43.131,11.811 L50.29,11.414 L45.281,16.532 C44.895,14.84 44.167,13.24 43.131,11.811 Z M45.528,18.122 L51.931,21.366 L45.01,23.307 C45.307,22.357 45.505,21.368 45.574,20.347 C45.625,19.598 45.601,18.855 45.528,18.122 Z"/>
    <path fill="#D5DCE2" d="M11.659,29.635 C11.659,30.611 11.816,31.552 12.102,32.435 C10.891,32.218 9.915,31.95 9.915,31.95 C6.36,30.707 3.866,27.187 4.216,23.141 C4.5,19.853 6.787,17.073 9.855,15.855 L10.537,15.584 L10.74,14.576 C11.773,9.413 17.052,5.948 22.473,7.543 C24.099,8.021 25.536,9.002 26.691,10.243 L27.342,10.944 C27.342,10.944 27.387,10.97 27.456,11.013 C29.028,10.26 30.888,10.223 32.551,11.131 C34.101,11.978 35.087,13.213 35.598,14.57 C35.653,14.717 35.889,15.564 35.848,16.097 C35.345,16.138 34.841,16.211 34.345,16.35 L34.281,16.368 L34.235,16.318 C32.394,14.338 29.786,13.203 27.081,13.203 C22.444,13.203 18.418,16.504 17.507,21.055 L17.497,21.113 L17.441,21.135 C13.982,22.505 11.659,25.921 11.659,29.635 Z M43.561,24.704 C45.881,25.772 47.379,28.108 47.38,30.658 C47.38,34.272 44.444,37.212 40.835,37.212 L20.807,37.212 C16.63,37.212 13.23,33.812 13.23,29.636 C13.23,26.56 15.155,23.731 18.02,22.596 L18.87,22.258 L19.048,21.364 C19.813,17.545 23.193,14.774 27.081,14.774 C29.352,14.774 31.54,15.727 33.085,17.389 L33.782,18.139 L34.769,17.863 C35.332,17.706 35.903,17.625 36.467,17.625 C39.664,17.625 42.352,20.118 42.588,23.303 L42.661,24.29 L43.561,24.704 Z"/>
    <g>
      <rect width="55" height="55"/>
      <path fill="#38C0E0" d="M22.33,43.745 C22.506,43.788 22.619,43.971 22.575,44.149 L22.558,44.213 C22.515,44.39 22.333,44.502 22.156,44.457 L19.851,43.895 L20.414,46.201 C20.46,46.379 20.348,46.559 20.167,46.604 L20.103,46.618 C19.926,46.663 19.744,46.552 19.701,46.374 L19.146,44.11 L17.495,45.752 C17.364,45.88 17.155,45.88 17.024,45.749 L16.976,45.702 C16.849,45.571 16.849,45.36 16.979,45.229 L18.626,43.595 L16.372,43.044 C16.194,43.002 16.08,42.822 16.127,42.641 L16.141,42.577 C16.186,42.397 16.369,42.289 16.546,42.332 L18.853,42.895 L18.287,40.589 C18.243,40.413 18.356,40.228 18.534,40.186 L18.598,40.17 C18.778,40.126 18.96,40.236 19.003,40.414 L19.553,42.674 L21.206,41.036 C21.336,40.907 21.548,40.907 21.676,41.039 L21.724,41.086 C21.855,41.216 21.852,41.426 21.724,41.556 L20.074,43.192 L22.33,43.745 Z M16.531,51.602 C16.708,51.645 16.82,51.828 16.776,52.006 L16.759,52.07 C16.716,52.247 16.534,52.359 16.357,52.314 L14.052,51.752 L14.615,54.058 C14.66,54.236 14.548,54.416 14.367,54.461 L14.303,54.475 C14.126,54.52 13.944,54.409 13.901,54.231 L13.346,51.967 L11.695,53.609 C11.564,53.737 11.355,53.737 11.224,53.606 L11.176,53.559 C11.049,53.428 11.049,53.217 11.179,53.086 L12.826,51.452 L10.572,50.901 C10.394,50.859 10.28,50.679 10.327,50.498 L10.341,50.434 C10.386,50.254 10.569,50.146 10.746,50.189 L13.053,50.752 L12.487,48.446 C12.444,48.27 12.557,48.085 12.735,48.043 L12.799,48.027 C12.979,47.983 13.161,48.093 13.204,48.271 L13.754,50.531 L15.407,48.893 C15.537,48.764 15.749,48.764 15.877,48.896 L15.925,48.943 C16.056,49.073 16.053,49.283 15.925,49.413 L14.275,51.049 L16.531,51.602 Z M31.79,51.602 C31.967,51.645 32.079,51.828 32.034,52.006 L32.017,52.07 C31.974,52.247 31.792,52.359 31.615,52.314 L29.31,51.752 L29.873,54.058 C29.919,54.236 29.807,54.416 29.626,54.461 L29.562,54.475 C29.385,54.52 29.203,54.409 29.16,54.231 L28.605,51.967 L26.954,53.609 C26.823,53.737 26.614,53.737 26.483,53.606 L26.435,53.559 C26.308,53.428 26.308,53.217 26.438,53.086 L28.085,51.452 L25.831,50.901 C25.653,50.859 25.539,50.679 25.586,50.498 L25.6,50.434 C25.645,50.254 25.828,50.146 26.005,50.189 L28.312,50.752 L27.746,48.446 C27.703,48.27 27.816,48.085 27.994,48.043 L28.058,48.027 C28.238,47.983 28.42,48.093 28.463,48.271 L29.013,50.531 L30.666,48.893 C30.796,48.764 31.008,48.764 31.136,48.896 L31.184,48.943 C31.315,49.073 31.312,49.283 31.184,49.413 L29.534,51.049 L31.79,51.602 Z M37.717,43.745 C37.893,43.788 38.006,43.971 37.961,44.149 L37.944,44.213 C37.901,44.39 37.719,44.502 37.542,44.457 L35.237,43.895 L35.8,46.201 C35.846,46.379 35.734,46.559 35.553,46.604 L35.489,46.618 C35.312,46.663 35.13,46.552 35.087,46.374 L34.532,44.11 L32.881,45.752 C32.75,45.88 32.541,45.88 32.41,45.749 L32.362,45.702 C32.235,45.571 32.235,45.36 32.365,45.229 L34.012,43.595 L31.758,43.044 C31.58,43.002 31.466,42.822 31.513,42.641 L31.527,42.577 C31.572,42.397 31.755,42.289 31.932,42.332 L34.239,42.895 L33.673,40.589 C33.63,40.413 33.743,40.228 33.921,40.186 L33.985,40.17 C34.165,40.126 34.347,40.236 34.39,40.414 L34.94,42.674 L36.593,41.036 C36.723,40.907 36.935,40.907 37.063,41.039 L37.111,41.086 C37.242,41.216 37.239,41.426 37.111,41.556 L35.461,43.192 L37.717,43.745 Z"/>
    </g>
  </g>
</svg>
