<svg xmlns="http://www.w3.org/2000/svg" width="55" height="47" viewBox="0 0 55 47">
  <g fill="none" fill-rule="evenodd">
    <rect width="55" height="55"/>
    <path fill="#D5DCE2" d="M38.605,24.673 L37.705,24.259 L37.632,23.27 C37.396,20.087 34.708,17.593 31.511,17.593 C30.947,17.593 30.376,17.673 29.813,17.831 L28.826,18.107 L28.129,17.357 C26.584,15.695 24.396,14.742 22.125,14.742 C18.237,14.742 14.857,17.513 14.092,21.332 L13.913,22.226 L13.064,22.564 C10.199,23.699 8.274,26.528 8.274,29.604 C8.274,33.78 11.674,37.18 15.851,37.18 L35.879,37.18 C39.488,37.18 42.424,34.24 42.424,30.626 C42.423,28.078 40.925,25.741 38.605,24.673"/>
    <path fill="#7694B4" d="M33.349,13.315 C30.662,9.925 28.98,4.037 32.765,0.0399999991 C31.309,0.457999999 29.904,1.153 28.639,2.15 C26.481,3.848 25.225,6.177 24.748,8.641 C24.535,10.355 24.495,11.988 24.537,13.56 C26.338,14.021 27.995,14.98 29.279,16.358 L29.325,16.408 L29.388,16.39 C30.09,16.194 30.804,16.094 31.511,16.094 C35.464,16.094 38.785,19.136 39.169,23.048 C40.695,22.753 42.18,22.137 43.527,21.076 C44.795,20.081 45.799,18.881 46.547,17.561 C41.771,20.297 36.359,17.111 33.349,13.315"/>
    <g transform="translate(-3)">
      <rect width="55" height="55"/>
      <path fill="#009EFF" d="M36.48,45.229 C35.157,47.783 32.138,46.112 33.408,43.647 C34.486,41.552 37.076,40.285 37.076,40.285 C37.076,40.285 37.526,43.201 36.48,45.229"/>
      <path fill="#38C0E0" d="M24.631,43.745 L22.375,43.192 L24.025,41.556 C24.153,41.426 24.156,41.216 24.025,41.086 L23.977,41.039 C23.849,40.907 23.637,40.907 23.507,41.036 L21.854,42.674 L21.304,40.414 C21.261,40.236 21.079,40.126 20.899,40.17 L20.835,40.186 C20.657,40.228 20.544,40.413 20.588,40.589 L21.154,42.895 L18.847,42.332 C18.67,42.289 18.487,42.397 18.442,42.577 L18.428,42.641 C18.381,42.822 18.495,43.002 18.673,43.044 L20.927,43.595 L19.28,45.229 C19.15,45.36 19.15,45.571 19.277,45.702 L19.325,45.749 C19.456,45.88 19.665,45.88 19.796,45.752 L21.447,44.11 L22.002,46.374 C22.045,46.552 22.227,46.663 22.404,46.618 L22.468,46.604 C22.649,46.559 22.761,46.379 22.715,46.201 L22.152,43.895 L24.457,44.457 C24.634,44.502 24.816,44.39 24.859,44.213 L24.876,44.149 C24.92,43.971 24.808,43.788 24.631,43.745"/>
    </g>
  </g>
</svg>
