<svg xmlns="http://www.w3.org/2000/svg" width="55" height="55" viewBox="0 0 55 55">
  <g fill="none" fill-rule="evenodd">
    <rect width="55" height="55"/>
    <path fill="#D5DCE2" d="M38.605,24.673 L37.705,24.259 L37.632,23.27 C37.396,20.087 34.708,17.593 31.511,17.593 C30.947,17.593 30.376,17.673 29.813,17.831 L28.826,18.107 L28.129,17.357 C26.584,15.695 24.396,14.742 22.125,14.742 C18.237,14.742 14.857,17.513 14.092,21.332 L13.913,22.226 L13.064,22.564 C10.199,23.699 8.274,26.528 8.274,29.604 C8.274,33.78 11.674,37.18 15.851,37.18 L35.879,37.18 C39.488,37.18 42.424,34.24 42.424,30.626 C42.423,28.078 40.925,25.741 38.605,24.673"/>
    <path fill="#7694B4" d="M33.349,13.315 C30.662,9.925 28.98,4.037 32.765,0.0399999991 C31.309,0.457999999 29.904,1.153 28.639,2.15 C26.481,3.848 25.225,6.177 24.748,8.641 C24.535,10.355 24.495,11.988 24.537,13.56 C26.338,14.021 27.995,14.98 29.279,16.358 L29.325,16.408 L29.388,16.39 C30.09,16.194 30.804,16.094 31.511,16.094 C35.464,16.094 38.785,19.136 39.169,23.048 C40.695,22.753 42.18,22.137 43.527,21.076 C44.795,20.081 45.799,18.881 46.547,17.561 C41.771,20.297 36.359,17.111 33.349,13.315"/>
    <g transform="translate(-4)">
      <rect width="55" height="55"/>
      <path fill="#009EFF" d="M21.017,45.229 C19.694,47.783 16.675,46.112 17.945,43.647 C19.023,41.552 21.613,40.285 21.613,40.285 C21.613,40.285 22.064,43.201 21.017,45.229 Z M34.306,52.838 C32.983,55.392 29.964,53.721 31.234,51.256 C32.312,49.161 34.902,47.894 34.902,47.894 C34.902,47.894 35.352,50.809 34.306,52.838 Z M24.13,52.838 C22.807,55.392 19.788,53.721 21.058,51.256 C22.136,49.161 24.726,47.894 24.726,47.894 C24.726,47.894 25.176,50.809 24.13,52.838 Z M13.953,52.838 C12.63,55.392 9.611,53.721 10.881,51.256 C11.959,49.161 14.549,47.894 14.549,47.894 C14.549,47.894 15,50.809 13.953,52.838 Z M41.37,45.229 C40.047,47.783 37.028,46.112 38.298,43.647 C39.376,41.552 41.966,40.285 41.966,40.285 C41.966,40.285 42.416,43.201 41.37,45.229 Z M31.193,45.229 C29.87,47.783 26.851,46.112 28.121,43.647 C29.199,41.552 31.789,40.285 31.789,40.285 C31.789,40.285 32.239,43.201 31.193,45.229 Z"/>
    </g>
  </g>
</svg>
