<svg xmlns="http://www.w3.org/2000/svg" width="55" height="55" viewBox="0 0 55 55">
  <g fill="none" fill-rule="evenodd">
    <rect width="55" height="55"/>
    <path fill="#D5DCE2" d="M38.605,24.673 L37.705,24.259 L37.632,23.27 C37.396,20.087 34.708,17.593 31.511,17.593 C30.947,17.593 30.376,17.673 29.813,17.831 L28.826,18.107 L28.129,17.357 C26.584,15.695 24.396,14.742 22.125,14.742 C18.237,14.742 14.857,17.513 14.092,21.332 L13.913,22.226 L13.064,22.564 C10.199,23.699 8.274,26.528 8.274,29.604 C8.274,33.78 11.674,37.18 15.851,37.18 L35.879,37.18 C39.488,37.18 42.424,34.24 42.424,30.626 C42.423,28.078 40.925,25.741 38.605,24.673"/>
    <path fill="#7694B4" d="M33.349,13.315 C30.662,9.925 28.98,4.037 32.765,0.0399999991 C31.309,0.457999999 29.904,1.153 28.639,2.15 C26.481,3.848 25.225,6.177 24.748,8.641 C24.535,10.355 24.495,11.988 24.537,13.56 C26.338,14.021 27.995,14.98 29.279,16.358 L29.325,16.408 L29.388,16.39 C30.09,16.194 30.804,16.094 31.511,16.094 C35.464,16.094 38.785,19.136 39.169,23.048 C40.695,22.753 42.18,22.137 43.527,21.076 C44.795,20.081 45.799,18.881 46.547,17.561 C41.771,20.297 36.359,17.111 33.349,13.315"/>
    <g transform="translate(-2)">
      <rect width="55" height="55"/>
      <path fill="#38C0E0" d="M40.467,43.745 C40.644,43.788 40.757,43.971 40.711,44.149 L40.694,44.213 C40.651,44.39 40.469,44.502 40.292,44.457 L37.987,43.895 L38.55,46.201 C38.596,46.379 38.484,46.559 38.303,46.604 L38.239,46.618 C38.062,46.663 37.88,46.552 37.837,46.374 L37.282,44.11 L35.631,45.752 C35.5,45.88 35.291,45.88 35.16,45.749 L35.112,45.702 C34.985,45.571 34.985,45.36 35.115,45.229 L36.762,43.595 L34.508,43.044 C34.33,43.002 34.216,42.822 34.263,42.641 L34.277,42.577 C34.322,42.397 34.505,42.289 34.682,42.332 L36.989,42.895 L36.423,40.589 C36.38,40.413 36.493,40.228 36.671,40.186 L36.735,40.17 C36.915,40.126 37.097,40.236 37.14,40.414 L37.69,42.674 L39.343,41.036 C39.473,40.907 39.685,40.907 39.813,41.039 L39.861,41.086 C39.992,41.216 39.989,41.426 39.861,41.556 L38.211,43.192 L40.467,43.745 Z M21.513,43.745 C21.69,43.788 21.802,43.971 21.758,44.149 L21.741,44.213 C21.698,44.39 21.516,44.502 21.339,44.457 L19.034,43.895 L19.597,46.201 C19.642,46.379 19.53,46.559 19.349,46.604 L19.285,46.618 C19.108,46.663 18.926,46.552 18.883,46.374 L18.328,44.11 L16.677,45.752 C16.546,45.88 16.337,45.88 16.206,45.749 L16.158,45.702 C16.031,45.571 16.031,45.36 16.161,45.229 L17.808,43.595 L15.554,43.044 C15.376,43.002 15.262,42.822 15.309,42.641 L15.323,42.577 C15.368,42.397 15.551,42.289 15.728,42.332 L18.035,42.895 L17.469,40.589 C17.426,40.413 17.539,40.228 17.717,40.186 L17.781,40.17 C17.961,40.126 18.143,40.236 18.186,40.414 L18.736,42.674 L20.389,41.036 C20.519,40.907 20.731,40.907 20.859,41.039 L20.907,41.086 C21.038,41.216 21.035,41.426 20.907,41.556 L19.257,43.192 L21.513,43.745 Z"/>
      <polygon fill="#FF7800" points="31.037 43.465 28.222 43.422 30.53 39.385 26.967 39.415 23.944 45.438 26.576 45.438 22.88 54.567"/>
    </g>
  </g>
</svg>
