<svg xmlns="http://www.w3.org/2000/svg" width="55" height="55" viewBox="0 0 55 55">
  <g fill="none" fill-rule="evenodd">
    <rect width="55" height="55"/>
    <path fill="#D5DCE2" d="M38.605,24.673 L37.705,24.259 L37.632,23.27 C37.396,20.087 34.708,17.593 31.511,17.593 C30.947,17.593 30.376,17.673 29.813,17.831 L28.826,18.107 L28.129,17.357 C26.584,15.695 24.396,14.742 22.125,14.742 C18.237,14.742 14.857,17.513 14.092,21.332 L13.913,22.226 L13.064,22.564 C10.199,23.699 8.274,26.528 8.274,29.604 C8.274,33.78 11.674,37.18 15.851,37.18 L35.879,37.18 C39.488,37.18 42.424,34.24 42.424,30.626 C42.423,28.078 40.925,25.741 38.605,24.673"/>
    <path fill="#7694B4" d="M33.349,13.315 C30.662,9.925 28.98,4.037 32.765,0.0399999991 C31.309,0.457999999 29.904,1.153 28.639,2.15 C26.481,3.848 25.225,6.177 24.748,8.641 C24.535,10.355 24.495,11.988 24.537,13.56 C26.338,14.021 27.995,14.98 29.279,16.358 L29.325,16.408 L29.388,16.39 C30.09,16.194 30.804,16.094 31.511,16.094 C35.464,16.094 38.785,19.136 39.169,23.048 C40.695,22.753 42.18,22.137 43.527,21.076 C44.795,20.081 45.799,18.881 46.547,17.561 C41.771,20.297 36.359,17.111 33.349,13.315"/>
    <g transform="translate(-3)">
      <rect width="55" height="55"/>
      <polygon fill="#FF7800" points="32.037 43.465 29.222 43.422 31.53 39.385 27.967 39.415 24.944 45.438 27.576 45.438 23.88 54.567"/>
      <path fill="#009EFF" d="M20.469,52.838 C19.146,55.392 16.127,53.721 17.397,51.256 C18.475,49.161 21.065,47.894 21.065,47.894 C21.065,47.894 21.515,50.809 20.469,52.838 Z M33.647,52.838 C32.324,55.392 29.305,53.721 30.575,51.256 C31.653,49.161 34.243,47.894 34.243,47.894 C34.243,47.894 34.693,50.809 33.647,52.838 Z M40.168,45.229 C38.845,47.783 35.826,46.112 37.096,43.647 C38.174,41.552 40.764,40.285 40.764,40.285 C40.764,40.285 41.214,43.201 40.168,45.229 Z M41.536,52.838 C40.213,55.392 37.194,53.721 38.464,51.256 C39.542,49.161 42.132,47.894 42.132,47.894 C42.132,47.894 42.582,50.809 41.536,52.838 Z M12.612,52.838 C11.289,55.392 8.27,53.721 9.54,51.256 C10.618,49.161 13.208,47.894 13.208,47.894 C13.208,47.894 13.658,50.809 12.612,52.838 Z M19.761,45.229 C18.438,47.783 15.419,46.112 16.689,43.647 C17.767,41.552 20.357,40.285 20.357,40.285 C20.357,40.285 20.807,43.201 19.761,45.229 Z"/>
    </g>
  </g>
</svg>
