<svg xmlns="http://www.w3.org/2000/svg" width="55" height="55" viewBox="0 0 55 55">
  <g fill="none" fill-rule="evenodd">
    <rect width="55" height="55"/>
    <path fill="#D5DCE2" d="M38.605,24.673 L37.705,24.259 L37.632,23.27 C37.396,20.087 34.708,17.593 31.511,17.593 C30.947,17.593 30.376,17.673 29.813,17.831 L28.826,18.107 L28.129,17.357 C26.584,15.695 24.396,14.742 22.125,14.742 C18.237,14.742 14.857,17.513 14.092,21.332 L13.913,22.226 L13.064,22.564 C10.199,23.699 8.274,26.528 8.274,29.604 C8.274,33.78 11.674,37.18 15.851,37.18 L35.879,37.18 C39.488,37.18 42.424,34.24 42.424,30.626 C42.423,28.078 40.925,25.741 38.605,24.673"/>
    <path fill="#7694B4" d="M33.349,13.315 C30.662,9.925 28.98,4.037 32.765,0.0399999991 C31.309,0.457999999 29.904,1.153 28.639,2.15 C26.481,3.848 25.225,6.177 24.748,8.641 C24.535,10.355 24.495,11.988 24.537,13.56 C26.338,14.021 27.995,14.98 29.279,16.358 L29.325,16.408 L29.388,16.39 C30.09,16.194 30.804,16.094 31.511,16.094 C35.464,16.094 38.785,19.136 39.169,23.048 C40.695,22.753 42.18,22.137 43.527,21.076 C44.795,20.081 45.799,18.881 46.547,17.561 C41.771,20.297 36.359,17.111 33.349,13.315"/>
    <g transform="translate(-3)">
      <rect width="55" height="55"/>
      <path fill="#009EFF" d="M19.1,45.229 C17.777,47.783 14.758,46.112 16.028,43.647 C17.106,41.552 19.696,40.285 19.696,40.285 C19.696,40.285 20.147,43.201 19.1,45.229 Z M26.171,53.163 C24.848,55.717 21.829,54.046 23.099,51.581 C24.177,49.486 26.767,48.219 26.767,48.219 C26.767,48.219 27.218,51.135 26.171,53.163 Z M39.37,45.229 C38.047,47.783 35.028,46.112 36.298,43.647 C37.376,41.552 39.966,40.285 39.966,40.285 C39.966,40.285 40.416,43.201 39.37,45.229 Z"/>
      <path fill="#38C0E0" d="M30.873,43.853 C31.05,43.897 31.162,44.08 31.117,44.257 L31.1,44.321 C31.057,44.498 30.875,44.61 30.698,44.565 L28.393,44.003 L28.956,46.309 C29.002,46.487 28.89,46.667 28.709,46.712 L28.645,46.726 C28.468,46.771 28.286,46.66 28.243,46.482 L27.688,44.218 L26.037,45.86 C25.906,45.988 25.697,45.988 25.566,45.857 L25.518,45.81 C25.391,45.679 25.391,45.468 25.521,45.337 L27.168,43.703 L24.914,43.152 C24.736,43.11 24.622,42.93 24.669,42.749 L24.683,42.685 C24.728,42.505 24.911,42.397 25.088,42.44 L27.395,43.003 L26.829,40.697 C26.786,40.521 26.899,40.336 27.077,40.294 L27.141,40.278 C27.321,40.234 27.503,40.344 27.546,40.522 L28.096,42.782 L29.749,41.144 C29.879,41.015 30.091,41.015 30.219,41.147 L30.267,41.194 C30.398,41.324 30.395,41.534 30.267,41.664 L28.617,43.3 L30.873,43.853 Z M37.943,51.679 C38.12,51.722 38.233,51.906 38.187,52.083 L38.17,52.147 C38.127,52.324 37.945,52.436 37.768,52.391 L35.463,51.829 L36.026,54.135 C36.072,54.313 35.96,54.493 35.779,54.538 L35.715,54.552 C35.538,54.597 35.356,54.486 35.313,54.308 L34.758,52.044 L33.107,53.686 C32.976,53.814 32.767,53.814 32.636,53.683 L32.588,53.636 C32.461,53.505 32.461,53.294 32.591,53.163 L34.238,51.529 L31.984,50.978 C31.806,50.936 31.692,50.756 31.739,50.575 L31.753,50.511 C31.798,50.331 31.981,50.223 32.158,50.266 L34.465,50.829 L33.899,48.523 C33.856,48.347 33.969,48.162 34.147,48.12 L34.211,48.104 C34.391,48.06 34.573,48.17 34.616,48.348 L35.166,50.608 L36.819,48.97 C36.949,48.841 37.161,48.841 37.289,48.973 L37.337,49.02 C37.468,49.15 37.465,49.36 37.337,49.49 L35.687,51.126 L37.943,51.679 Z M17.674,51.679 C17.851,51.722 17.963,51.906 17.919,52.083 L17.902,52.147 C17.859,52.324 17.677,52.436 17.5,52.391 L15.195,51.829 L15.758,54.135 C15.804,54.313 15.692,54.493 15.511,54.538 L15.447,54.552 C15.27,54.597 15.088,54.486 15.045,54.308 L14.49,52.044 L12.839,53.686 C12.708,53.814 12.499,53.814 12.368,53.683 L12.32,53.636 C12.193,53.505 12.193,53.294 12.323,53.163 L13.97,51.529 L11.716,50.978 C11.538,50.936 11.424,50.756 11.471,50.575 L11.485,50.511 C11.53,50.331 11.713,50.223 11.89,50.266 L14.197,50.829 L13.631,48.523 C13.587,48.347 13.7,48.162 13.878,48.12 L13.942,48.104 C14.122,48.06 14.304,48.17 14.347,48.348 L14.897,50.608 L16.55,48.97 C16.68,48.841 16.892,48.841 17.02,48.973 L17.068,49.02 C17.199,49.15 17.196,49.36 17.068,49.49 L15.418,51.126 L17.674,51.679 Z"/>
    </g>
  </g>
</svg>
