<svg xmlns="http://www.w3.org/2000/svg" width="55" height="55" viewBox="0 0 55 55">
  <g fill="none" fill-rule="evenodd">
    <rect width="55" height="55"/>
    <path fill="#D5DCE2" d="M38.605,24.673 L37.705,24.259 L37.632,23.27 C37.396,20.087 34.708,17.593 31.511,17.593 C30.947,17.593 30.376,17.673 29.813,17.831 L28.826,18.107 L28.129,17.357 C26.584,15.695 24.396,14.742 22.125,14.742 C18.237,14.742 14.857,17.513 14.092,21.332 L13.913,22.226 L13.064,22.564 C10.199,23.699 8.274,26.528 8.274,29.604 C8.274,33.78 11.674,37.18 15.851,37.18 L35.879,37.18 C39.488,37.18 42.424,34.24 42.424,30.626 C42.423,28.078 40.925,25.741 38.605,24.673"/>
    <path fill="#7694B4" d="M33.349,13.315 C30.662,9.925 28.98,4.037 32.765,0.0399999991 C31.309,0.457999999 29.904,1.153 28.639,2.15 C26.481,3.848 25.225,6.177 24.748,8.641 C24.535,10.355 24.495,11.988 24.537,13.56 C26.338,14.021 27.995,14.98 29.279,16.358 L29.325,16.408 L29.388,16.39 C30.09,16.194 30.804,16.094 31.511,16.094 C35.464,16.094 38.785,19.136 39.169,23.048 C40.695,22.753 42.18,22.137 43.527,21.076 C44.795,20.081 45.799,18.881 46.547,17.561 C41.771,20.297 36.359,17.111 33.349,13.315"/>
    <g transform="translate(-2)">
      <rect width="55" height="55"/>
      <polygon fill="#FF7800" points="31.037 43.465 28.222 43.422 30.53 39.385 26.967 39.415 23.944 45.438 26.576 45.438 22.88 54.567"/>
      <path fill="#009EFF" d="M38.659,45.229 C37.336,47.783 34.317,46.112 35.587,43.647 C36.665,41.552 39.255,40.285 39.255,40.285 C39.255,40.285 39.705,43.201 38.659,45.229"/>
      <path fill="#38C0E0" d="M21.395,43.745 L19.139,43.192 L20.789,41.556 C20.917,41.426 20.92,41.216 20.789,41.086 L20.741,41.039 C20.613,40.907 20.401,40.907 20.271,41.036 L18.618,42.674 L18.068,40.414 C18.025,40.236 17.843,40.126 17.663,40.17 L17.599,40.186 C17.421,40.228 17.308,40.413 17.352,40.589 L17.918,42.895 L15.611,42.332 C15.434,42.289 15.251,42.397 15.206,42.577 L15.192,42.641 C15.145,42.822 15.259,43.002 15.437,43.044 L17.691,43.595 L16.044,45.229 C15.914,45.36 15.914,45.571 16.041,45.702 L16.089,45.749 C16.22,45.88 16.429,45.88 16.56,45.752 L18.211,44.11 L18.766,46.374 C18.809,46.552 18.991,46.663 19.168,46.618 L19.232,46.604 C19.413,46.559 19.525,46.379 19.479,46.201 L18.916,43.895 L21.221,44.457 C21.398,44.502 21.58,44.39 21.623,44.213 L21.64,44.149 C21.685,43.971 21.572,43.788 21.395,43.745"/>
    </g>
  </g>
</svg>
