<svg xmlns="http://www.w3.org/2000/svg" width="55" height="47" viewBox="0 0 55 47">
  <g fill="none" fill-rule="evenodd">
    <rect width="55" height="55"/>
    <path fill="#D5DCE2" d="M38.605,24.673 L37.705,24.259 L37.632,23.27 C37.396,20.087 34.708,17.593 31.511,17.593 C30.947,17.593 30.376,17.673 29.813,17.831 L28.826,18.107 L28.129,17.357 C26.584,15.695 24.396,14.742 22.125,14.742 C18.237,14.742 14.857,17.513 14.092,21.332 L13.913,22.226 L13.064,22.564 C10.199,23.699 8.274,26.528 8.274,29.604 C8.274,33.78 11.674,37.18 15.851,37.18 L35.879,37.18 C39.488,37.18 42.424,34.24 42.424,30.626 C42.423,28.078 40.925,25.741 38.605,24.673"/>
    <path fill="#7694B4" d="M33.349,13.315 C30.662,9.925 28.98,4.037 32.765,0.0399999991 C31.309,0.457999999 29.904,1.153 28.639,2.15 C26.481,3.848 25.225,6.177 24.748,8.641 C24.535,10.355 24.495,11.988 24.537,13.56 C26.338,14.021 27.995,14.98 29.279,16.358 L29.325,16.408 L29.388,16.39 C30.09,16.194 30.804,16.094 31.511,16.094 C35.464,16.094 38.785,19.136 39.169,23.048 C40.695,22.753 42.18,22.137 43.527,21.076 C44.795,20.081 45.799,18.881 46.547,17.561 C41.771,20.297 36.359,17.111 33.349,13.315"/>
    <g transform="translate(-4)">
      <rect width="55" height="55"/>
      <path fill="#38C0E0" d="M25.639,43.745 C25.816,43.788 25.928,43.971 25.883,44.149 L25.866,44.213 C25.823,44.39 25.641,44.502 25.464,44.457 L23.159,43.895 L23.722,46.201 C23.768,46.379 23.656,46.559 23.475,46.604 L23.411,46.618 C23.234,46.663 23.052,46.552 23.009,46.374 L22.454,44.11 L20.803,45.752 C20.672,45.88 20.463,45.88 20.332,45.749 L20.284,45.702 C20.157,45.571 20.157,45.36 20.287,45.229 L21.934,43.595 L19.68,43.044 C19.502,43.002 19.388,42.822 19.435,42.641 L19.449,42.577 C19.494,42.397 19.677,42.289 19.854,42.332 L22.161,42.895 L21.595,40.589 C21.552,40.413 21.665,40.228 21.843,40.186 L21.907,40.17 C22.087,40.126 22.269,40.236 22.312,40.414 L22.862,42.674 L24.515,41.036 C24.645,40.907 24.857,40.907 24.985,41.039 L25.033,41.086 C25.164,41.216 25.161,41.426 25.033,41.556 L23.383,43.192 L25.639,43.745 Z M41.027,43.745 C41.203,43.788 41.316,43.971 41.272,44.149 L41.255,44.213 C41.212,44.39 41.03,44.502 40.853,44.457 L38.548,43.895 L39.111,46.201 C39.156,46.379 39.044,46.559 38.863,46.604 L38.799,46.618 C38.622,46.663 38.44,46.552 38.397,46.374 L37.842,44.11 L36.191,45.752 C36.06,45.88 35.851,45.88 35.72,45.749 L35.672,45.702 C35.545,45.571 35.545,45.36 35.675,45.229 L37.322,43.595 L35.068,43.044 C34.89,43.002 34.776,42.822 34.823,42.641 L34.837,42.577 C34.882,42.397 35.065,42.289 35.242,42.332 L37.549,42.895 L36.983,40.589 C36.94,40.413 37.053,40.228 37.231,40.186 L37.295,40.17 C37.475,40.126 37.657,40.236 37.7,40.414 L38.25,42.674 L39.903,41.036 C40.033,40.907 40.245,40.907 40.373,41.039 L40.421,41.086 C40.552,41.216 40.549,41.426 40.421,41.556 L38.771,43.192 L41.027,43.745 Z"/>
    </g>
  </g>
</svg>
