<svg xmlns="http://www.w3.org/2000/svg" width="55" height="55" viewBox="0 0 55 55">
  <g fill="none" fill-rule="evenodd">
    <rect width="55" height="55"/>
    <path fill="#D5DCE2" d="M43.598,24.764 C45.915,25.84 47.406,28.18 47.4,30.728 C47.39,34.343 44.445,37.274 40.836,37.263 L20.808,37.204 C16.631,37.192 13.242,33.782 13.254,29.606 C13.263,26.53 15.196,23.707 18.065,22.58 L18.916,22.245 L19.097,21.351 C19.873,17.534 23.261,14.773 27.149,14.785 C29.419,14.792 31.605,15.752 33.145,17.418 L33.839,18.17 L34.827,17.897 C35.39,17.742 35.962,17.662 36.526,17.664 C39.723,17.673 42.404,20.175 42.63,23.36 L42.7,24.348 L43.598,24.764 Z M11.681,29.601 C11.678,30.577 11.833,31.518 12.116,32.403 C10.906,32.183 9.931,31.912 9.931,31.912 C6.379,30.659 3.896,27.131 4.258,23.086 C4.552,19.799 6.846,17.026 9.918,15.817 L10.601,15.548 L10.807,14.54 C11.855,9.379 17.144,5.93 22.56,7.541 C24.185,8.024 25.619,9.009 26.77,10.254 L27.419,10.957 C27.419,10.957 27.464,10.984 27.533,11.027 C29.108,10.279 30.968,10.248 32.628,11.16 C34.176,12.012 35.158,13.25 35.665,14.608 C35.72,14.755 35.953,15.603 35.911,16.136 C35.408,16.175 34.904,16.247 34.407,16.384 L34.343,16.402 L34.297,16.352 C32.461,14.366 29.857,13.223 27.152,13.215 C22.515,13.201 18.48,16.49 17.555,21.038 L17.544,21.096 L17.488,21.118 C14.025,22.478 11.692,25.887 11.681,29.601 Z"/>
    <path fill="#7694B4" d="M38.376,13.32 C35.699,9.922 34.035,4.029 37.831,0.044 C36.374,0.457 34.966,1.149 33.698,2.141 C31.535,3.833 30.272,6.158 29.788,8.621 C29.775,8.72 29.769,8.817 29.76,8.914 C29.836,8.912 29.913,8.897 29.989,8.898 C31.181,8.902 32.323,9.2 33.383,9.783 C35.16,10.76 36.458,12.238 37.137,14.059 C37.219,14.279 37.526,15.326 37.478,16.187 C37.922,16.245 38.35,16.339 38.767,16.47 C38.776,16.473 38.787,16.475 38.797,16.478 C39.188,16.602 39.562,16.755 39.924,16.938 C39.974,16.963 40.023,16.988 40.074,17.014 C40.388,17.181 40.688,17.365 40.975,17.573 C41.077,17.645 41.172,17.722 41.27,17.798 C41.496,17.978 41.713,18.163 41.918,18.368 C42.067,18.514 42.201,18.671 42.338,18.829 C42.475,18.99 42.613,19.148 42.736,19.32 C42.913,19.563 43.067,19.82 43.216,20.084 C43.28,20.199 43.352,20.31 43.409,20.428 C43.583,20.778 43.724,21.144 43.843,21.521 C43.86,21.576 43.883,21.627 43.899,21.682 C44.029,22.129 44.122,22.591 44.166,23.068 C45.692,22.779 47.181,22.166 48.53,21.11 C49.801,20.119 50.809,18.922 51.56,17.604 C46.777,20.327 41.374,17.125 38.376,13.32"/>
    <g>
      <rect width="55" height="55"/>
      <path fill="#009EFF" d="M18.105,45.229 C16.782,47.783 13.763,46.112 15.033,43.647 C16.111,41.552 18.701,40.285 18.701,40.285 C18.701,40.285 19.151,43.201 18.105,45.229 Z M20.139,53.04 C18.816,55.594 15.797,53.923 17.067,51.458 C18.145,49.363 20.735,48.096 20.735,48.096 C20.735,48.096 21.185,51.011 20.139,53.04 Z M41.131,45.229 C39.808,47.783 36.789,46.112 38.059,43.647 C39.137,41.552 41.727,40.285 41.727,40.285 C41.727,40.285 42.177,43.201 41.131,45.229 Z"/>
      <polygon fill="#FF7800" points="32.037 43.465 29.222 43.422 31.53 39.385 27.967 39.415 24.944 45.438 27.576 45.438 23.88 54.567"/>
      <path fill="#38C0E0" d="M13.247,51.555 C13.424,51.598 13.537,51.782 13.492,51.959 L13.475,52.023 C13.432,52.2 13.25,52.312 13.073,52.267 L10.768,51.705 L11.331,54.011 C11.376,54.189 11.264,54.369 11.083,54.414 L11.019,54.428 C10.842,54.473 10.66,54.362 10.617,54.184 L10.062,51.92 L8.411,53.562 C8.28,53.69 8.071,53.69 7.94,53.559 L7.892,53.512 C7.765,53.381 7.765,53.17 7.895,53.039 L9.542,51.405 L7.288,50.854 C7.11,50.812 6.996,50.632 7.043,50.451 L7.057,50.387 C7.102,50.207 7.285,50.099 7.462,50.142 L9.769,50.705 L9.203,48.399 C9.16,48.223 9.273,48.038 9.451,47.996 L9.515,47.98 C9.695,47.936 9.877,48.046 9.92,48.224 L10.47,50.484 L12.123,48.846 C12.253,48.717 12.465,48.717 12.593,48.849 L12.641,48.896 C12.772,49.026 12.769,49.236 12.641,49.366 L10.991,51.002 L13.247,51.555 Z M37.049,51.555 C37.226,51.598 37.338,51.782 37.293,51.959 L37.276,52.023 C37.233,52.2 37.051,52.312 36.874,52.267 L34.569,51.705 L35.132,54.011 C35.178,54.189 35.066,54.369 34.885,54.414 L34.821,54.428 C34.644,54.473 34.462,54.362 34.419,54.184 L33.864,51.92 L32.213,53.562 C32.082,53.69 31.873,53.69 31.742,53.559 L31.694,53.512 C31.567,53.381 31.567,53.17 31.697,53.039 L33.344,51.405 L31.09,50.854 C30.912,50.812 30.798,50.632 30.845,50.451 L30.859,50.387 C30.904,50.207 31.087,50.099 31.264,50.142 L33.571,50.705 L33.005,48.399 C32.962,48.223 33.075,48.038 33.253,47.996 L33.317,47.98 C33.497,47.936 33.679,48.046 33.722,48.224 L34.272,50.484 L35.925,48.846 C36.055,48.717 36.267,48.717 36.395,48.849 L36.443,48.896 C36.574,49.026 36.571,49.236 36.443,49.366 L34.793,51.002 L37.049,51.555 Z M45.553,51.555 C45.73,51.598 45.843,51.782 45.796,51.962 L45.779,52.026 C45.736,52.203 45.554,52.315 45.377,52.27 L43.072,51.708 L43.635,54.014 C43.681,54.192 43.569,54.372 43.388,54.417 L43.324,54.431 C43.147,54.476 42.965,54.365 42.922,54.187 L42.367,51.923 L40.716,53.565 C40.585,53.693 40.376,53.693 40.245,53.562 L40.197,53.515 C40.07,53.384 40.07,53.173 40.2,53.042 L41.848,51.405 L39.594,50.854 C39.416,50.812 39.302,50.632 39.349,50.451 L39.363,50.387 C39.408,50.207 39.591,50.099 39.768,50.142 L42.075,50.705 L41.509,48.399 C41.466,48.223 41.579,48.038 41.757,47.996 L41.821,47.98 C42.001,47.936 42.183,48.046 42.226,48.224 L42.776,50.484 L44.429,48.846 C44.559,48.717 44.771,48.717 44.899,48.849 L44.947,48.896 C45.078,49.026 45.075,49.236 44.947,49.366 L43.297,51.002 L45.553,51.555 Z"/>
    </g>
  </g>
</svg>
