<svg xmlns="http://www.w3.org/2000/svg" width="55" height="55" viewBox="0 0 55 55">
  <g fill="none" fill-rule="evenodd">
    <rect width="55" height="55"/>
    <path fill="#D5DCE2" d="M43.598,24.764 C45.915,25.84 47.406,28.18 47.4,30.728 C47.39,34.343 44.445,37.274 40.836,37.263 L20.808,37.204 C16.631,37.192 13.242,33.782 13.254,29.606 C13.263,26.53 15.196,23.707 18.065,22.58 L18.916,22.245 L19.097,21.351 C19.873,17.534 23.261,14.773 27.149,14.785 C29.419,14.792 31.605,15.752 33.145,17.418 L33.839,18.17 L34.827,17.897 C35.39,17.742 35.962,17.662 36.526,17.664 C39.723,17.673 42.404,20.175 42.63,23.36 L42.7,24.348 L43.598,24.764 Z M11.681,29.601 C11.678,30.577 11.833,31.518 12.116,32.403 C10.906,32.183 9.931,31.912 9.931,31.912 C6.379,30.659 3.896,27.131 4.258,23.086 C4.552,19.799 6.846,17.026 9.918,15.817 L10.601,15.548 L10.807,14.54 C11.855,9.379 17.144,5.93 22.56,7.541 C24.185,8.024 25.619,9.009 26.77,10.254 L27.419,10.957 C27.419,10.957 27.464,10.984 27.533,11.027 C29.108,10.279 30.968,10.248 32.628,11.16 C34.176,12.012 35.158,13.25 35.665,14.608 C35.72,14.755 35.953,15.603 35.911,16.136 C35.408,16.175 34.904,16.247 34.407,16.384 L34.343,16.402 L34.297,16.352 C32.461,14.366 29.857,13.223 27.152,13.215 C22.515,13.201 18.48,16.49 17.555,21.038 L17.544,21.096 L17.488,21.118 C14.025,22.478 11.692,25.887 11.681,29.601 Z"/>
    <path fill="#7694B4" d="M38.376,13.32 C35.699,9.922 34.035,4.029 37.831,0.044 C36.374,0.457 34.966,1.149 33.698,2.141 C31.535,3.833 30.272,6.158 29.788,8.621 C29.775,8.72 29.769,8.817 29.76,8.914 C29.836,8.912 29.913,8.897 29.989,8.898 C31.181,8.902 32.323,9.2 33.383,9.783 C35.16,10.76 36.458,12.238 37.137,14.059 C37.219,14.279 37.526,15.326 37.478,16.187 C37.922,16.245 38.35,16.339 38.767,16.47 C38.776,16.473 38.787,16.475 38.797,16.478 C39.188,16.602 39.562,16.755 39.924,16.938 C39.974,16.963 40.023,16.988 40.074,17.014 C40.388,17.181 40.688,17.365 40.975,17.573 C41.077,17.645 41.172,17.722 41.27,17.798 C41.496,17.978 41.713,18.163 41.918,18.368 C42.067,18.514 42.201,18.671 42.338,18.829 C42.475,18.99 42.613,19.148 42.736,19.32 C42.913,19.563 43.067,19.82 43.216,20.084 C43.28,20.199 43.352,20.31 43.409,20.428 C43.583,20.778 43.724,21.144 43.843,21.521 C43.86,21.576 43.883,21.627 43.899,21.682 C44.029,22.129 44.122,22.591 44.166,23.068 C45.692,22.779 47.181,22.166 48.53,21.11 C49.801,20.119 50.809,18.922 51.56,17.604 C46.777,20.327 41.374,17.125 38.376,13.32"/>
    <g>
      <rect width="55" height="55"/>
      <path fill="#38C0E0" d="M22.33,43.745 C22.506,43.788 22.619,43.971 22.575,44.149 L22.558,44.213 C22.515,44.39 22.333,44.502 22.156,44.457 L19.851,43.895 L20.414,46.201 C20.46,46.379 20.348,46.559 20.167,46.604 L20.103,46.618 C19.926,46.663 19.744,46.552 19.701,46.374 L19.146,44.11 L17.495,45.752 C17.364,45.88 17.155,45.88 17.024,45.749 L16.976,45.702 C16.849,45.571 16.849,45.36 16.979,45.229 L18.626,43.595 L16.372,43.044 C16.194,43.002 16.08,42.822 16.127,42.641 L16.141,42.577 C16.186,42.397 16.369,42.289 16.546,42.332 L18.853,42.895 L18.287,40.589 C18.243,40.413 18.356,40.228 18.534,40.186 L18.598,40.17 C18.778,40.126 18.96,40.236 19.003,40.414 L19.553,42.674 L21.206,41.036 C21.336,40.907 21.548,40.907 21.676,41.039 L21.724,41.086 C21.855,41.216 21.852,41.426 21.724,41.556 L20.074,43.192 L22.33,43.745 Z M16.531,51.602 C16.708,51.645 16.82,51.828 16.776,52.006 L16.759,52.07 C16.716,52.247 16.534,52.359 16.357,52.314 L14.052,51.752 L14.615,54.058 C14.66,54.236 14.548,54.416 14.367,54.461 L14.303,54.475 C14.126,54.52 13.944,54.409 13.901,54.231 L13.346,51.967 L11.695,53.609 C11.564,53.737 11.355,53.737 11.224,53.606 L11.176,53.559 C11.049,53.428 11.049,53.217 11.179,53.086 L12.826,51.452 L10.572,50.901 C10.394,50.859 10.28,50.679 10.327,50.498 L10.341,50.434 C10.386,50.254 10.569,50.146 10.746,50.189 L13.053,50.752 L12.487,48.446 C12.444,48.27 12.557,48.085 12.735,48.043 L12.799,48.027 C12.979,47.983 13.161,48.093 13.204,48.271 L13.754,50.531 L15.407,48.893 C15.537,48.764 15.749,48.764 15.877,48.896 L15.925,48.943 C16.056,49.073 16.053,49.283 15.925,49.413 L14.275,51.049 L16.531,51.602 Z M31.79,51.602 C31.967,51.645 32.079,51.828 32.034,52.006 L32.017,52.07 C31.974,52.247 31.792,52.359 31.615,52.314 L29.31,51.752 L29.873,54.058 C29.919,54.236 29.807,54.416 29.626,54.461 L29.562,54.475 C29.385,54.52 29.203,54.409 29.16,54.231 L28.605,51.967 L26.954,53.609 C26.823,53.737 26.614,53.737 26.483,53.606 L26.435,53.559 C26.308,53.428 26.308,53.217 26.438,53.086 L28.085,51.452 L25.831,50.901 C25.653,50.859 25.539,50.679 25.586,50.498 L25.6,50.434 C25.645,50.254 25.828,50.146 26.005,50.189 L28.312,50.752 L27.746,48.446 C27.703,48.27 27.816,48.085 27.994,48.043 L28.058,48.027 C28.238,47.983 28.42,48.093 28.463,48.271 L29.013,50.531 L30.666,48.893 C30.796,48.764 31.008,48.764 31.136,48.896 L31.184,48.943 C31.315,49.073 31.312,49.283 31.184,49.413 L29.534,51.049 L31.79,51.602 Z M37.717,43.745 C37.893,43.788 38.006,43.971 37.961,44.149 L37.944,44.213 C37.901,44.39 37.719,44.502 37.542,44.457 L35.237,43.895 L35.8,46.201 C35.846,46.379 35.734,46.559 35.553,46.604 L35.489,46.618 C35.312,46.663 35.13,46.552 35.087,46.374 L34.532,44.11 L32.881,45.752 C32.75,45.88 32.541,45.88 32.41,45.749 L32.362,45.702 C32.235,45.571 32.235,45.36 32.365,45.229 L34.012,43.595 L31.758,43.044 C31.58,43.002 31.466,42.822 31.513,42.641 L31.527,42.577 C31.572,42.397 31.755,42.289 31.932,42.332 L34.239,42.895 L33.673,40.589 C33.63,40.413 33.743,40.228 33.921,40.186 L33.985,40.17 C34.165,40.126 34.347,40.236 34.39,40.414 L34.94,42.674 L36.593,41.036 C36.723,40.907 36.935,40.907 37.063,41.039 L37.111,41.086 C37.242,41.216 37.239,41.426 37.111,41.556 L35.461,43.192 L37.717,43.745 Z"/>
    </g>
  </g>
</svg>
