<svg xmlns="http://www.w3.org/2000/svg" width="55" height="47" viewBox="0 0 55 47">
  <g fill="none" fill-rule="evenodd">
    <rect width="55" height="55"/>
    <path fill="#D5DCE2" d="M43.598,24.764 C45.915,25.84 47.406,28.18 47.4,30.728 C47.39,34.343 44.445,37.274 40.836,37.263 L20.808,37.204 C16.631,37.192 13.242,33.782 13.254,29.606 C13.263,26.53 15.196,23.707 18.065,22.58 L18.916,22.245 L19.097,21.351 C19.873,17.534 23.261,14.773 27.149,14.785 C29.419,14.792 31.605,15.752 33.145,17.418 L33.839,18.17 L34.827,17.897 C35.39,17.742 35.962,17.662 36.526,17.664 C39.723,17.673 42.404,20.175 42.63,23.36 L42.7,24.348 L43.598,24.764 Z M11.681,29.601 C11.678,30.577 11.833,31.518 12.116,32.403 C10.906,32.183 9.931,31.912 9.931,31.912 C6.379,30.659 3.896,27.131 4.258,23.086 C4.552,19.799 6.846,17.026 9.918,15.817 L10.601,15.548 L10.807,14.54 C11.855,9.379 17.144,5.93 22.56,7.541 C24.185,8.024 25.619,9.009 26.77,10.254 L27.419,10.957 C27.419,10.957 27.464,10.984 27.533,11.027 C29.108,10.279 30.968,10.248 32.628,11.16 C34.176,12.012 35.158,13.25 35.665,14.608 C35.72,14.755 35.953,15.603 35.911,16.136 C35.408,16.175 34.904,16.247 34.407,16.384 L34.343,16.402 L34.297,16.352 C32.461,14.366 29.857,13.223 27.152,13.215 C22.515,13.201 18.48,16.49 17.555,21.038 L17.544,21.096 L17.488,21.118 C14.025,22.478 11.692,25.887 11.681,29.601 Z"/>
    <path fill="#7694B4" d="M38.376,13.32 C35.699,9.922 34.035,4.029 37.831,0.044 C36.374,0.457 34.966,1.149 33.698,2.141 C31.535,3.833 30.272,6.158 29.788,8.621 C29.775,8.72 29.769,8.817 29.76,8.914 C29.836,8.912 29.913,8.897 29.989,8.898 C31.181,8.902 32.323,9.2 33.383,9.783 C35.16,10.76 36.458,12.238 37.137,14.059 C37.219,14.279 37.526,15.326 37.478,16.187 C37.922,16.245 38.35,16.339 38.767,16.47 C38.776,16.473 38.787,16.475 38.797,16.478 C39.188,16.602 39.562,16.755 39.924,16.938 C39.974,16.963 40.023,16.988 40.074,17.014 C40.388,17.181 40.688,17.365 40.975,17.573 C41.077,17.645 41.172,17.722 41.27,17.798 C41.496,17.978 41.713,18.163 41.918,18.368 C42.067,18.514 42.201,18.671 42.338,18.829 C42.475,18.99 42.613,19.148 42.736,19.32 C42.913,19.563 43.067,19.82 43.216,20.084 C43.28,20.199 43.352,20.31 43.409,20.428 C43.583,20.778 43.724,21.144 43.843,21.521 C43.86,21.576 43.883,21.627 43.899,21.682 C44.029,22.129 44.122,22.591 44.166,23.068 C45.692,22.779 47.181,22.166 48.53,21.11 C49.801,20.119 50.809,18.922 51.56,17.604 C46.777,20.327 41.374,17.125 38.376,13.32"/>
    <g>
      <rect width="55" height="55"/>
      <path fill="#38C0E0" d="M25.639,43.745 C25.816,43.788 25.928,43.971 25.883,44.149 L25.866,44.213 C25.823,44.39 25.641,44.502 25.464,44.457 L23.159,43.895 L23.722,46.201 C23.768,46.379 23.656,46.559 23.475,46.604 L23.411,46.618 C23.234,46.663 23.052,46.552 23.009,46.374 L22.454,44.11 L20.803,45.752 C20.672,45.88 20.463,45.88 20.332,45.749 L20.284,45.702 C20.157,45.571 20.157,45.36 20.287,45.229 L21.934,43.595 L19.68,43.044 C19.502,43.002 19.388,42.822 19.435,42.641 L19.449,42.577 C19.494,42.397 19.677,42.289 19.854,42.332 L22.161,42.895 L21.595,40.589 C21.552,40.413 21.665,40.228 21.843,40.186 L21.907,40.17 C22.087,40.126 22.269,40.236 22.312,40.414 L22.862,42.674 L24.515,41.036 C24.645,40.907 24.857,40.907 24.985,41.039 L25.033,41.086 C25.164,41.216 25.161,41.426 25.033,41.556 L23.383,43.192 L25.639,43.745 Z M41.027,43.745 C41.203,43.788 41.316,43.971 41.272,44.149 L41.255,44.213 C41.212,44.39 41.03,44.502 40.853,44.457 L38.548,43.895 L39.111,46.201 C39.156,46.379 39.044,46.559 38.863,46.604 L38.799,46.618 C38.622,46.663 38.44,46.552 38.397,46.374 L37.842,44.11 L36.191,45.752 C36.06,45.88 35.851,45.88 35.72,45.749 L35.672,45.702 C35.545,45.571 35.545,45.36 35.675,45.229 L37.322,43.595 L35.068,43.044 C34.89,43.002 34.776,42.822 34.823,42.641 L34.837,42.577 C34.882,42.397 35.065,42.289 35.242,42.332 L37.549,42.895 L36.983,40.589 C36.94,40.413 37.053,40.228 37.231,40.186 L37.295,40.17 C37.475,40.126 37.657,40.236 37.7,40.414 L38.25,42.674 L39.903,41.036 C40.033,40.907 40.245,40.907 40.373,41.039 L40.421,41.086 C40.552,41.216 40.549,41.426 40.421,41.556 L38.771,43.192 L41.027,43.745 Z"/>
    </g>
  </g>
</svg>
