<svg xmlns="http://www.w3.org/2000/svg" width="55" height="55" viewBox="0 0 55 55">
  <g fill="none" fill-rule="evenodd">
    <rect width="55" height="55"/>
    <path fill="#D5DCE2" d="M43.598,24.764 C45.915,25.84 47.406,28.18 47.4,30.728 C47.39,34.343 44.445,37.274 40.836,37.263 L20.808,37.204 C16.631,37.192 13.242,33.782 13.254,29.606 C13.263,26.53 15.196,23.707 18.065,22.58 L18.916,22.245 L19.097,21.351 C19.873,17.534 23.261,14.773 27.149,14.785 C29.419,14.792 31.605,15.752 33.145,17.418 L33.839,18.17 L34.827,17.897 C35.39,17.742 35.962,17.662 36.526,17.664 C39.723,17.673 42.404,20.175 42.63,23.36 L42.7,24.348 L43.598,24.764 Z M11.681,29.601 C11.678,30.577 11.833,31.518 12.116,32.403 C10.906,32.183 9.931,31.912 9.931,31.912 C6.379,30.659 3.896,27.131 4.258,23.086 C4.552,19.799 6.846,17.026 9.918,15.817 L10.601,15.548 L10.807,14.54 C11.855,9.379 17.144,5.93 22.56,7.541 C24.185,8.024 25.619,9.009 26.77,10.254 L27.419,10.957 C27.419,10.957 27.464,10.984 27.533,11.027 C29.108,10.279 30.968,10.248 32.628,11.16 C34.176,12.012 35.158,13.25 35.665,14.608 C35.72,14.755 35.953,15.603 35.911,16.136 C35.408,16.175 34.904,16.247 34.407,16.384 L34.343,16.402 L34.297,16.352 C32.461,14.366 29.857,13.223 27.152,13.215 C22.515,13.201 18.48,16.49 17.555,21.038 L17.544,21.096 L17.488,21.118 C14.025,22.478 11.692,25.887 11.681,29.601 Z"/>
    <path fill="#7694B4" d="M38.376,13.32 C35.699,9.922 34.035,4.029 37.831,0.044 C36.374,0.457 34.966,1.149 33.698,2.141 C31.535,3.833 30.272,6.158 29.788,8.621 C29.775,8.72 29.769,8.817 29.76,8.914 C29.836,8.912 29.913,8.897 29.989,8.898 C31.181,8.902 32.323,9.2 33.383,9.783 C35.16,10.76 36.458,12.238 37.137,14.059 C37.219,14.279 37.526,15.326 37.478,16.187 C37.922,16.245 38.35,16.339 38.767,16.47 C38.776,16.473 38.787,16.475 38.797,16.478 C39.188,16.602 39.562,16.755 39.924,16.938 C39.974,16.963 40.023,16.988 40.074,17.014 C40.388,17.181 40.688,17.365 40.975,17.573 C41.077,17.645 41.172,17.722 41.27,17.798 C41.496,17.978 41.713,18.163 41.918,18.368 C42.067,18.514 42.201,18.671 42.338,18.829 C42.475,18.99 42.613,19.148 42.736,19.32 C42.913,19.563 43.067,19.82 43.216,20.084 C43.28,20.199 43.352,20.31 43.409,20.428 C43.583,20.778 43.724,21.144 43.843,21.521 C43.86,21.576 43.883,21.627 43.899,21.682 C44.029,22.129 44.122,22.591 44.166,23.068 C45.692,22.779 47.181,22.166 48.53,21.11 C49.801,20.119 50.809,18.922 51.56,17.604 C46.777,20.327 41.374,17.125 38.376,13.32"/>
    <g>
      <rect width="55" height="55"/>
      <path fill="#38C0E0" d="M40.467,43.745 C40.644,43.788 40.757,43.971 40.711,44.149 L40.694,44.213 C40.651,44.39 40.469,44.502 40.292,44.457 L37.987,43.895 L38.55,46.201 C38.596,46.379 38.484,46.559 38.303,46.604 L38.239,46.618 C38.062,46.663 37.88,46.552 37.837,46.374 L37.282,44.11 L35.631,45.752 C35.5,45.88 35.291,45.88 35.16,45.749 L35.112,45.702 C34.985,45.571 34.985,45.36 35.115,45.229 L36.762,43.595 L34.508,43.044 C34.33,43.002 34.216,42.822 34.263,42.641 L34.277,42.577 C34.322,42.397 34.505,42.289 34.682,42.332 L36.989,42.895 L36.423,40.589 C36.38,40.413 36.493,40.228 36.671,40.186 L36.735,40.17 C36.915,40.126 37.097,40.236 37.14,40.414 L37.69,42.674 L39.343,41.036 C39.473,40.907 39.685,40.907 39.813,41.039 L39.861,41.086 C39.992,41.216 39.989,41.426 39.861,41.556 L38.211,43.192 L40.467,43.745 Z M21.513,43.745 C21.69,43.788 21.802,43.971 21.758,44.149 L21.741,44.213 C21.698,44.39 21.516,44.502 21.339,44.457 L19.034,43.895 L19.597,46.201 C19.642,46.379 19.53,46.559 19.349,46.604 L19.285,46.618 C19.108,46.663 18.926,46.552 18.883,46.374 L18.328,44.11 L16.677,45.752 C16.546,45.88 16.337,45.88 16.206,45.749 L16.158,45.702 C16.031,45.571 16.031,45.36 16.161,45.229 L17.808,43.595 L15.554,43.044 C15.376,43.002 15.262,42.822 15.309,42.641 L15.323,42.577 C15.368,42.397 15.551,42.289 15.728,42.332 L18.035,42.895 L17.469,40.589 C17.426,40.413 17.539,40.228 17.717,40.186 L17.781,40.17 C17.961,40.126 18.143,40.236 18.186,40.414 L18.736,42.674 L20.389,41.036 C20.519,40.907 20.731,40.907 20.859,41.039 L20.907,41.086 C21.038,41.216 21.035,41.426 20.907,41.556 L19.257,43.192 L21.513,43.745 Z"/>
      <polygon fill="#FF7800" points="31.037 43.465 28.222 43.422 30.53 39.385 26.967 39.415 23.944 45.438 26.576 45.438 22.88 54.567"/>
    </g>
  </g>
</svg>
