<svg xmlns="http://www.w3.org/2000/svg" width="55" height="45" viewBox="0 0 55 45">
  <g fill="none" fill-rule="evenodd">
    <g transform="translate(0 -2)">
      <rect width="55" height="55"/>
      <path fill="#009EFF" d="M36.876,45.229 C35.553,47.783 32.534,46.112 33.804,43.647 C34.882,41.552 37.472,40.285 37.472,40.285 C37.472,40.285 37.922,43.201 36.876,45.229 Z M23.665,45.229 C22.342,47.783 19.323,46.112 20.593,43.647 C21.671,41.552 24.261,40.285 24.261,40.285 C24.261,40.285 24.711,43.201 23.665,45.229 Z"/>
    </g>
    <g fill="#000000" opacity=".4" transform="translate(0 -2)">
      <rect width="55" height="55" fill="none"/>
      <path fill="none" stroke="#C9C9C9" stroke-width="1.4" d="M6.06 29.503L45.192 29.503M11.689 39.708L50.821 39.708M4.561 24.401L43.519 24.401M9.762 34.606L48.72 34.606M6.06 9.093L45.192 9.093M11.689 19.298L50.821 19.298M4.561 3.99L43.519 3.99M10.29 14.16L49.248 14.16M4.561 45.097L43.519 45.097"/>
    </g>
  </g>
</svg>
