<svg xmlns="http://www.w3.org/2000/svg" width="55" height="53" viewBox="0 0 55 53">
  <g fill="none" fill-rule="evenodd">
    <g transform="translate(0 -2)">
      <rect width="55" height="55"/>
      <polygon fill="#FF7800" points="32.037 43.465 29.222 43.422 31.53 39.385 27.967 39.415 24.944 45.438 27.576 45.438 23.88 54.567"/>
      <path fill="#009EFF" d="M20.469,52.838 C19.146,55.392 16.127,53.721 17.397,51.256 C18.475,49.161 21.065,47.894 21.065,47.894 C21.065,47.894 21.515,50.809 20.469,52.838 Z M33.647,52.838 C32.324,55.392 29.305,53.721 30.575,51.256 C31.653,49.161 34.243,47.894 34.243,47.894 C34.243,47.894 34.693,50.809 33.647,52.838 Z M40.168,45.229 C38.845,47.783 35.826,46.112 37.096,43.647 C38.174,41.552 40.764,40.285 40.764,40.285 C40.764,40.285 41.214,43.201 40.168,45.229 Z M41.536,52.838 C40.213,55.392 37.194,53.721 38.464,51.256 C39.542,49.161 42.132,47.894 42.132,47.894 C42.132,47.894 42.582,50.809 41.536,52.838 Z M12.612,52.838 C11.289,55.392 8.27,53.721 9.54,51.256 C10.618,49.161 13.208,47.894 13.208,47.894 C13.208,47.894 13.658,50.809 12.612,52.838 Z M19.761,45.229 C18.438,47.783 15.419,46.112 16.689,43.647 C17.767,41.552 20.357,40.285 20.357,40.285 C20.357,40.285 20.807,43.201 19.761,45.229 Z"/>
    </g>
    <g fill="#000000" opacity=".4" transform="translate(0 -2)">
      <rect width="55" height="55" fill="none"/>
      <path fill="none" stroke="#C9C9C9" stroke-width="1.4" d="M6.06 29.503L45.192 29.503M11.689 39.708L50.821 39.708M4.561 24.401L43.519 24.401M9.762 34.606L48.72 34.606M6.06 9.093L45.192 9.093M11.689 19.298L50.821 19.298M4.561 3.99L43.519 3.99M10.29 14.16L49.248 14.16M4.561 45.097L43.519 45.097"/>
    </g>
  </g>
</svg>
