<svg xmlns="http://www.w3.org/2000/svg" width="55" height="45" viewBox="0 0 55 45">
  <g fill="none" fill-rule="evenodd">
    <g transform="translate(0 -2)">
      <rect width="55" height="55"/>
      <path fill="#38C0E0" d="M25.639,43.745 C25.816,43.788 25.928,43.971 25.883,44.149 L25.866,44.213 C25.823,44.39 25.641,44.502 25.464,44.457 L23.159,43.895 L23.722,46.201 C23.768,46.379 23.656,46.559 23.475,46.604 L23.411,46.618 C23.234,46.663 23.052,46.552 23.009,46.374 L22.454,44.11 L20.803,45.752 C20.672,45.88 20.463,45.88 20.332,45.749 L20.284,45.702 C20.157,45.571 20.157,45.36 20.287,45.229 L21.934,43.595 L19.68,43.044 C19.502,43.002 19.388,42.822 19.435,42.641 L19.449,42.577 C19.494,42.397 19.677,42.289 19.854,42.332 L22.161,42.895 L21.595,40.589 C21.552,40.413 21.665,40.228 21.843,40.186 L21.907,40.17 C22.087,40.126 22.269,40.236 22.312,40.414 L22.862,42.674 L24.515,41.036 C24.645,40.907 24.857,40.907 24.985,41.039 L25.033,41.086 C25.164,41.216 25.161,41.426 25.033,41.556 L23.383,43.192 L25.639,43.745 Z M41.027,43.745 C41.203,43.788 41.316,43.971 41.272,44.149 L41.255,44.213 C41.212,44.39 41.03,44.502 40.853,44.457 L38.548,43.895 L39.111,46.201 C39.156,46.379 39.044,46.559 38.863,46.604 L38.799,46.618 C38.622,46.663 38.44,46.552 38.397,46.374 L37.842,44.11 L36.191,45.752 C36.06,45.88 35.851,45.88 35.72,45.749 L35.672,45.702 C35.545,45.571 35.545,45.36 35.675,45.229 L37.322,43.595 L35.068,43.044 C34.89,43.002 34.776,42.822 34.823,42.641 L34.837,42.577 C34.882,42.397 35.065,42.289 35.242,42.332 L37.549,42.895 L36.983,40.589 C36.94,40.413 37.053,40.228 37.231,40.186 L37.295,40.17 C37.475,40.126 37.657,40.236 37.7,40.414 L38.25,42.674 L39.903,41.036 C40.033,40.907 40.245,40.907 40.373,41.039 L40.421,41.086 C40.552,41.216 40.549,41.426 40.421,41.556 L38.771,43.192 L41.027,43.745 Z"/>
    </g>
    <g fill="#000000" opacity=".4" transform="translate(0 -2)">
      <rect width="55" height="55" fill="none"/>
      <path fill="none" stroke="#C9C9C9" stroke-width="1.4" d="M6.06 29.503L45.192 29.503M11.689 39.708L50.821 39.708M4.561 24.401L43.519 24.401M9.762 34.606L48.72 34.606M6.06 9.093L45.192 9.093M11.689 19.298L50.821 19.298M4.561 3.99L43.519 3.99M10.29 14.16L49.248 14.16M4.561 45.097L43.519 45.097"/>
    </g>
  </g>
</svg>
