<svg xmlns="http://www.w3.org/2000/svg" width="55" height="53" viewBox="0 0 55 53">
  <g fill="none" fill-rule="evenodd">
    <g transform="translate(0 -2)">
      <rect width="55" height="55"/>
      <path fill="#38C0E0" d="M22.33,43.745 C22.506,43.788 22.619,43.971 22.575,44.149 L22.558,44.213 C22.515,44.39 22.333,44.502 22.156,44.457 L19.851,43.895 L20.414,46.201 C20.46,46.379 20.348,46.559 20.167,46.604 L20.103,46.618 C19.926,46.663 19.744,46.552 19.701,46.374 L19.146,44.11 L17.495,45.752 C17.364,45.88 17.155,45.88 17.024,45.749 L16.976,45.702 C16.849,45.571 16.849,45.36 16.979,45.229 L18.626,43.595 L16.372,43.044 C16.194,43.002 16.08,42.822 16.127,42.641 L16.141,42.577 C16.186,42.397 16.369,42.289 16.546,42.332 L18.853,42.895 L18.287,40.589 C18.243,40.413 18.356,40.228 18.534,40.186 L18.598,40.17 C18.778,40.126 18.96,40.236 19.003,40.414 L19.553,42.674 L21.206,41.036 C21.336,40.907 21.548,40.907 21.676,41.039 L21.724,41.086 C21.855,41.216 21.852,41.426 21.724,41.556 L20.074,43.192 L22.33,43.745 Z M16.531,51.602 C16.708,51.645 16.82,51.828 16.776,52.006 L16.759,52.07 C16.716,52.247 16.534,52.359 16.357,52.314 L14.052,51.752 L14.615,54.058 C14.66,54.236 14.548,54.416 14.367,54.461 L14.303,54.475 C14.126,54.52 13.944,54.409 13.901,54.231 L13.346,51.967 L11.695,53.609 C11.564,53.737 11.355,53.737 11.224,53.606 L11.176,53.559 C11.049,53.428 11.049,53.217 11.179,53.086 L12.826,51.452 L10.572,50.901 C10.394,50.859 10.28,50.679 10.327,50.498 L10.341,50.434 C10.386,50.254 10.569,50.146 10.746,50.189 L13.053,50.752 L12.487,48.446 C12.444,48.27 12.557,48.085 12.735,48.043 L12.799,48.027 C12.979,47.983 13.161,48.093 13.204,48.271 L13.754,50.531 L15.407,48.893 C15.537,48.764 15.749,48.764 15.877,48.896 L15.925,48.943 C16.056,49.073 16.053,49.283 15.925,49.413 L14.275,51.049 L16.531,51.602 Z M31.79,51.602 C31.967,51.645 32.079,51.828 32.034,52.006 L32.017,52.07 C31.974,52.247 31.792,52.359 31.615,52.314 L29.31,51.752 L29.873,54.058 C29.919,54.236 29.807,54.416 29.626,54.461 L29.562,54.475 C29.385,54.52 29.203,54.409 29.16,54.231 L28.605,51.967 L26.954,53.609 C26.823,53.737 26.614,53.737 26.483,53.606 L26.435,53.559 C26.308,53.428 26.308,53.217 26.438,53.086 L28.085,51.452 L25.831,50.901 C25.653,50.859 25.539,50.679 25.586,50.498 L25.6,50.434 C25.645,50.254 25.828,50.146 26.005,50.189 L28.312,50.752 L27.746,48.446 C27.703,48.27 27.816,48.085 27.994,48.043 L28.058,48.027 C28.238,47.983 28.42,48.093 28.463,48.271 L29.013,50.531 L30.666,48.893 C30.796,48.764 31.008,48.764 31.136,48.896 L31.184,48.943 C31.315,49.073 31.312,49.283 31.184,49.413 L29.534,51.049 L31.79,51.602 Z M37.717,43.745 C37.893,43.788 38.006,43.971 37.961,44.149 L37.944,44.213 C37.901,44.39 37.719,44.502 37.542,44.457 L35.237,43.895 L35.8,46.201 C35.846,46.379 35.734,46.559 35.553,46.604 L35.489,46.618 C35.312,46.663 35.13,46.552 35.087,46.374 L34.532,44.11 L32.881,45.752 C32.75,45.88 32.541,45.88 32.41,45.749 L32.362,45.702 C32.235,45.571 32.235,45.36 32.365,45.229 L34.012,43.595 L31.758,43.044 C31.58,43.002 31.466,42.822 31.513,42.641 L31.527,42.577 C31.572,42.397 31.755,42.289 31.932,42.332 L34.239,42.895 L33.673,40.589 C33.63,40.413 33.743,40.228 33.921,40.186 L33.985,40.17 C34.165,40.126 34.347,40.236 34.39,40.414 L34.94,42.674 L36.593,41.036 C36.723,40.907 36.935,40.907 37.063,41.039 L37.111,41.086 C37.242,41.216 37.239,41.426 37.111,41.556 L35.461,43.192 L37.717,43.745 Z"/>
    </g>
    <g fill="#000000" opacity=".4" transform="translate(0 -2)">
      <rect width="55" height="55" fill="none"/>
      <path fill="none" stroke="#C9C9C9" stroke-width="1.4" d="M6.06 29.503L45.192 29.503M11.689 39.708L50.821 39.708M4.561 24.401L43.519 24.401M9.762 34.606L48.72 34.606M6.06 9.093L45.192 9.093M11.689 19.298L50.821 19.298M4.561 3.99L43.519 3.99M10.29 14.16L49.248 14.16M4.561 45.097L43.519 45.097"/>
    </g>
  </g>
</svg>
